<svg xmlns="http://www.w3.org/2000/svg" viewBox="0 0 46.81 40.79"><defs><style>.cls-1{fill:#fff;}</style></defs><g id="Capa_2" data-name="Capa 2"><g id="Capa_1-2" data-name="Capa 1"><path class="cls-1" d="M46.81,15.2v2.49c-.1.47-.21.94-.31,1.4a15.36,15.36,0,0,1-6,9.18,1.51,1.51,0,0,0-.74,1.57,31.88,31.88,0,0,0,1,3.79c.31.87.61,1.64-.06,2.42a1.91,1.91,0,0,1-2.39.42c-2.23-1-4.48-2-6.62-3.15a5.94,5.94,0,0,0-3.31-.83A20.94,20.94,0,0,1,15.17,28.9C5.79,22.56,5.58,10.55,14.8,4A21.26,21.26,0,0,1,33.7,1c5.42,1.53,9.65,4.65,11.94,10A30.7,30.7,0,0,1,46.81,15.2ZM32.64,18.74a2.83,2.83,0,0,0,2.93-2.84,2.9,2.9,0,0,0-5.79-.07A2.85,2.85,0,0,0,32.64,18.74ZM25,15.87A2.91,2.91,0,0,0,22.1,13a3,3,0,0,0-2.84,2.87,2.83,2.83,0,0,0,2.87,2.89A2.77,2.77,0,0,0,25,15.87Z"/><path class="cls-1" d="M0,20.4a14,14,0,0,1,3.73-7.71c1.09-1.11,2.35-2.07,3.53-3.09l.22.22a33.59,33.59,0,0,0-1.2,3.68C5,19.72,7.06,24.84,11.7,29a22,22,0,0,0,14.9,5.36h1.51a14.45,14.45,0,0,1-5.7,2.06c-2.18.26-4.4.2-6.61.32a3.07,3.07,0,0,0-1.23.37c-2.21,1.14-4.4,2.31-6.61,3.46a2,2,0,0,1-.79.24,11,11,0,0,1-1.28,0,9.87,9.87,0,0,1,.17-1.33c.29-1.07.69-2.1.91-3.18a3.27,3.27,0,0,0-1.36-3.66A13.15,13.15,0,0,1,.15,23.49,1.85,1.85,0,0,0,0,23.1Z"/></g></g></svg>