<svg xmlns="http://www.w3.org/2000/svg" viewBox="0 0 42.51 60"><defs><style>.cls-1{fill:#0e4174;}</style></defs><g id="Capa_2" data-name="Capa 2"><g id="Capa_1-2" data-name="Capa 1"><path class="cls-1" d="M19.07,43.86,30.81,0c2.43,1.41,3,3.27,2.29,5.38-2.28,6.76-.27,12.16,4.54,17.15C43.55,28.67,44,35,39.51,42.22a20.06,20.06,0,0,1-1.81,2.21L36.76,44a59,59,0,0,1,1.38-6.36c1.51-4.56.9-8.46-2.55-12-2-2-3.56-4.45-5.78-7.27-.49,1.7-.85,2.92-1.19,4.14C25.77,32.68,23,42.84,20,52.92A9.91,9.91,0,0,1,9.46,60,10.19,10.19,0,0,1,.09,51,10.07,10.07,0,0,1,6.38,40.23C11.25,38.34,15.31,40,19.07,43.86Z"/></g></g></svg>