<svg xmlns="http://www.w3.org/2000/svg" viewBox="0 0 38.74 60"><defs><style>.cls-1{fill:#0e4174;}</style></defs><g id="Capa_2" data-name="Capa 2"><g id="Capa_1-2" data-name="Capa 1"><path class="cls-1" d="M28.65.11l.14,0c1.47.82,2.61,1.86,2.55,3.72V7.93c0,.8,0,1.59-.07,2.38s.37,1.06,1.12.85h4.15l1.38.58c.94,1.23.62,2.71.82,4.08a14.94,14.94,0,0,0,0,3.78l-.35,4.12a3.83,3.83,0,0,1-1.85,1.2,11.36,11.36,0,0,0-3.46.1c-.88.3.11,1.76-.71,2.44h-.94c-.87-.91-1.28-2.32-2.78-2.52H24.5l-3.28-.15L20.07,23.7c-.05-.55-.06-1.1-.16-1.65s.44-1.72-.49-1.9-2.1-.65-2.81.57l-2.63,3-1.12.5-.79-.5c.07-3.85.07-3.85-3.35-3.61H4.94C1,19.84.32,19.28,0,15.83v-12C.56.82,1.3.25,5,0H24.51ZM5,2.06C3.56,1.91,2.17,1.8,2,3.8v12c.06,2.21.3,2.4,3,2.24h7.89c1.12.05,1.48.82,1.56,1.93.89-.67,1.3-1.58,2.2-1.92H24.5c1,0,2,0,2.95.08,1.42.06,2-.61,2-2s-.06-3-.09-4.44V7.93c0-.49.06-1,.06-1.47,0-4.71,0-4.76-4.89-4.4H5ZM24.51,20.37c-.43-.05-.85-.15-1.28-.16-1.69,0-2.15.48-1.69,2.08s1.93.78,3,.91h4.11a9.81,9.81,0,0,0,3.78.09c.81,0,1.62,0,2.43.06,1.46.09,2.19-.44,2.07-2-.11-1.37,0-2.75,0-4.13,0-4.52,0-4.52-4.49-4.29-1.64-.33-1.13.94-1.11,1.64.1,2.41.17,4.75-2.67,5.78Z"/><path class="cls-1" d="M38.74,55.34c.06,1.54-.74,2.21-2.21,2.2H32.41a14.94,14.94,0,0,0-3.78,0c-1.17-.1-2.61-.58-2.19,1.56-.36.91-1.21.77-1.93.9H5c-3.64-.26-3.6-.25-3.1-3.93a42.21,42.21,0,0,1,1.2-4.87l2-3.7H5c.45-.48.93-.95,1.35-1.46.65-.79,1.38-1.15,2.34-.52a6.83,6.83,0,0,0,4.12,1.81A7.06,7.06,0,0,0,16.62,47c1.56-.21,2.7-1.34,4.12-1.87a6.24,6.24,0,0,1,1.09.72c.88.93,1.49,2.58,3.09.72.42-.49,1,.15,1.49.44a5.51,5.51,0,0,0,6,.24c2.41-1.11,2.73-1,4.19,1.38.51.83.91,1.73,1.36,2.61C38.23,52.59,38.48,54,38.74,55.34ZM31.87,50l-3.22.21-2.1-.6c-.47-.12-.91-.77-1.44-.16a1.29,1.29,0,0,0,.12,1.8,9.9,9.9,0,0,1,.44,2c.07,2.08,1.27,2.37,3,2h3.78c4.44.31,4.73-.08,3-4C34.49,48.87,34.49,48.87,31.87,50ZM8.77,48.41c-.55-.6-1.07-.76-1.57.08a9,9,0,0,0-1.49,2.7c-1.24,1.66-1.14,3.75-1.77,5.6-.24.7.13,1,.87,1a77.13,77.13,0,0,0,8.05-.17,15.51,15.51,0,0,0,3.73,0,11.69,11.69,0,0,0,4.17,0c3.66.3,3.75.23,3-2.31a8.86,8.86,0,0,0-1.16-4.14,6.27,6.27,0,0,0-1.86-3.07c-1.59-.28-2.7,1.06-4.16,1.24l-3.75.33Z"/><path class="cls-1" d="M4.18,35.4l.6-3.68a11.2,11.2,0,0,1,3.93-5,19.92,19.92,0,0,1,4.14-1.5l3.18.17a10.59,10.59,0,0,1,7.24,6.28,20.71,20.71,0,0,0,.52,3.07c.33,1,.46-.06.69-.15a10.67,10.67,0,0,1,4.17-2.16,8.41,8.41,0,0,1,3.74.65c2.91,1.17,4.07,3.57,4.53,6.46a8,8,0,0,1-4.52,6.78c-5.54,1.11-8.53-.72-10-6.32a16.56,16.56,0,0,1-2.95,3.21l-2.84,1.26-3.75.3a21.1,21.1,0,0,1-4.14-1.49L8.32,43A10.92,10.92,0,0,1,4.18,35.4ZM16.6,42a6,6,0,0,0,3.32-2.51,2.27,2.27,0,0,0,.85-1.45,6.41,6.41,0,0,0-.08-6.45A6.6,6.6,0,0,0,16.62,28a5.92,5.92,0,0,0-3.78-.39c-4.12.89-6.41,3.72-6.31,7.81a7.28,7.28,0,0,0,6.26,7A5.81,5.81,0,0,0,16.6,42Zm15.83-6.38L32,35.4c-3.43-1.83-6.95.2-7.17,4.14-.31,3.16,2.53,4.8,4.84,5a4.78,4.78,0,0,0,4.91-5C34.25,38,34.09,36.42,32.43,35.65Z"/></g></g></svg>