<svg xmlns="http://www.w3.org/2000/svg" viewBox="0 0 59.99 60"><defs><style>.cls-1{fill:#0e4174;}</style></defs><g id="Capa_2" data-name="Capa 2"><g id="Capa_1-2" data-name="Capa 1"><path class="cls-1" d="M30.05,0A30,30,0,1,1,0,29,30,30,0,0,1,30.05,0ZM30,58.14A28.14,28.14,0,1,0,1.86,29.77,28.14,28.14,0,0,0,30,58.14Z"/><path class="cls-1" d="M36.45,24.72a.89.89,0,0,0-.23-.13,5.86,5.86,0,0,1-4-4.9,11.63,11.63,0,0,1,.06-4,1.05,1.05,0,0,1,1.16-1,1,1,0,0,1,.91,1.2c0,.83-.14,1.65-.13,2.47A4.42,4.42,0,0,0,35.74,22a4.25,4.25,0,0,0,2.52.85,13.34,13.34,0,0,1,3.12.6,2.25,2.25,0,0,0,1.09.08,10,10,0,0,0,2-.7,3.8,3.8,0,0,0,2.15-3c.07-.5.19-1,.8-1.14a1.06,1.06,0,0,1,1.31,1,5.68,5.68,0,0,1-2.63,4.57,14.58,14.58,0,0,1-2.3,1.07c-.49.21-.54.22-.5.76a22.54,22.54,0,0,0,1.48,7.06c.2.47.14.6-.33.81L43,34.62a3.24,3.24,0,0,0,2.47,2.1,14.38,14.38,0,0,0,1.61.15,1.31,1.31,0,0,1,1.17.81A1.33,1.33,0,0,1,48,39.09a1.35,1.35,0,0,1-1.1.48c-2.92,0-5.18-1-6.43-3.8-.1-.23-.22-.3-.46-.22-1.08.37-1,0-.73,1.2a15.27,15.27,0,0,0,2.33,5.49c.08.12.17.25.24.38a1.34,1.34,0,0,1-.44,1.76,1.27,1.27,0,0,1-1.78-.26,16.6,16.6,0,0,1-1.24-2,17.94,17.94,0,0,1-1.87-5.32c-.07-.34-.19-.45-.55-.41-.64.08-.72,0-.88-.62a14.59,14.59,0,0,1,0-6,20.44,20.44,0,0,1,1.35-4.91A.54.54,0,0,0,36.45,24.72Z"/><path class="cls-1" d="M26.29,40.35c-.17,1.13-.3,2.26-.51,3.37a1.73,1.73,0,0,1-1.7,1.56,1.65,1.65,0,0,1-1.62-1.8c.11-.87.32-1.73.38-2.6a7.23,7.23,0,0,0-1.34-5,.61.61,0,0,0-.45-.27c-.27,0-.3.3-.35.55a13.3,13.3,0,0,1-.48,2.29,3.85,3.85,0,0,1-4.08,2.42,8.32,8.32,0,0,1-3.41-1.08A1.61,1.61,0,0,1,12,37.65,1.67,1.67,0,0,1,14,36.72c.6.2,1.19.46,1.8.65,1.05.34,1.33.14,1.48-1a4.31,4.31,0,0,0-.18-1.95,24.06,24.06,0,0,1-1.24-7.22A1.28,1.28,0,0,0,15.22,26a8.15,8.15,0,0,1-3.94-6.24,8,8,0,0,1,.22-3.12,1,1,0,0,1,1.15-.83A1,1,0,0,1,13.52,17a9.21,9.21,0,0,0-.09,2.87,6,6,0,0,0,3.22,4.53,2.9,2.9,0,0,0,1,.33c1,.18,2.07.35,3.11.45a2.44,2.44,0,0,0,1.23-.2,7.52,7.52,0,0,0,4.32-5.55c.06-.29.1-.59.17-.88a1.06,1.06,0,0,1,1.23-.8,1,1,0,0,1,.82,1.16A10,10,0,0,1,25,25.57a14.83,14.83,0,0,1-2.12,1.33.79.79,0,0,0-.48.82,18.24,18.24,0,0,0,1,4.91,1.77,1.77,0,0,0,.35.61A11.08,11.08,0,0,1,26.29,40.35Z"/><path class="cls-1" d="M19.56,23.69a3.65,3.65,0,1,1,3.64-3.77A3.65,3.65,0,0,1,19.56,23.69Z"/><path class="cls-1" d="M39.81,22.18a3.32,3.32,0,1,1,3.34-3.32A3.3,3.3,0,0,1,39.81,22.18Z"/></g></g></svg>