<svg xmlns="http://www.w3.org/2000/svg" viewBox="0 0 56.72 46.63"><defs><style>.cls-1{fill:#0e4174;}</style></defs><g id="Capa_2" data-name="Capa 2"><g id="Capa_1-2" data-name="Capa 1"><path class="cls-1" d="M24.68,36.41a29.55,29.55,0,0,1,1.18,4.09c.46,3.51-.72,6-4.67,6-5.31.1-10.63.09-15.94,0-3,0-5.24-1.38-5.25-4.69,0-3.48,2-5,5.45-5,2,0,3.92-.21,6.38-.35-.78-1.47-1.37-2.55-1.92-3.64-3.21-6.33-.36-12.58,6.6-14.09,3.88-.85,7.84-1.37,11.77-2,5-.76,8.47,1.46,10.31,5.92,2.21,5.35,4.11,10.84,6,16.32,1,2.79,1.37,5.92-2.13,7.19s-5.53-1-6.55-4.25c-.1-.32-.2-.63-.32-.94C32.92,34.18,32.92,34.18,24.68,36.41Z"/><path class="cls-1" d="M56.72,10.46a11.1,11.1,0,0,1-11.17,11A10.91,10.91,0,0,1,35,10.4,10.75,10.75,0,0,1,45.62,0C51.49-.11,56.7,4.79,56.72,10.46Z"/></g></g></svg>