<svg xmlns="http://www.w3.org/2000/svg" viewBox="0 0 44.5 58"><defs><style>.cls-1{fill:#0e4174;}</style></defs><g id="Capa_2" data-name="Capa 2"><g id="Capa_1-2" data-name="Capa 1"><path class="cls-1" d="M44.5,19.81A24.26,24.26,0,0,1,43.28,28a17.13,17.13,0,0,1-5.59,7.8c-1.07.86-2.2,1.64-3.25,2.54a2.12,2.12,0,0,0-.78,2.37,25.06,25.06,0,0,0,1.43,3.85c1,2.17,2,4.31,3,6.5a18.64,18.64,0,0,1,1.59,5.18,8.29,8.29,0,0,1,.08,1.11.58.58,0,0,1-.56.66c-.33,0-.52-.24-.54-.66a13.75,13.75,0,0,0-1-4.41c-1-2.51-2.18-4.89-3.29-7.32a25.66,25.66,0,0,1-1.81-4.82,3.21,3.21,0,0,1,1.3-3.41c1.23-1,2.58-1.93,3.79-3A15.68,15.68,0,0,0,42,28.32a23.05,23.05,0,0,0,1.39-9.59,21.2,21.2,0,0,0-.75-5.25,14.83,14.83,0,0,0-2.73-5,17.91,17.91,0,0,0-5-4.22,23.58,23.58,0,0,0-8.62-2.89,27.27,27.27,0,0,0-9.86.54A24.89,24.89,0,0,0,9.54,4.42a16.34,16.34,0,0,0-6.25,5.82,12.36,12.36,0,0,0-1.78,5.47,33.43,33.43,0,0,0-.05,5.2A16.22,16.22,0,0,0,2.8,26.56a4.66,4.66,0,0,1-.4,4.67c-.4.63-.78,1.28-1.12,1.94s-.19,1.12.52,1.44a3.71,3.71,0,0,0,.55.22,1.42,1.42,0,0,1,1.13,1.61c0,.61-.21,1.18-.26,1.78s0,.66.61.65h.24c.49,0,.72.25.63.73-.13.76-.13.77.6,1a2.25,2.25,0,0,1,1.57,1.75A9.32,9.32,0,0,0,7.69,45,2.78,2.78,0,0,0,10,46.46a17,17,0,0,0,4.62-.2c1.11-.16,2.2-.4,3.29-.66a.52.52,0,0,1,.7.45c0,1.51.15,3,.05,4.53a9.39,9.39,0,0,1-1.7,4.64,19.67,19.67,0,0,1-2.14,2.58.5.5,0,0,1-.65.13.54.54,0,0,1-.31-.6c0-.16.14-.25.24-.36a18,18,0,0,0,2.21-2.78,7.81,7.81,0,0,0,1.26-4c0-1,0-1.95,0-2.93,0-.31-.06-.41-.41-.33a25.93,25.93,0,0,1-6.14.75,11.64,11.64,0,0,1-1.55-.16A3.77,3.77,0,0,1,6.53,45.2a7.55,7.55,0,0,1-.63-2.06c-.21-1.17-.39-1.37-1.53-1.62a1.13,1.13,0,0,1-.86-1.2c0-.27-.1-.34-.35-.39A1.13,1.13,0,0,1,2.11,38.7a8.39,8.39,0,0,1,.22-1.87c.11-.73.08-.8-.61-1A2.79,2.79,0,0,1,.47,35,2.25,2.25,0,0,1,.52,32.2c.37-.6.73-1.2,1.09-1.81a3.36,3.36,0,0,0,.23-3.26A20.31,20.31,0,0,1,.29,18a19.15,19.15,0,0,1,.55-4.83,13.8,13.8,0,0,1,1.83-4,19,19,0,0,1,9.77-7.28A29.47,29.47,0,0,1,24.53.06,25.46,25.46,0,0,1,32,1.67a21.51,21.51,0,0,1,6.09,3.47,16.13,16.13,0,0,1,6.16,11.18C44.41,17.52,44.47,18.72,44.5,19.81Z"/><path class="cls-1" d="M21.13,13c.11,0,.2.08.29.18a18.29,18.29,0,0,0,3.25,2.7.47.47,0,0,1,.29.51.54.54,0,0,0,.06.31,1.13,1.13,0,0,1,0,1.15,18.31,18.31,0,0,0-.87,3.08.3.3,0,0,1-.18.27,1.45,1.45,0,0,0-.76.62.62.62,0,0,1-.42.27,16.42,16.42,0,0,0-3.86,1.64.54.54,0,0,1-.56,0A7.38,7.38,0,0,0,17,23.14c-.2-.05-.26-.15-.21-.35a9.94,9.94,0,0,0,.32-3.6.44.44,0,0,1,.14-.43,1.41,1.41,0,0,0,.35-1.47.47.47,0,0,1,.09-.48,23.2,23.2,0,0,0,2.67-3.49C20.56,13,20.81,13,21.13,13Z"/><path class="cls-1" d="M24.52,4.58c.91,0,.91,0,1.17.91A9.4,9.4,0,0,0,29,10.33a.73.73,0,0,1,.09,1.11,21.24,21.24,0,0,0-2.51,3.16,1.34,1.34,0,0,1-1.37.27,18.65,18.65,0,0,1-2.94-2.45.37.37,0,0,1-.1-.42A1.44,1.44,0,0,0,22,10.84c-.13-.2,0-.37.05-.56a26.24,26.24,0,0,0,1.75-5l0-.11C24,4.54,24,4.54,24.52,4.58Z"/><path class="cls-1" d="M10.72,21c-.12,0-.17-.09-.22,0-.38.63-1.07.45-1.62.56-.28,0-.54-.2-.81-.31a5.06,5.06,0,0,1-2.46-2,.6.6,0,0,1-.09-.13c-.47-.88-.47-.9.51-1.05a9.08,9.08,0,0,0,2.47-.76,10.78,10.78,0,0,0,4-3.07.42.42,0,0,1,.43-.2.63.63,0,0,0,.24,0c.67-.39.95.13,1.22.55a10.53,10.53,0,0,1,1,1.71.4.4,0,0,1-.08.49,1.11,1.11,0,0,0-.35,1c0,.19-.1.35-.27.5a24,24,0,0,1-2.67,2C11.56,20.57,11.19,21,10.72,21Z"/><path class="cls-1" d="M40.19,20.32a9.52,9.52,0,0,1-1,4.62c-.3.53-.36.51-.82.12a11.07,11.07,0,0,0-1.71-1.18A19.65,19.65,0,0,0,32,22l-.07,0c-.1,0-.22-.07-.21-.16.05-.51-.77-.7-.47-1.29a3,3,0,0,0,.15-.42c.11-.35.26-.62.72-.55a.63.63,0,0,0,.55-.2c.34-.37.76-.29,1.18-.25a19,19,0,0,0,5.88-.37c.27-.06.36,0,.37.26C40.13,19.44,40.17,19.92,40.19,20.32Z"/><path class="cls-1" d="M16.65,16.33c-.15,0-.16-.08-.19-.16A10.85,10.85,0,0,0,14.55,13a.56.56,0,0,1-.15-.44.82.82,0,0,0-.11-.54c-.28-.33-.13-.62,0-.95a10.73,10.73,0,0,0,.57-5c0-.23,0-.31.23-.37.48-.13.95-.26,1.42-.42.22-.08.3,0,.36.19a20.34,20.34,0,0,0,1.83,4c.11.19.21.37.33.55.28.41.66.77.36,1.35a.69.69,0,0,0,.09.66c.2.28.1.5-.07.75a27.63,27.63,0,0,1-2.54,3.28C16.78,16.22,16.7,16.28,16.65,16.33Z"/><path class="cls-1" d="M38.79,13.29a10.06,10.06,0,0,0-3.56,1.09,9.8,9.8,0,0,0-2.62,1.94.91.91,0,0,1-.71.35,1.2,1.2,0,0,0-1,.51.36.36,0,0,1-.47.16c-.82-.24-1.6-.58-2.4-.87-.14,0-.18-.16-.2-.31a1.13,1.13,0,0,0-.25-.7c-.12-.13,0-.24,0-.35A16.4,16.4,0,0,1,30.09,12a.25.25,0,0,1,.28-.08,1.3,1.3,0,0,0,1-.14.43.43,0,0,1,.41,0,9.4,9.4,0,0,0,5.93.1c.21-.06.34,0,.44.17C38.34,12.49,38.55,12.85,38.79,13.29Z"/><path class="cls-1" d="M4.87,16.25a8.29,8.29,0,0,1,1.82-5A2.09,2.09,0,0,0,6.92,11c.28-.56.72-.62,1.29-.48a11.4,11.4,0,0,1,3.24,1.3c.18.11.25.21.15.42a1,1,0,0,0,0,.89c.15.28,0,.43-.12.62a9.78,9.78,0,0,1-6.32,3.39c-.23,0-.3,0-.3-.24s0-.11,0-.16Z"/><path class="cls-1" d="M29.48,28.94a10.66,10.66,0,0,1-3.67-.61.64.64,0,0,1-.46-.54,18.36,18.36,0,0,1-.38-3.7.31.31,0,0,1,.18-.31,1.29,1.29,0,0,0,.71-.91c0-.22.15-.28.35-.3a15,15,0,0,1,2.51,0,.37.37,0,0,1,.38.24.32.32,0,0,0,.1.17c.48.28.45.74.48,1.21a9.44,9.44,0,0,0,1.22,4.23c.18.3.12.43-.24.45S29.75,28.92,29.48,28.94Z"/><path class="cls-1" d="M30.78,23.83a.87.87,0,0,1,1-.78,16.22,16.22,0,0,1,5.46,2.62c.19.14.38.28.58.4s.19.21,0,.36a7,7,0,0,1-2.26,1.33,23.08,23.08,0,0,1-3.05.77.29.29,0,0,1-.39-.16A9.37,9.37,0,0,1,30.78,23.83Z"/><path class="cls-1" d="M26.74,5.09c0-.29.13-.22.28-.19A19.83,19.83,0,0,1,34,7.64c.25.16.26.25,0,.38a14.31,14.31,0,0,0-2.08,1.19.54.54,0,0,1-.55.07,1.44,1.44,0,0,0-1.38.09.33.33,0,0,1-.43-.06,8.59,8.59,0,0,1-2-2.37A8.2,8.2,0,0,1,26.74,5.09Z"/><path class="cls-1" d="M35.56,18c-.61,0-1.22-.05-1.84-.09-.28,0-.33-.21-.41-.4a.37.37,0,0,1,.08-.47,9.1,9.1,0,0,1,5.55-2.67c.22,0,.35,0,.41.25a16.44,16.44,0,0,1,.53,2.62c0,.17,0,.26-.19.3A19.08,19.08,0,0,1,35.56,18Z"/><path class="cls-1" d="M20.61,10.15c-.18,0-.27-.06-.36-.19a18.42,18.42,0,0,1-1.9-3.59c-.13-.35-.26-.7-.4-1S17.9,5,18.13,5A26.81,26.81,0,0,1,22.5,4.5c.27,0,.32.08.27.32a27.66,27.66,0,0,1-.9,3c-.24.69-.53,1.37-.83,2C21,10,20.87,10.2,20.61,10.15Z"/><path class="cls-1" d="M27.42,21.37l-1.68.12c-.38,0-.53-.13-.46-.51A19.06,19.06,0,0,1,26.12,18c.08-.23.18-.37.45-.35a.5.5,0,0,0,.34-.08c.37-.28.71-.12,1.07,0a22.24,22.24,0,0,0,2.37.84c.38.11.45.29.29.65s-.22.46-.3.7c-.16.44-.25.92-.82,1a.18.18,0,0,0-.13.09c-.28.59-.79.49-1.29.45-.23,0-.45,0-.68,0Z"/><path class="cls-1" d="M8.44,9.39a18.16,18.16,0,0,1,5.28-3.17,7.17,7.17,0,0,1,0,2.53,10.86,10.86,0,0,1-.53,2.09.48.48,0,0,1-.77.27A12.17,12.17,0,0,0,8.44,9.39Z"/><path class="cls-1" d="M19.71,24.51a15.72,15.72,0,0,1,3.23-1.35s.13,0,.15,0c.26.27.71.53.72.82a27.53,27.53,0,0,0,.37,3.65C22.59,26.67,21.25,25.5,19.71,24.51Z"/><path class="cls-1" d="M11.16,22.08a27,27,0,0,0,4.2-3c.16-.14.27-.08.42,0a.33.33,0,0,1,.28.33,10.65,10.65,0,0,1-.32,3.13c-.05.22-.16.22-.35.19Z"/><path class="cls-1" d="M34.94,11.27a8.92,8.92,0,0,1-2.53-.4c-.13,0-.27-.06-.27-.24a.43.43,0,0,1,.18-.41A19,19,0,0,1,35,8.71a.33.33,0,0,1,.39,0,14.66,14.66,0,0,1,1.73,1.88c.14.17.18.27-.1.34A9.74,9.74,0,0,1,34.94,11.27Z"/></g></g></svg>