<svg xmlns="http://www.w3.org/2000/svg" viewBox="0 0 666.61 495.07"><defs><style>.cls-1{fill:#ffb800;}.cls-11,.cls-2{fill:#0e4174;}.cls-3{fill:#e10098;}.cls-4{fill:#e66c28;}.cls-5{fill:#f0a410;}.cls-6{fill:#d6001c;}.cls-7{fill:#00a3ad;}.cls-8{fill:#fff;}.cls-9{fill:#1a1a1a;}.cls-10{fill:#0da7b2;}.cls-11{font-size:39.93px;font-family:GothamRounded-Bold, Gotham Rounded;font-weight:700;}.cls-12{letter-spacing:-0.01em;}.cls-13{letter-spacing:-0.01em;}.cls-14{letter-spacing:-0.02em;}</style></defs><g id="Capa_2" data-name="Capa 2"><g id="Capa_1-2" data-name="Capa 1"><path class="cls-1" d="M648.53,240.29c-.5,2-.58,4.14-1.35,6.11a6.7,6.7,0,0,0-.95,1.13,17.9,17.9,0,0,0-1.65,3.41c-5.69-2.43-11.28-5.13-17.25-6.86a9.93,9.93,0,0,0-3-9.18,1.47,1.47,0,0,1-.57-1c2.51-1.52,1.71-8.11,3.07-10.69,1.93-3.69,5.48-3.74,6.43-7.31a.24.24,0,0,0,0-.08,7.82,7.82,0,0,0,.14-.78,40.92,40.92,0,0,1,8.64,7.15,24.07,24.07,0,0,1,6.08,15c0,.5,0,1,.06,1.51A5.26,5.26,0,0,0,648.53,240.29Z"/><path class="cls-2" d="M633.45,215.06a41.55,41.55,0,0,1-4,12.59,15.38,15.38,0,0,1-5.64,6.27,16.37,16.37,0,0,1-10.12,1.74,4,4,0,0,1-3.33-3.49,5,5,0,0,1,1.2-4.3c2.16-2.53,4.22-5.12,5-8.48a15.55,15.55,0,0,0,1.18-8.9l.75-4.46c3.27-2.94,7.49-2.62,11-1.23,3.2,1.26,4.17,3.63,4.26,7A15.44,15.44,0,0,1,633.45,215.06Z"/><path class="cls-2" d="M627.33,244.08c6,1.73,11.56,4.43,17.25,6.86,4.17,4.51,2.68,10-3.2,11.63a18.18,18.18,0,0,1-10.82-.56,18,18,0,0,0-3.41-1.06,38.08,38.08,0,0,1-8.77-6.89c-1.89-2.76-2.38-3.94-1.87-7a6.18,6.18,0,0,1,2.78-3.46,6.31,6.31,0,0,1,4.5-.33C625.12,243.52,626,243.73,627.33,244.08Z"/><path class="cls-1" d="M618.38,254.06a38.08,38.08,0,0,0,8.77,6.89,3.25,3.25,0,0,1-1.31.52c-6.05,1.32-12.17,2.21-18.24,3.34a25.62,25.62,0,0,0-6,1.52,5.14,5.14,0,0,0-4.74-.67,16.85,16.85,0,0,0-5,2.17c-1.72,1.19-3.39,1.17-5.45.79.66-2.35,2.44-2.95,4.33-4.11,2.85-1.77,6.07-2.55,9.25-3.45,5.29-1.5,10.58-3,15.49-5.57C616.45,255,617.19,254.06,618.38,254.06Z"/><path class="cls-2" d="M537.9,198.35c-1.19,4.76-2.55,9.4-5.82,13.22-.93,1.09-1.88,2.18-2.85,3.23-.15.16-.33.35-.55.56a11.31,11.31,0,0,1-4.62,2.76c-2,.61-3.88,1.47-5.81,2.21-1.72,2.46-2.57,5-1.25,8a36.81,36.81,0,0,1,1.61,4.71,13.14,13.14,0,0,1,.74,5.6c0,.35,0,.7-.07,1a15.19,15.19,0,0,1-1,4.26c-.17.43-.35.84-.55,1.24s-.38.7-.59,1-.43.66-.67,1a5.19,5.19,0,0,1-.36.46c-.12.15-.25.3-.38.44s-.26.29-.4.43-.55.55-.85.81-.6.51-.92.75-.61.45-.94.66l-.1.07c-.32.21-.65.4-1,.59s-.71.39-1.09.57-.76.35-1.16.51a23.44,23.44,0,0,1-2.44.87,20.17,20.17,0,0,1-2.57.52,4.51,4.51,0,0,1-4.74-2c-2.8-3.74-7.07-3.34-9.25.77a10.39,10.39,0,0,1-5.8,5.05,25.42,25.42,0,0,1-11.06,1.42,8.26,8.26,0,0,1-4.78-2,24.3,24.3,0,0,1-2.93-3.47c-.57-1-1.06-2-1.46-2.8-2.15-4.29-2.35-5.9-2.35-5.9a13.5,13.5,0,0,1,.42-5.25,33,33,0,0,1-8.52,2.28l-1.08.12-.84.08c-4.69.39-8.65-.05-11.05-1.11a5.2,5.2,0,0,1-.95-.66c-.31-.23-.61-.46-.9-.7s-.58-.49-.86-.74c-.58-.52-1.13-1.07-1.66-1.64-.31-.34-.6-.68-.89-1a2.91,2.91,0,0,1-.26-.33c-.24-.29-.47-.59-.68-.9l-.12-.16c-.29-.42-.57-.84-.84-1.27s-.51-.84-.75-1.27l-.1-.19c-.19-.35-.38-.71-.56-1.08s-.46-1-.67-1.46c-.12-.26-.23-.53-.33-.8a5.49,5.49,0,0,1-.21-.51c-.11-.28-.21-.56-.31-.85s-.3-.82-.43-1.24c-.84-2.61-1.81-8.32-.5-10.76,3.46-6.46,12.5-11.17,12.5-11.17s-6.64-19.09-2-25.77c4.54-6.49,11-11.12,11.08-11.37-5.72-2.07-7.25-11.9-5.89-17.34a12.82,12.82,0,0,1,1.05-2.79c.23-.44.48-.86.74-1.28s.56-.82.87-1.22.62-.78.95-1.15a22.55,22.55,0,0,1,3.31-3l1-.76a36.86,36.86,0,0,1,12.57-6l.15,0,15.52-2.88a24.28,24.28,0,0,1,.27-2.47c.05-.31.11-.64.18-1s.2-1,.34-1.5c0-.17.09-.35.14-.53s.13-.47.21-.71c.16-.54.35-1.1.57-1.67s.36-.9.57-1.36c.28-.62.56-1.25.85-1.87.2-.41.4-.82.62-1.22a19.29,19.29,0,0,1,1-1.75c.25-.37.52-.72.8-1.07.15-.18.31-.36.47-.53a10.75,10.75,0,0,1,1-.92,9.72,9.72,0,0,1,1.85-1.22,12.66,12.66,0,0,1,7.79-1.23c.34.06.68.12,1,.21s.68.18,1,.29a14.32,14.32,0,0,1,4,2,20.35,20.35,0,0,1,2.23,1.86,18.69,18.69,0,0,1,5.55,10.63c0,.23,0,.47.08.71.29,1.68.44,1.82,2,1.24a29.17,29.17,0,0,1,6-1.72,20,20,0,0,1,2-.19,12.63,12.63,0,0,1,10.6,4.29c.2.23,2,1.56,3.39,6.89,0,0,0,.1,0,.16a21.63,21.63,0,0,1,.52,3.05.57.57,0,0,1,0,.13,28,28,0,0,1,.15,3.12,25.25,25.25,0,0,1-4.41,14.26c-.21.32-.42.63-.64.94-.44.63-.91,1.24-1.4,1.84s-1,1.06-1.39,1.64c-2,2.83-1.84,5,.16,7.86,3.54,5,7.14,10,8.65,16.12A23.23,23.23,0,0,1,537.9,198.35Z"/><path class="cls-3" d="M523.58,246.15c2.62-6,1.75-11.85-.34-17.72-1.09-3.08-1.69-3.34,2-4.62a11.28,11.28,0,0,0,3.76-2.08c2.18-1.93,4.81-2.26,7.55-2.47,4.92-.38,9.84-.9,14.76-1.31,3-.25,6.06-.32,9.08-.47,6.94-.35,13.89-.58,20.84-.49,8,.09,15.95.47,23.92.95,3.8.22,7.58.95,11.37,1.45-.75,3.36-2.81,6-5,8.48-4-1.5-8.2-1.21-12.26-.68a156.34,156.34,0,0,0-25.07,5Q565.09,235,556,237.71c-9.11,2.77-18.14,5.79-27.42,8A16.43,16.43,0,0,1,523.58,246.15Z"/><path class="cls-3" d="M617.69,210.5c-2.57-.93-4.81-2.5-7.26-3.66-8.6-4.06-17.44-7.53-26.27-11a141.52,141.52,0,0,1-37.64-21.64A72,72,0,0,0,536,167.1c-1.58-.88-1.68-1.34-.55-2.79,4.75-6,6.59-13,6.66-20.54a97.22,97.22,0,0,0-.57-11.94,22.54,22.54,0,0,1,5.56,7.36c3.3,6.11,7.51,11.57,11.73,17,2.91,3.77,5.66,7.67,8.51,11.49a91.27,91.27,0,0,0,13.57,14.08,153.85,153.85,0,0,0,18.45,13.47c5.7,3.64,11.63,6.91,17.5,10.26a4.49,4.49,0,0,0,1.58.5Z"/><path class="cls-4" d="M460.19,169.81s-12.65-8.53-14.25-13.59a13.25,13.25,0,0,1-.35-6.4,14.18,14.18,0,0,1,2.65-5.29,22.15,22.15,0,0,1,4.27-4.16,42.35,42.35,0,0,1,8.65-5.16c-2.13-1.08-4.23-2.25-6.3-3.53a51.91,51.91,0,0,0-4.46,2.7c-3,2-5.6,3.83-8,7.13a21.2,21.2,0,0,0-3.24,6.17,15.19,15.19,0,0,0-.77,6.28c.33,3.27,2.06,5.76,3.84,8.2a27.59,27.59,0,0,0,4.94,5.19c-1.17.35-10,3.12-13.45,11.93-3.06,7.75-.76,17,5.87,23.12a18.09,18.09,0,0,0-6.44,2.46c-6.17,3.88-7.94,10.39-8.36,12.16a20.88,20.88,0,0,0-1.11,5,19.28,19.28,0,0,0,.55,6.91,29.38,29.38,0,0,0,3.42,6.84,29.68,29.68,0,0,0,9.15,10h0a21,21,0,0,0,7.36,2.66l.22,0,7.57-6.27c-4.69.39-8.65-.05-11.05-1.11a5.2,5.2,0,0,1-.95-.66c-.31-.23-.61-.46-.9-.7s-.58-.49-.86-.74c-.58-.52-1.13-1.07-1.66-1.64-.31-.34-.61-.68-.89-1a2.91,2.91,0,0,1-.26-.33c-.24-.29-.47-.59-.68-.9l-.12-.16c-.29-.42-.57-.84-.84-1.27s-.51-.84-.75-1.27l-.1-.19c-.19-.35-.38-.71-.56-1.08s-.46-1-.67-1.46c-.12-.26-.23-.53-.33-.8a5.49,5.49,0,0,1-.21-.51c-.11-.28-.21-.56-.31-.85s-.3-.82-.43-1.24a10.21,10.21,0,0,1-.31-4.62,7.41,7.41,0,0,1,1.21-2.67,18.16,18.16,0,0,1,4.88-8A18.64,18.64,0,0,1,447.88,206c-7.07-6.88-8.8-17.22-4.55-25C448.25,172,460.19,169.81,460.19,169.81Z"/><path class="cls-1" d="M616.51,219.39c-2.37-.31-4.73-.71-7.1-1-.95-.12-1.9-.23-2.85-.32l-1.42-.1-6-.34c-6-.31-12-.55-17.94-.62q-3.66,0-7.32,0c-1.5,0-3,.06-4.5.11s-3,.1-4.52.16l-4.49.21-2.27.1c-2.28.1-4.55.18-6.82.37-4.92.41-9.84.92-14.76,1.31-2.74.21-5.37.53-7.55,2.46-.14.12-.27.24-.42.35a9.31,9.31,0,0,1-.89.61,11.67,11.67,0,0,1-1.95.94l-.5.19a7.33,7.33,0,0,0-2.49,1.17c-.69.67-.2,1.48.5,3.45,2.09,5.86,3,11.76.34,17.71a2.64,2.64,0,0,0-1.22,1.41c-2.77,5.81-7.81,8.79-13.59,10.76a19.37,19.37,0,0,1-7.8.84,6.17,6.17,0,0,1-5.16-2.78c-.6-1-1-.76-1.48.08-2.39,3.9-6.15,5.81-10.35,7.1a31,31,0,0,1-13.94.62c-3.37-.53-5.77-2.82-7.78-5.51-.19-.26-1.71-2.63-2.66-4.46l-.22-.43c-.73-1.48-2.15-5.34-2.15-5.34a21,21,0,0,1-6.76.6c-1.34-.08-4.71-.37-6.12-.58l7.57-6.27c-4.69.39-8.65-.05-11.05-1.11a33.82,33.82,0,0,0,11.07,1.09l.82-.06,1.08-.12a33,33,0,0,0,8.52-2.28,13.5,13.5,0,0,0-.42,5.25s.2,1.61,2.35,5.9c.4.83.89,1.76,1.46,2.8a24.3,24.3,0,0,0,2.93,3.47,8.26,8.26,0,0,0,4.78,2,25.42,25.42,0,0,0,11.06-1.42,10.39,10.39,0,0,0,5.8-5.05c2.18-4.11,6.45-4.51,9.25-.77a4.51,4.51,0,0,0,4.74,2,20.17,20.17,0,0,0,2.57-.52,23.44,23.44,0,0,0,2.44-.87c.4-.15.79-.33,1.16-.51s.74-.37,1.09-.57.67-.38,1-.59l.1-.07c.33-.21.64-.43.94-.66s.63-.49.92-.75.58-.53.85-.81a5.36,5.36,0,0,0,.4-.43c.13-.14.26-.29.38-.44a5.19,5.19,0,0,0,.36-.46c.24-.31.46-.64.67-1a10.68,10.68,0,0,0,.59-1c.2-.4.38-.81.55-1.24a15.19,15.19,0,0,0,1-4.26c0-.34.06-.69.07-1a13.14,13.14,0,0,0-.74-5.6,36.81,36.81,0,0,0-1.61-4.71c-1.32-3-.47-5.53,1.25-8,1.93-.74,3.83-1.6,5.81-2.21a11.31,11.31,0,0,0,4.62-2.76c.22-.21.4-.4.55-.56,1-1.05,1.92-2.14,2.85-3.23,3.27-3.82,4.63-8.46,5.82-13.22A23.23,23.23,0,0,0,538,187c-1.51-6.11-5.11-11.12-8.65-16.12-2-2.84-2.2-5-.16-7.86.41-.58.93-1.09,1.39-1.64s1-1.21,1.4-1.84c.22-.31.43-.62.64-.94a25,25,0,0,0,4.21-13.72c0-.14,0-.27,0-.41a19.66,19.66,0,0,0,0-3.25.57.57,0,0,0,0-.13,16.34,16.34,0,0,0-.52-3.05c0-.06,0-.11,0-.16a16.54,16.54,0,0,0-3.14-6l0,0a5.13,5.13,0,0,0-.49-.81,12.29,12.29,0,0,0-10.34-4.35,20,20,0,0,0-2,.19,29.17,29.17,0,0,0-6,1.72c-1.54.58-1.69.44-2-1.24,0-.24,0-.48-.08-.71A18.69,18.69,0,0,0,506.71,116a20.27,20.27,0,0,0-2.23-1.85,14.35,14.35,0,0,0-4-2c-.34-.11-.68-.21-1-.29s-.68-.15-1-.21a12.66,12.66,0,0,0-7.79,1.23,9.72,9.72,0,0,0-1.85,1.22,10.75,10.75,0,0,0-1,.92c-.16.17-.32.35-.47.53-.28.35-.55.7-.8,1.07a19.29,19.29,0,0,0-1,1.75c-.22.4-.42.81-.62,1.22-.29.62-.57,1.25-.85,1.87-.21.46-.4.92-.57,1.36s-.41,1.13-.57,1.67c-.08.24-.15.48-.21.71s-.1.36-.14.53c-.14.52-.25,1-.34,1.5s-.13.66-.18,1a24.28,24.28,0,0,0-.27,2.47l-15.67,2.92-.11,0a29.06,29.06,0,0,0-4.85,1.62c-2.13-1.08-4.23-2.25-6.3-3.53,1.29-.69,2.72-1.4,4.3-2.07a63.41,63.41,0,0,1,13.44-3.29c1.64-.21,3-.32,3.95-.38,0-.16,0-.34,0-.54,0-.43,0-.94,0-1.51,0-.91,0-2,.06-3.15a12.36,12.36,0,0,1,.49-3.39,14.57,14.57,0,0,1,6.65-8.55,21.14,21.14,0,0,1,6.33-1.91c4.16-.75,8.23-1.13,12.48,0,5.69,1.59,9.09,5.23,11.18,10.46a40.54,40.54,0,0,0,1.76,4.75c2.88-1.89,6-1.65,9-1.05a77.28,77.28,0,0,1,9,2.26,10.26,10.26,0,0,1,6.18,5.24,10.77,10.77,0,0,0,1.95,3.23,97.22,97.22,0,0,1,.57,11.94c-.07,7.55-1.91,14.51-6.66,20.54-1.13,1.44-1,1.91.55,2.79.93.51,1.84,1.05,2.75,1.6a70.14,70.14,0,0,1,7.77,5.48,132.1,132.1,0,0,0,20.35,13.59c1.59.87,3.2,1.7,4.82,2.51q3.64,1.82,7.41,3.44,2.5,1.09,5.06,2.1l6.62,2.62,3.3,1.33q2.82,1.14,5.62,2.31c3.61,1.52,7.19,3.09,10.73,4.76,2.45,1.15,4.69,2.73,7.26,3.65A15.55,15.55,0,0,1,616.51,219.39Z"/><path class="cls-5" d="M242.87,188.23c-.15.69-.3,1.49-.42,2.38a16.44,16.44,0,0,0-1.78-1.29c.4.21.79.44,1.18.68.11.07.3,0,.57,0C242.55,189.41,242.7,188.82,242.87,188.23Z"/><path class="cls-5" d="M246.43,209.39a5.18,5.18,0,0,0-1.17,1.26,18.66,18.66,0,0,0,.91-1.7C246.25,209.1,246.34,209.25,246.43,209.39Z"/><path class="cls-5" d="M240.67,189.32h0Z"/><path class="cls-5" d="M245.26,210.65q-.22.38-.39.6Q245.05,211,245.26,210.65Z"/><path class="cls-1" d="M296.88,208.5a10.08,10.08,0,0,1-3.39,6.38c-2.9,2.75-6.5,4.2-10.24,5.25a46,46,0,0,1-16.08,1.93,26.38,26.38,0,0,1-13.93-5.33,28.33,28.33,0,0,1-3.76-3.23h0l-.07-.07-.26-.3c-.18-.21-.38-.44-.58-.69l-.31-.4s0,0,0,0a2.92,2.92,0,0,1-.21-.28c-.06-.09-.13-.18-.19-.28-.44-.65-.85-1.32-1.36-2.11l-.06,0a28.23,28.23,0,0,1-3.56-21.16.13.13,0,0,1,0-.06h0a30.09,30.09,0,0,1,4-8.79,27.44,27.44,0,0,1,15.18-11,44,44,0,0,1,16.79-1.9,16,16,0,0,1,7.57,2.59,9.74,9.74,0,0,1,4,10.05,9.41,9.41,0,0,1-8.8,7.12c-2.31.09-4.63,0-6.95,0a15.86,15.86,0,0,0-4.92.77A7.61,7.61,0,0,0,271.71,202a12.94,12.94,0,0,0,6.37-1.67A29.2,29.2,0,0,1,285,198C290.89,196.83,297.67,200.81,296.88,208.5Z"/><path class="cls-1" d="M246.24,209a18.66,18.66,0,0,1-.91,1.7q-.21.3-.39.6l-.09.13-.09.13a9,9,0,0,1-.65,1,24.63,24.63,0,0,1-9.81,7.29c-4,1.8-8.41,2.45-12.68,3.17a21.92,21.92,0,0,1-11.43-.88c-1.46-.56-3-.88-4.43-1.55a8.13,8.13,0,0,1-5-9.61,13.94,13.94,0,0,1,.59-1.9,11.27,11.27,0,0,1,1.16-1.75,5.75,5.75,0,0,1,1.94-1.47,13.57,13.57,0,0,1,6.89-1.47,71.64,71.64,0,0,1,7.59.86c2.14.23,4.27.48,6.33-.61.54-.29.95-.46,1-1.09s-.52-.91-1-1.2a6.45,6.45,0,0,0-3.12-1c-3.59-.24-7.18-.54-10.76-.83a15.53,15.53,0,0,1-9.21-3.41,13.81,13.81,0,0,1-5.12-9.91c-.54-7.85,3.54-13,9.78-16.72,7-4.24,14.82-5.39,22.88-4.77a20.11,20.11,0,0,1,7.51,2.06c5,2.51,4.43,9.45.73,11.92a10.73,10.73,0,0,1-6.51,1.89c-2.8-.06-5.6-.07-8.4-.17a13.39,13.39,0,0,0-3.52.54,1.62,1.62,0,0,0-1.38,1.46c0,.81.71,1.21,1.41,1.42a27,27,0,0,0,5.93.8c5.3.35,10.44,1.18,15.14,3.72h0a16.44,16.44,0,0,1,1.78,1.29,15.07,15.07,0,0,1,4.55,6.39A15.6,15.6,0,0,1,246.24,209Z"/><path class="cls-1" d="M358.31,207.15c.78,5.11-1.79,8.39-5.47,11.22a44.72,44.72,0,0,1-25,9.3c-5.07.32-10.09-.13-14.71-2.44a26.86,26.86,0,0,1-10.74-9A26.51,26.51,0,0,1,298,207a33,33,0,0,1-.5-10.7,26.8,26.8,0,0,1,9.25-16.8,29.67,29.67,0,0,1,13.79-6.62,28.35,28.35,0,0,1,21.56,3.48c5.1,3.13,9.44,7.05,11,13.22a14.48,14.48,0,0,1,.44,2.83c.17,3.5-1.31,5-4.17,6.23a77.69,77.69,0,0,1-8.54,2.84c-4.1,1.25-8.23,2.36-12.31,3.66-1.87.6-3.89.8-5.72,1.91a6.46,6.46,0,0,0,4.39,1.8A23.84,23.84,0,0,0,341.12,205c1.32-.8,2.6-1.7,4-2.38a10.53,10.53,0,0,1,9.15-.39c1.41.61,1.6.46,1.53-1.13q-.63-14.49-1.26-29c-.08-1.68-.06-3.36-.11-5-.13-4.57,3.74-8.62,8.51-9.14,3.36-.37,6.37.26,8.63,3,.83,1,1.4,1,2.56.23A24.06,24.06,0,0,1,388.38,157c7.05.3,13,2.87,17,9a14.32,14.32,0,0,1,2.39,7.16c.38,8.31.66,16.61,1.06,24.92a10.69,10.69,0,0,1-6.58,10.4,11,11,0,0,1-13.44-4.28,6.86,6.86,0,0,1-1.23-3.72c-.17-6.55-.48-13.1-.81-19.65-.11-2.15-.66-4-2.81-5.33a4.79,4.79,0,0,0-4.92-.43,4.74,4.74,0,0,0-2.94,4.31c-.05,1.75.05,3.51.12,5.27q.29,7.18.62,14.38a10.44,10.44,0,0,1-6.42,10.47,11.36,11.36,0,0,1-10.65-1C359.23,208.18,359.27,207.45,358.31,207.15Zm-38.74-10.77c3.39-1,6.58-2,9.78-2.92.92-.26,1.17-.6.72-1.51a5.07,5.07,0,0,0-5.89-2.94C320.77,189.7,319.05,192.33,319.57,196.38Z"/><path class="cls-6" d="M135.57,160.75a19.68,19.68,0,0,1-13-3.92c-5.21-3.76-8.7-8.62-9.63-15.17q-4-28.45-8.21-56.91-3.24-22.41-6.53-44.81c-.58-4-.88-8,.45-11.79,3.13-8.86,9.13-14.41,18.74-16.19,10.53-2,21.18,4.5,25.19,12.85a31,31,0,0,1,2.52,9.13q4,28.11,8.09,56.21c2.09,14.47,4.15,28.94,6.28,43.4,1.68,11.41-4.76,21.18-14.37,25.48A17.66,17.66,0,0,1,135.57,160.75Z"/><path class="cls-1" d="M185.41,105.17a24.32,24.32,0,0,1,14.41-5c6.05-.21,11.55,1.42,16,5.56a17.38,17.38,0,0,1,5.93,12.86c.09,8.71.11,17.42,0,26.13A11.28,11.28,0,0,1,209.44,156c-4.52-.41-8.23-3-9.63-7a13.39,13.39,0,0,1-.49-4.44q0-9.71,0-19.42a6.55,6.55,0,0,0-3.83-6.19c-2.42-1.3-6.4.41-7.23,3.48a11.49,11.49,0,0,0-.28,3.09c0,6.47-.06,13,0,19.42,0,5-3.81,9.74-8.28,10.72-5.32,1.16-9.72-.11-12.76-5.15a11.37,11.37,0,0,1-1.24-6.16V111.71c0-.79.1-1.59.08-2.39-.08-3.42,3.34-7.6,6.43-8.46C177.83,99.29,181.71,100.09,185.41,105.17Z"/><path class="cls-2" d="M83.54,312.13a99.39,99.39,0,0,1-20.32-2,55.7,55.7,0,0,1-8.28-2.07,87.13,87.13,0,0,1-22.19-11.79A90.33,90.33,0,0,1,15.58,279.5a75.72,75.72,0,0,1-9.25-15A56.24,56.24,0,0,1,1.8,252a88.39,88.39,0,0,1-.45-33.07,87.36,87.36,0,0,1,4.81-16.53,54.61,54.61,0,0,1,4.19-8.6A111.63,111.63,0,0,1,17.51,183,82.93,82.93,0,0,1,28.85,171.2a77.2,77.2,0,0,1,18.83-12c14.27-6.37,29-10.93,44.89-10.4a43.33,43.33,0,0,1,22.76,6.78c7.25,4.77,10.83,11.63,10.1,20.27a20.75,20.75,0,0,1-8.93,15.56c-2.74,2-6,2.73-9.29,3.4a46.13,46.13,0,0,1-17.17.41c-6.8-1.17-13.23.34-19.47,2.69-12.93,4.87-21,16.5-21.4,30.46C48.83,239.88,53,249.67,60.66,258c6.83,7.48,15.56,9.63,25.36,8.07,7.21-1.15,13.75-4.08,20-7.62,2.65-1.49,5.18-3.18,7.81-4.7,5.6-3.23,11.59-5,18.1-4.29,7.87.85,15.73,7.27,17.48,15.62,1.39,6.6-.18,12.6-3.44,18.26-3.18,5.5-7.83,9.61-12.86,13.42a67.75,67.75,0,0,1-20,10.28A100.86,100.86,0,0,1,83.54,312.13Z"/><path class="cls-1" d="M163.93,196.27a5.85,5.85,0,0,1,4.44-6c2.6-.69,4.39.31,5.91,3.45-3.12,1.15-6.22,2.31-9.33,3.44C164.21,197.4,164,197,163.93,196.27Zm37.32,10.78c-.46-4.11-3.24-6.9-7.37-7a10.61,10.61,0,0,0-6.38,2.08c-3.06,2.15-6,4.42-9.74,5.42-3.35.91-6.67,1.5-10.16-.49.7-.34,1.11-.6,1.54-.76,6.53-2.4,13.05-4.81,19.59-7.15a25.24,25.24,0,0,0,4.52-2.13,5.46,5.46,0,0,0,2.63-5.94,16.56,16.56,0,0,0-5.07-9.23c-4.93-4.44-10.67-7.19-17.39-7.35-10-.22-18.52,3.17-24.74,11.33a23,23,0,0,0-4.31,8.57,28.25,28.25,0,0,0-.26,11.41,24.36,24.36,0,0,0,7.4,13.63c6.6,6.3,14.9,7.66,23.47,6.35a43.44,43.44,0,0,0,17.49-7.09c3.08-2.07,6.38-4.13,8.11-7.8a6.93,6.93,0,0,0,.38-1.14c.08-.32.11-.48.22-1a5.83,5.83,0,0,0,.07-1.73"/><path class="cls-1" d="M118.07,250.56a10.79,10.79,0,0,1-10.79-9.05q-1.94-9.49-3.84-19c-.89-4.46-1.63-8.95-2.7-13.37-1.35-5.56,2.26-13.49,11.28-13.65a8.66,8.66,0,0,1,7.07,2.83,8.53,8.53,0,0,0,.85.85c.84.74,1.42.65,1.69-.45a9.88,9.88,0,0,1,1.35-3c2.21-3.44,5.68-4.38,9.42-4.19a10.1,10.1,0,0,1,9.93,10.62c-.1,3.18-2,5.44-4.26,7.42s-5,3.33-7.45,5a8.91,8.91,0,0,0-4,9.7c.77,4.15,1.4,8.33,2.43,12.42C130.49,242.54,126,251,118.07,250.56Z"/><path class="cls-2" d="M636.49,315.09q.16,6.09.34,12.19c.16,6,.34,12,.48,17.94.16,6.78.27,13.56.42,20.34.14,6.3.3,12.6.44,18.89.05,2.31.06,4.63.13,6.94,0,1.25-.53,1.83-1.78,2-3.57.59-7.08,1.54-10.58,2.45-3,.78-6.07,1.48-9.06,2.16l-9.36,2.13c-3,.67-6.25.69-9,2.34-2.84-.16-5.52.78-8.15,1.56-2.85.84-6,.69-8.6,2.23-3.69,0-7.11,1.6-10.74,2-.26-4.15.66-8.27.38-12.43a16.34,16.34,0,0,1,.08-3.83c.73-4.1.31-8.27.76-12.4.49-4.43.21-8.92.45-13.39.39-7.16.68-14.33,1-21.49.28-6.46.82-12.92.64-19.39,0-.48.06-1,.09-1.44,3.23-.48,6.47-1,9.71-1.44q12.67-1.8,25.36-3.57Z"/><path class="cls-7" d="M574.39,323.89c0,.48-.1,1-.09,1.44.18,6.47-.36,12.93-.64,19.39-.31,7.16-.6,14.33-1,21.49-.24,4.47,0,9-.45,13.39-.45,4.13,0,8.3-.76,12.4a16.34,16.34,0,0,0-.08,3.83c.28,4.16-.64,8.28-.38,12.43a9.19,9.19,0,0,1-4.11-.76c-5-1.74-10-3.74-15-5.55-3.94-1.42-7.89-2.8-11.82-4.25s-7.86-2.89-11.78-4.37-8-2.87-12-4.45c-2.08-.82-4.2-1.55-6.32-2.26a2.09,2.09,0,0,1-1.67-2.38c.56-14,1-27.93,1.53-41.89.26-7.34.41-14.69.74-22,.13-2.85,0-5.74.66-8.56.87.1,1.76.14,2.62.29,16.48,3,32.89,6.33,49.3,9.69A102.53,102.53,0,0,0,574.39,323.89Z"/><path class="cls-3" d="M645.38,300.17q-4.78.78-9.59,1.48-5.82.87-11.66,1.66c-7.25,1-14.47,2.18-21.72,3.23-6,.87-12,1.66-18,2.52-2.52.36-5,.82-7.54,1.22a13.91,13.91,0,0,1-5.22-.12c-11-2.35-22-4.62-33-6.94-9.27-2-18.53-4-27.8-5.92l-1.35-.29a19.51,19.51,0,0,0-5.43-.51l2-.19L573.55,290c.82-.4,45.49,6.26,64,9Z"/><path class="cls-1" d="M460.35,322.72c-2.7-5.64-9.07-17.89-9.36-18.45-.56-1.11-.82-.95-2-.41-.63.53-22.22,10.56-24.78,11.62-2.1.88-1.48.94-.48,3,1.91,4,9.81,19,10.43,19.74,1.84,2.17,2.17,4.37.65,6.76-1.69,2.65-4,4.34-7.38,3.79a4.9,4.9,0,0,1-3.85-4c-.69-3.1,2.61-6.13,5.9-6.36,2.31-.15,1.73-.55.73-2.72-1.43-3.09-14.92-29-16.83-31.53-.66-.88.07-1.12.64-1.35,2.41-1,4.81-1.92,7.24-2.82,7.2-2.67,23-9.47,23-9.5,1.29-.58,1.67-.06,2.1.69,4.16,7.33,15.15,29.18,16.37,31.94.74,1.67,1.2,3.62.11,5.33-1.45,2.29-3.17,4.12-5.94,4.69-3.26.67-5.45-.9-6.19-3a5.07,5.07,0,0,1,3-6.64,9.64,9.64,0,0,1,5.29-.19C460.43,323.79,460.54,323.17,460.35,322.72Z"/><path class="cls-3" d="M300.7,292.8a1.49,1.49,0,0,1,1.75-.42c4.92.89,9.88,1.56,14.77,2.65,2.28.51,2.79.21,4-1.92,2-3.65,4.11-7.3,6.16-10.95a2.19,2.19,0,0,1,1.55-1.26c.47,1.78,1,3.58,1.43,5.39.62,2.46,1.36,4.91,1.77,7.42a4.13,4.13,0,0,0,2.8,3.22c3.9,1.77,7.78,3.58,11.68,5.37a1.44,1.44,0,0,1,.85.81c-1.27.48-2.52,1-3.8,1.43-2.1.72-4.22,1.39-6.34,2.1-2.64.88-2.67.88-2.8,3.59-.23,5-.42,10.06-.66,15.08,0,.75.25,1.61-.41,2.2a1,1,0,0,1-1.13-.79c-1.1-2.9-3.33-5.09-4.69-7.87-1.15-2.35-3-4.43-4.26-6.79s-1.26-2.36-3.36-.62c-4.45,3.69-9.27,6.88-13.87,10.37-.11.08-.3,0-.84.1,2.6-6.06,6.3-11.28,9.21-17.08C310.09,300.77,305.45,296.73,300.7,292.8Z"/><path class="cls-3" d="M359.5,22.65l-9.69,3.25C345.62,27.29,346.21,27,346,31c-.25,4.22-.36,8.46-.53,12.69,0,.8-.05,1.6-.11,2.39,0,.29.1.69-.34.79a.89.89,0,0,1-1-.4,20.45,20.45,0,0,1-1.18-1.79c-2.53-4.83-5.9-9.14-8.49-13.93-.71-1.31-.9-1.27-2.13-.24-4.6,3.85-9.66,7.12-14.39,10.81-.29.22-.63.53-1,.2a.56.56,0,0,1,0-.65q4.14-7.2,8.25-14.42a4.43,4.43,0,0,1,.81-1.13,1.09,1.09,0,0,0-.29-1.82c-3-1.87-5.32-4.66-8.2-6.73-1.13-.81-2-2-3.24-2.73a3,3,0,0,1-1.33-2c1.77-.38,3.38.23,5,.48,4.08.64,8.14,1.4,12.2,2.16a1.69,1.69,0,0,0,2.23-1.07c.91-1.83,2.43-3.38,3.19-5.26S337.31,4.82,338.2,3a31.9,31.9,0,0,1,1.85-3c1.31,2.76,1.63,5.53,2.35,8.17a33.82,33.82,0,0,1,1,4.65c.28,2.09,1.51,3.12,3.34,3.88,3.43,1.44,6.8,3,10.19,4.59C357.66,21.62,358.34,22,359.5,22.65Z"/><path class="cls-2" d="M367.56,77.24c0,4.55-1.54,8.63-3,12.73a43.35,43.35,0,0,1-2.5,5.61,6,6,0,0,0-.42,4.83c.21.68.47,1.34.72,2,.36,1,1.2,2.89,1.2,2.89a25.86,25.86,0,0,1,2.78-.34c4.81-.22,8.74,3,9.9,9.13.6,3.14-.59,5.92-2.51,8.39a12.83,12.83,0,0,1-2,1.91c-1.28.84-.59,1.36,0,2.53a15.53,15.53,0,0,1,1.53,8.56,10.61,10.61,0,0,1-6.71,9.07,8,8,0,0,1-9.9-3.57,5.32,5.32,0,0,1,.18-4.8c1-2,3-2.09,4.42-.38.6.74,1.13,1.54,1.7,2.3.92,1.24,1.66,1.51,3,.88a7,7,0,0,0,4.28-6.2,16.57,16.57,0,0,0-.43-4.62c-.27-1-.92-1.16-2-.76a12.34,12.34,0,0,1-6.54.65,13.62,13.62,0,0,1-7.86-3.93,16.51,16.51,0,0,1-3.73-7,14.28,14.28,0,0,1,.7-9.22,35.27,35.27,0,0,1,5.64-8.25c1.46-1.76,1.59-2,.44-4a63.09,63.09,0,0,1-6.52-15.94,37.41,37.41,0,0,1-1-7.11A15.08,15.08,0,0,1,350,66.17c2.89-5.94,8.23-6,12.65-2.4a12.24,12.24,0,0,1,3.69,5.41A19.88,19.88,0,0,1,367.56,77.24ZM359.7,95.71a56.73,56.73,0,0,0,3.62-8.94,34.23,34.23,0,0,0,1.61-10.14c-.06-4.36-.82-7.69-3.84-11-2-2.21-5-2.59-7.11-.46a7.29,7.29,0,0,0-1.57,2.46c-1.07,2.35-.64,5.59-.23,8a50.79,50.79,0,0,0,6.59,18.73C359,94.8,359.7,95.71,359.7,95.71Zm1.85,10.68s-.65-1.57-1.12-2.76c-.32-.78-1.06-2.7-2.07-2.83s-1.59.9-2.22,1.6a6.13,6.13,0,0,0-.42.58c-3.48,4.64-3.74,9.89-2,15,2,5.75,6.82,7.92,12.59,7.14,2-.28,2.44-1,2-3.18a122,122,0,0,0-4.7-11.7c-.68-1.15-1.31-1.2-2.25-.32a3.48,3.48,0,0,0,.11,5.11c.62.62,1.37,1.11,1.94,1.77a2.32,2.32,0,0,1,.2,2.87,2.1,2.1,0,0,1-2.48.58c-2.25-.88-3.27-3-3.47-5.36C357.44,111.48,358.9,108.75,361.55,106.39ZM373,116c0-2-.42-3.06-1.85-5.31a4.28,4.28,0,0,0-4.64-2c-1,.17-1.35.63-1,1.62,1.19,2.56,3.36,8.67,4.16,10.14.47.88,1.15,1.19,1.71.41A9,9,0,0,0,373,116Z"/><path class="cls-6" d="M415.4,76.77l3.16,2.11c-.89.58-1.81.27-2.55.58-2.21.27-4.43.17-6.65.48-1.63.23-2.49.78-2.83,2.57-1.21,6.21-3.09,12.27-4.66,18.4a4.29,4.29,0,0,1-.75,1.65c-.73-.06-.86-.61-1.11-1.11q-3-6-6.06-12c-.18-.35-.32-.72-.53-1.06-1-1.59-1.36-1.72-3-.84-2.57,1.37-5.12,2.79-7.63,4.16-.71-.62-.06-.94.13-1.28,2.13-3.84,4.27-7.67,6.45-11.49a14.55,14.55,0,0,1,.75-1.72c1.31-1.62.46-2.71-.6-4C386.89,70,384.13,67,382,63c1.79.77,3.32,1.4,4.83,2.08,2.66,1.21,5.31,2.45,8,3.67,1.54.7,2.1.63,2.9-.84.91-1.65,1.69-3.37,2.73-4.95,1.37-2.07,2.33-4.4,4.09-6.49a4.55,4.55,0,0,1,.68,2.8c.21,3.36.43,6.71.51,10.06a3.07,3.07,0,0,0,1.84,3C410.16,73.77,412.68,75.44,415.4,76.77Z"/><path class="cls-6" d="M370.7,371.78a31.86,31.86,0,0,1,2.74-4.9c1.79-3.05,3.2-6.31,5.28-9.17a2.39,2.39,0,0,0-.19-3.34,123,123,0,0,1-8-10.58c.4-.28.76-.07,1.2.13,3.87,1.81,7.76,3.58,11.65,5.37,1.61.73,1.78.6,2.68-1a127.62,127.62,0,0,1,6.7-11.27c.9.21.68.9.71,1.38.25,3.75.53,7.5.64,11.25a3.19,3.19,0,0,0,1.92,3.18c3.16,1.65,6.2,3.53,9.27,5.33.54.32,1,.71,1.62,1.12a6.21,6.21,0,0,1-3.16.57,51,51,0,0,0-7.07.9c-1,.19-1.41.48-1.57,1.41-1.16,6.56-3.29,12.88-4.82,19.34a1.84,1.84,0,0,1-.82,1.42c-.66-.25-.77-.92-1-1.45-2.15-4.46-5-8.58-6.87-13.18a1.18,1.18,0,0,0-1.71-.75,8.18,8.18,0,0,0-2.34,1.13c-1.79,1.37-4,2-5.84,3.13C371.55,371.87,371.26,371.78,370.7,371.78Z"/><path class="cls-4" d="M439.92,240.41c.31.23.62.45.95.66A5.2,5.2,0,0,1,439.92,240.41Z"/><path class="cls-8" d="M573.93,274.51a2.78,2.78,0,0,1,.28-1.86c.88-1.47,2.88-.77,10.17-.67a2.83,2.83,0,0,1,2.33.79,2.51,2.51,0,0,1,.11,2.11l-6.6-.17Z"/><path class="cls-9" d="M547.43,275.53a195.82,195.82,0,0,1,19.82-.95c.88,0,1.76,0,2.64,0,1.91-.08,1.92-.09,1.93-2.09,0-.8,0-1.6,0-2.4,0-1,.45-1.5,1.47-1.42,2,.17,16.92.38,18.64-.81a16.85,16.85,0,0,1,5-2.17c1.7-.49,3.55-.7,4.74.67a16,16,0,0,1,3.73,9.23.89.89,0,0,0,.87.93c.63.1,1.25.25,1.87.41,4.86,1.31,9.23,3.42,12.62,7.32,2,2.37,3,4.85,1.66,7.87a17.15,17.15,0,0,1-8.51,4.63,104.7,104.7,0,0,1-14.36,2.6,203.06,203.06,0,0,1-26.1,1.14c-7.83-.15-15.65-.65-23.47-1a74.11,74.11,0,0,1-16.09-2.32c-3.44-.92-6.75-2-9.22-4.77-.14-.15-.44-.17-.66-.25-1.57-5.74-.52-8.73,4.29-11.38a36.33,36.33,0,0,1,9.3-3.47,72.31,72.31,0,0,1,7.44-1.43C545.87,275.71,546.57,275.66,547.43,275.53Zm45.49-.76c-.06,2.3,1,3.54,3.12,3.6,2.82.08,4.57-1.42,4.61-3.95s-1.2-3.82-3.5-3.83A4,4,0,0,0,592.92,274.77Z"/><path class="cls-8" d="M573.55,292a88.13,88.13,0,0,1-15.95-1.7,9.16,9.16,0,0,1-4-1.59,2.23,2.23,0,0,1-.21-3.68,17.27,17.27,0,0,1,4.59-2.81,39.8,39.8,0,0,1,21.41-2.4,35.36,35.36,0,0,1,9.2,2.51c2.77,1.17,3.26,4,1.18,6.2a7.63,7.63,0,0,1-3.74,2A49,49,0,0,1,573.55,292Z"/><path class="cls-10" d="M592.92,274.77a4,4,0,0,1,4.23-4.18c2.3,0,3.55,1.38,3.5,3.83s-1.79,4-4.61,3.95C593.93,278.31,592.86,277.07,592.92,274.77Z"/><path class="cls-10" d="M573.82,288.73a19.13,19.13,0,0,1-6.77-.9c-.75-.24-2.61-.85-2.76-1.84s1.15-2.33,3.33-3.05a20.54,20.54,0,0,1,11.59,0,3.36,3.36,0,0,1,2.52,2.52c.06.88-.82,1.81-1.94,2.32A17.42,17.42,0,0,1,573.82,288.73Z"/><path class="cls-10" d="M665,282.7c-3.91,11.74-12.84,18.23-19.12,21.48,0-.84,0-1.69,0-2.53,0-.54.11-1.14-.49-1.48L637.52,299c5.12-2.5,15.49-8.8,18.93-19.13,3.71-11.17-.48-24.14-10.22-32.33a6.7,6.7,0,0,1,.95-1.13c.77-2,.85-4.08,1.35-6.11a5.26,5.26,0,0,1-.3-1.56C662.47,249.06,670.17,267.14,665,282.7Z"/><path class="cls-1" d="M310.41,69.15c1.38-1.36,3.94-1.26,9-1,1.87.1,3,.63,4.63.17a6.15,6.15,0,0,0,3.37-2.17,6.94,6.94,0,0,0,1-5c-.11-1.34-.27-3.21-1.5-4.5-1.47-1.55-4.55-1.31-10.65-.77a40.69,40.69,0,0,0-7.85,1.27c-2.93.83-4.79,1.38-6,3-1.55,2.09-1.18,4.82-1,6,.86,5.69,5.87,35.78,13,77-8-1.93-15.74,1.11-19,7-2.36,4.26-2.93,11,1,15,4.61,4.64,12.58,3.23,17,0,2-1.44,3.93-3.74,5.5-8.5,3.18-9.63,1.25-18.53,0-24,0,0-4.28-19-9.5-58.5C309.27,73.06,309,70.58,310.41,69.15Z"/><path class="cls-7" d="M519.17,238.65c-1.82-1.71-10.94-3.65-14.66-3.9a43.66,43.66,0,0,0-16.24,2.05c-5.35,1.71-13.82,6.9-24,14-1.52,1.07-3.09,2.19-4.69,3.35-28,20.25-66.05,52.45-88.14,68.77-41.95,31-69,36.37-78.32,37.89-14.8,2.42-43.13,6.63-65.63-10.52-4.47-3.41-21.48-16.43-21.78-37.48-.25-17.93,12.37-36.8,29.47-41.67,13.48-3.83,27.25,1.75,30.61,3.1a50.22,50.22,0,0,1,16.66,10.86c3.2,3.14,4.51,5.25,5.56,9.58.48,2,.7,7.76,0,9.83-2.46,7.07-6.75,9.61-13.58,12.41a24.52,24.52,0,0,1-13,1.53c-2.89-.41-11.23-1.56-10.45-12.46.71-9.82,9.07-9.16,11.05-8.08a4,4,0,0,1,1.84,4.92c-.52,1.95-.06,4.23,1.76,4.61,4.24.38,7.2-3.79,5.62-9.93a13.73,13.73,0,0,0-4.5-7c-7.88-6.19-24.42-6.08-32.82,3.59C228.14,300.79,227,311,230,318.92c7.38,19.69,40,25.1,59.7,23.08,10.83-1.11,22.27-4.94,25.5-6.06a155.5,155.5,0,0,0,23.54-10.25c8.63-4.69,17-9.81,25.5-14.79,13.95-8.21,57.12-43.44,80.13-62.45l7.57-6.27,0,0,6.83-5.69a73.86,73.86,0,0,1,38.67-16.66,75.14,75.14,0,0,1,12.15-.51,36.66,36.66,0,0,1,8.48,1c-1.72,2.46-2.57,5-1.25,8a36.81,36.81,0,0,1,1.61,4.71A13.14,13.14,0,0,1,519.17,238.65Z"/><path class="cls-7" d="M537,144.84l-.19,0c-4.34.82-42.59,7.13-75.66-9.66-2.13-1.08-4.23-2.25-6.3-3.53a81.19,81.19,0,0,1-18.92-16.06c-15.86-18.35-33.63-55.1-16.87-82.22C429.92,15.84,454.39,3.61,474.9,9.93c11.14,3.44,26.92,14.14,26,28.38-.63,10.13-9.61,20.7-20.46,21.79-6.53.66-15.28-2-18.57-8.71-2.41-5-2-12.39,1.83-15,1.66-1.11,4.57-1.72,6.67-.35a5.45,5.45,0,0,1,2.36,4.07c.27,3.38-3,4.63-2.71,7.08.36,2.68,4.86,5.13,8.71,4.74,5.14-.54,9.05-6.12,9.48-11,.62-7.16-6.22-13.2-10.8-15.73C463.7,17.66,440,25,430.07,40.4c-14.47,22.35,5.5,53.27,7.77,56.65,9.76,14.58,24.07,23.25,38.69,28.35,1.9.67,3.81,1.27,5.71,1.81,23.47,6.77,46.3,5.11,50.92,4.67l.52,0a10.26,10.26,0,0,1,2.52,5.28A26.85,26.85,0,0,1,537,144.84Z"/><text class="cls-11" transform="translate(0 483.21)">E<tspan class="cls-12" x="26.76" y="0">s</tspan><tspan x="46.4" y="0">timulación musical </tspan><tspan class="cls-13" x="437.18" y="0">t</tspan><tspan x="453.16" y="0">emp</tspan><tspan class="cls-14" x="542.53" y="0">r</tspan><tspan x="558.22" y="0">ana</tspan></text><path class="cls-1" d="M500.89,220.31a34.07,34.07,0,0,1-12.18-3.3c-10.66-5.61-15.83-14.6-15.12-26.43.7-11.62,7-19.94,17.73-24.39,10-4.16,20-3.87,29.32,2.28a27.57,27.57,0,0,1,2,44.44,31.39,31.39,0,0,1-13,6.37,2.84,2.84,0,0,0-1.35.44ZM511,192.23a9.08,9.08,0,0,0-3.74-7.6,7.2,7.2,0,0,0-10.73,2.18,10.49,10.49,0,0,0,1.14,11.43,7.62,7.62,0,0,0,5.51,3C507.89,201.48,511.17,198,511,192.23Z"/><path class="cls-1" d="M469.72,145a11.17,11.17,0,0,0-13.34,2.63,11.87,11.87,0,0,0-2.63,5.81c-.51,2.58-.63,5.23-1.56,7.72a62.53,62.53,0,0,1-1.08,6.71A17.65,17.65,0,0,1,448,166a5,5,0,0,1-2-.67,21,21,0,0,0-6.17-1.69c-10.45-1.09-18.84,2.59-24.89,11.21a25.86,25.86,0,0,0-4.8,13.81,36.86,36.86,0,0,0,1.47,13.57,25.29,25.29,0,0,0,2.09,4.2,25,25,0,0,0,7.7,8.55c1.07.76,2.43,1,3.35,2,2.28.25,4.3,1.42,6.51,1.92a22.62,22.62,0,0,0,8.5.79c2.46-.24,4.45-1.22,5.13-4.1,1.06,1.28,1.91,2.43,2.88,3.47a12.1,12.1,0,0,0,3.16,2.44,10.49,10.49,0,0,0,1.47.63c.33.11.67.2,1,.28a10,10,0,0,0,6.4-.77,12.37,12.37,0,0,0,1.41-.78,10.35,10.35,0,0,0,4.56-7.29q1-5.36,1.91-10.72t1.88-10.72l3.06-17.44,3.06-17.44A11.4,11.4,0,0,0,469.72,145Zm-31.4,55.59a7.5,7.5,0,0,1-6-6.62,11.28,11.28,0,0,1,1.59-7.59c1.47-2.34,3.52-3.77,6.37-3.47s5.35,1.58,6.56,4.5a8.92,8.92,0,0,1,.72,4,9.13,9.13,0,0,1-1.37,5C444.39,199.78,441.65,201.22,438.32,200.63Z"/><path class="cls-2" d="M446.15,196.44c-1.76,3.34-4.5,4.78-7.83,4.19a7.5,7.5,0,0,1-6-6.62,11.28,11.28,0,0,1,1.59-7.59c1.47-2.34,3.52-3.77,6.37-3.47s5.35,1.58,6.56,4.5a8.92,8.92,0,0,1,.72,4A9.13,9.13,0,0,1,446.15,196.44Z"/><path class="cls-1" d="M574.39,323.89a104.94,104.94,0,0,1-11.26-2.15c-16.41-3.36-32.82-6.72-49.3-9.69-.86-.16-1.75-.2-2.62-.29-2.57-.17-5-1.26-7.59-1.27-.73,0-.77-.47-.79-1.14-.08-3.19.32-6.36.45-9.54,0-1.07-.35-2.24.2-3.25a2.27,2.27,0,0,1,.41-.54c.77.06,1.54.16,2.3.29,1.14.19,2.27.45,3.39.7l1.35.29c9.27,2,18.53,4,27.8,5.92,11,2.32,35.66,6.74,35.66,6.74Z"/><path class="cls-6" d="M583.94,309.14c6-.86,12.49-1.73,18.47-2.6,7.25-1.05,14.47-2.24,21.72-3.23q5.83-.8,11.66-1.66,4.8-.7,9.59-1.48c.6.34.49.94.49,1.48,0,.84,0,1.69,0,2.53q0,3.85,0,7.72c0,1.77-.09,1.74-1.89,2a63,63,0,0,0-7.48,1.22l-27,3.79c-8.45,1.19-26.61,3.82-35.07,5V310.47Z"/></g></g></svg>