<?xml version="1.0" encoding="utf-8"?>
<!-- Generator: Adobe Illustrator 25.4.1, SVG Export Plug-In . SVG Version: 6.00 Build 0)  -->
<svg version="1.1" id="Layer_1" xmlns="http://www.w3.org/2000/svg" xmlns:xlink="http://www.w3.org/1999/xlink" x="0px" y="0px"
	 viewBox="0 0 2186.7 1745.4" style="enable-background:new 0 0 2186.7 1745.4;" xml:space="preserve">
<style type="text/css">
	.st0{fill:#1D509F;}
	.st1{fill:#9DEEFF;}
	.st2{fill:#F6C19D;}
	.st3{opacity:0.2;fill:#F6C19D;}
	.st4{fill:#9C75C4;}
	.st5{fill:#AC8CCE;}
	.st6{fill:#5B99E6;}
	.st7{fill:#2671D1;}
	.st8{fill:#5CB30B;}
	.st9{fill:#92CC5C;}
	.st10{fill:#141414;}
	.st11{fill:#F19A5E;}
	.st12{fill:#FFFFFF;}
	.st13{fill:#DAE7F7;}
	.st14{opacity:0.3;fill:#DAE7F7;}
	.st15{fill:#D0E1F5;}
	.st16{fill:#F3A875;}
	.st17{fill:#9369BF;}
	.st18{fill:#085FCC;}
	.st19{fill:#88B2E7;}
	.st20{fill:#669CDF;}
</style>
<rect x="-23.3" y="-15.2" class="st0" width="2231.2" height="1782.6"/>
<path class="st1" d="M-92.6,722.1c95.4,88.1,183.3,96.4,238.3,96.4c284,0,473-393,876-393c353,0,446,261.5,471.5,305
	s124.5,318.4,192,378.2c67.5,59.8,306.8,219.5,412.5,434.8c27.1,55.2,51,155,51,202H-92.6V722.1z"/>
<g>
	<path class="st2" d="M378.5,1745.4h416.8l34.6-93.1c12.2-33,37.3-59.5,69.4-74c30.2-13.7,70.8-38.4,110.2-82.7
		c76.6-86,117.3-178.3,117.3-178.3l-258.3-1.3c0,0,23.2-144.5-105.1-336.4c-13.7-20.5-20-45.2-17.8-69.8l12.2-139.9
		c0,0,87.2-97.5,33.7-218.4c0,0-51.2-70.9-71.5-44.9c0,0-154.6,368.1-168.7,422.9c-14.1,54.7-32.8,89.1-14.1,261.2
		c5,45.5,6.8,83.5,6.7,114.8c-0.1,60-13.5,119.1-39.1,173.3L378.5,1745.4z"/>
	<path class="st3" d="M767.3,1506.6c-38.7-42.9-92.4-36.2-148.9-55.8c-56.5-19.6-74.6-160.8-74.6-160.8l0,0
		c0.1,5.3,0.1,10.5,0.1,15.5c-0.1,60-13.5,119.1-39.1,173.3l-126.1,266.6h416.8l34.6-93.1c12.2-33,37.3-59.5,69.4-74
		c25.7-11.6,58.9-31.3,92.5-64.2C877,1562.5,805.9,1549.6,767.3,1506.6z"/>
	<g>
		<path class="st4" d="M583,77.7c95.8,151.2,332,285.9,332,285.9S727.2,348.4,634,227l33.8-28c0,0-26.8,2.6-49.3,5.2
			C597.8,169.9,584.4,128.2,583,77.7z"/>
		<path class="st5" d="M834.4,140.2c-14.6,6.6-36.1,16.7-36.1,16.7l20.8-29.8c-24.2-18.8-50.8-31.4-77.2-39.6
			c-10.7,15.6-23.3,33-23.3,33l-2.5-39.7C645.4,65.5,583,77.7,583,77.7c95.8,151.2,332,285.9,332,285.9
			C913.9,252.5,880,183.2,834.4,140.2z"/>
	</g>
	<g>
		<path class="st6" d="M547.8,291c28.2-16.6,56.8-25.5,84.6-29.1c8.4,9.6,18.6,20.8,18.6,20.8l0.6-22.5
			c106.8-5.1,196.8,62.1,196.8,62.1c-61.1,37.2-113.7,47.6-157,44.5c-2.7-7.9-6.6-19.6-6.6-19.6l-7.3,18.1c-20.8-3-39.2-9-55.2-16.4
			c3.8-9.4,7.9-20.1,7.9-20.1l-22.8,12.5C568.3,319.2,547.8,291,547.8,291z"/>
		<path class="st7" d="M691.4,366.8c-2.7-7.9-6.6-19.6-6.6-19.6l-7.3,18.1c-20.8-3-39.2-9-55.2-16.4c3.8-9.4,7.9-20.1,7.9-20.1
			l-22.8,12.5c-39.1-22.1-59.6-50.3-59.6-50.3c124.3-14.2,300.6,31.3,300.6,31.3C787.3,359.5,734.7,369.9,691.4,366.8z"/>
	</g>
	<g>
		<path class="st8" d="M1599.4,275.5l-9,67.9l48.2-35.2l147.6-75.4L1672,243.2c0,0-58.2,14.1-61.3,17
			C1607.6,263,1599.4,275.5,1599.4,275.5z"/>
		<polygon class="st9" points="1548.8,234.5 1786.2,232.7 1599.4,275.5 		"/>
		<polygon class="st9" points="1675.7,343.8 1613.5,293.8 1786.2,232.7 		"/>
	</g>
	<g>
		<g>
			<path class="st10" d="M1574.9,310.8c9.1-3.4,15.8-4.2,15.8-4.2l-0.4-4.2c-0.3,0-7.3,0.8-16.9,4.4L1574.9,310.8z"/>
		</g>
		<g>
			<path class="st10" d="M1425.3,689c9.8-5,19.1-10.3,27.5-15.9l2.4,3.5c-8.6,5.7-17.9,11.2-27.9,16.2L1425.3,689z M1477.8,653.6
				c8-7.3,15.2-15.1,21.3-23.3l3.4,2.6c-6.3,8.4-13.7,16.4-21.9,23.9L1477.8,653.6z M1515.5,603.3c2.1-4.4,4-8.9,5.7-13.5
				c1.9-5.2,3.6-10.7,5-16.2l4.1,1.1c-1.5,5.7-3.2,11.3-5.2,16.6c-1.7,4.7-3.7,9.4-5.8,13.9L1515.5,603.3z M1532.6,510.6l4.2-0.1
				c0.3,11.5-0.1,22.1-1,32.3l-4.2-0.4C1532.6,532.3,1532.9,521.9,1532.6,510.6z M1526.6,447l4.2-0.6c1.8,12.4,3,22.5,4,31.9
				l-4.2,0.4C1529.6,469.4,1528.4,459.4,1526.6,447z M1521.9,415.1c-1.7-11.4-2.2-22.2-1.6-32.2l4.2,0.3c-0.6,9.6-0.1,20.2,1.6,31.3
				l0,0.2l-4.2,0.6L1521.9,415.1z M1527.2,351.1c4.3-10.4,10.5-19.5,18.4-27l2.9,3.1c-7.5,7.1-13.4,15.7-17.4,25.6L1527.2,351.1z"/>
		</g>
		<g>
			<path class="st10" d="M1381.7,711.9c5.5-1.9,10.8-3.9,16-5.9l-1.6-3.9c-5.1,2-10.4,4-15.8,5.9L1381.7,711.9z"/>
		</g>
	</g>
	<g>
		<path class="st11" d="M1359.7,261.3c0,0,88.3-59.1,108.4-20.2c20.2,38.9-114.7,176.7-114.7,176.7L1359.7,261.3z"/>
		<path class="st11" d="M1359.7,518.7c0,0,88.3-59.1,108.4-20.2c20.2,38.9-114.7,176.7-114.7,176.7L1359.7,518.7z"/>
		<path class="st11" d="M1359.7,694.1c0,0,88.3-59.1,108.4-20.2c20.2,38.9-114.7,176.7-114.7,176.7L1359.7,694.1z"/>
	</g>
	<path class="st10" d="M1298.8,195.1H814.2c-36.1,0-65.3,29.3-65.3,65.3v806.4v184c0,36.4,29.6,65.3,65.3,65.3h484.6
		c36.1,0,65.3-29.2,65.3-65.3V444.4v-184C1364.1,224,1334.5,195.1,1298.8,195.1z"/>
	<path class="st3" d="M793,1027.8c0,0-87.7,214.6-79.2,255.1c8.5,40.6,61.7,94.8,192.2,76.7c130.5-18.1,220.7-42.3,220.7-42.3
		s5.5-289.6,0-304.3c-5.5-14.7-240.1-118.9-249.3-118.9C868.1,894.3,793,1027.8,793,1027.8z"/>
	<rect x="780.5" y="284.1" class="st12" width="552" height="943"/>
	<g>
		<path class="st13" d="M1192.2,1016H920.7c-18.9,0-34.3-15.3-34.3-34.3V622.1c0-18.9,15.3-34.3,34.3-34.3h271.5
			c18.9,0,34.3,15.3,34.3,34.3v359.6C1226.5,1000.7,1211.1,1016,1192.2,1016z"/>
		<g>
			<path class="st9" d="M938.2,761.2l27,129.3c1.2,5.6,6,9.6,11.6,9.6h159.4c5.6,0,10.4-4,11.6-9.6l27-129.3H938.2z M985.8,887.7
				c-3.6,0-6.5-2.9-6.5-6.5l-9.1-91.7c0-3.6,2.9-6.5,6.5-6.5c3.6,0,6.5,2.9,6.5,6.5l9.1,91.7C992.3,884.7,989.4,887.7,985.8,887.7z
				 M1018.6,887.7L1018.6,887.7c-3.6,0-6.5-2.9-6.5-6.5l-3.6-91.7c0-3.6,2.9-6.5,6.5-6.5c3.6,0,6.5,2.9,6.5,6.5l3.6,91.7
				C1025.1,884.7,1022.2,887.7,1018.6,887.7z M1063,881.1c0,3.6-2.9,6.5-6.5,6.5c-3.6,0-6.5-2.9-6.5-6.5v-91.7
				c0-3.6,2.9-6.5,6.5-6.5c3.6,0,6.5,2.9,6.5,6.5V881.1z M1100.9,881.1c0,3.6-2.9,6.5-6.5,6.5s-6.5-2.9-6.5-6.5l3.6-91.7
				c0-3.6,2.9-6.5,6.5-6.5c3.6,0,6.5,2.9,6.5,6.5L1100.9,881.1z M1133.7,881.1c0,3.6-2.9,6.5-6.5,6.5s-6.5-2.9-6.5-6.5l9.1-91.7
				c0-3.6,2.9-6.5,6.5-6.5c3.6,0,6.5,2.9,6.5,6.5L1133.7,881.1z"/>
			<path class="st8" d="M1176.4,771.7H936.5c-5.8,0-10.4-4.7-10.4-10.4l0,0c0-5.8,4.7-10.4,10.4-10.4h239.8
				c5.8,0,10.4,4.7,10.4,10.4l0,0C1186.8,767,1182.1,771.7,1176.4,771.7z"/>
			<path class="st9" d="M986.9,751.6v-9c0-15,12.2-27.2,27.2-27.2h84.7c15,0,27.2,12.2,27.2,27.2v9c0,3.2,2.6,5.8,5.8,5.8l0,0
				c3.2,0,5.8-2.6,5.8-5.8v-9c0-21.5-17.4-38.9-38.9-38.9h-84.7c-21.5,0-38.9,17.4-38.9,38.9v9c0,3.2,2.6,5.8,5.8,5.8l0,0
				C984.3,757.4,986.9,754.8,986.9,751.6z"/>
		</g>
	</g>
	<path class="st12" d="M1170.3,254.5H943.6c-2.6,0-4.7-2.1-4.7-4.7v-2.3c0-2.6,2.1-4.7,4.7-4.7h226.7c2.6,0,4.7,2.1,4.7,4.7v2.3
		C1175,252.4,1172.9,254.5,1170.3,254.5z"/>
	<path class="st2" d="M737.8,854.5c0,0,3.3,12.4,10.9,18.5l8.9-102.9c0,0,64.2-71.7,48.7-168.4c-5.3-33.1-21.8-63.6-47-85.7
		c-14.4-12.6-30.2-21.1-39.5-9.2c0,0-72.7,173.1-122.9,299.6L737.8,854.5z"/>
	<g>
		<path class="st14" d="M1083.2,1272.6c0,15-12.1,27.1-27.1,27.1c-15,0-27.1-12.1-27.1-27.1c0-15,12.1-27.1,27.1-27.1
			C1071.1,1245.4,1083.2,1257.6,1083.2,1272.6z"/>
		<g>
			<path class="st13" d="M1064.2,1283.8h-16.2c-1.8,0-3.2-1.4-3.2-3.2v-16.2c0-1.8,1.4-3.2,3.2-3.2h16.2c1.8,0,3.2,1.4,3.2,3.2v16.2
				C1067.4,1282.4,1066,1283.8,1064.2,1283.8z M1048.1,1262.1c-1.3,0-2.3,1-2.3,2.3v16.2c0,1.3,1,2.3,2.3,2.3h16.2
				c1.3,0,2.3-1,2.3-2.3v-16.2c0-1.3-1-2.3-2.3-2.3H1048.1z"/>
		</g>
	</g>
	<rect x="780.5" y="1171.3" class="st15" width="552" height="55.8"/>
	<rect x="780.5" y="284.1" class="st15" width="552" height="50"/>
	<path class="st11" d="M732.9,608.4c20.1-9.2,30.6-61.5,34.3-85c-16.1-16.2-36.3-30.8-47.4-16.7c0,0-16,38.1-38.2,91.6
		C696.8,606.8,717.9,615.3,732.9,608.4z"/>
	<path class="st10" d="M498.6,1499.5c44.1,27.1,186.1,108.1,332.9,125.4c8.6,1,14.6,8.9,12.1,15.7l-25.6,68.7
		c-1.7,4.5-6.8,7.2-12.5,6.5c-43.3-5.3-221.8-32.1-347.4-129.3c-4.3-3.3-6.1-8.3-4.5-12.6l26.2-70.1
		C482.2,1497.2,491.5,1495.1,498.6,1499.5z"/>
	<path d="M485.7,1565.2l-0.5-0.2c-2.6-1-3.9-3.8-2.9-6.4l7.9-21.1c1-2.6,3.8-3.9,6.4-2.9l0.5,0.2c2.6,1,3.9,3.8,2.9,6.4l-7.9,21.1
		C491.2,1564.9,488.3,1566.2,485.7,1565.2z"/>
	<path d="M512.2,1581.5l-0.5-0.2c-2.6-1-3.9-3.8-2.9-6.4l7.9-21.1c1-2.6,3.8-3.9,6.4-2.9l0.5,0.2c2.6,1,3.9,3.8,2.9,6.4l-7.9,21.1
		C517.6,1581.1,514.7,1582.4,512.2,1581.5z"/>
	<path d="M538.6,1597.6l-0.5-0.2c-2.6-1-3.9-3.8-2.9-6.4l7.9-21.1c1-2.6,3.8-3.9,6.4-2.9l0.5,0.2c2.6,1,3.9,3.8,2.9,6.4l-7.9,21.1
		C544,1597.3,541.2,1598.6,538.6,1597.6z"/>
	<path d="M565.8,1610.8l-0.5-0.2c-2.6-1-3.9-3.8-2.9-6.4l7.9-21.1c1-2.6,3.8-3.9,6.4-2.9l0.5,0.2c2.6,1,3.9,3.8,2.9,6.4l-7.9,21.1
		C571.3,1610.4,568.4,1611.8,565.8,1610.8z"/>
	<path d="M592.6,1626.1l-0.5-0.2c-2.6-1-3.9-3.8-2.9-6.4l7.9-21.1c1-2.6,3.8-3.9,6.4-2.9l0.5,0.2c2.6,1,3.9,3.8,2.9,6.4l-7.9,21.1
		C598,1625.7,595.2,1627,592.6,1626.1z"/>
	<path d="M620.6,1638.2l-0.5-0.2c-2.6-1-3.9-3.8-2.9-6.4l7.9-21.1c1-2.6,3.8-3.9,6.4-2.9l0.5,0.2c2.6,1,3.9,3.8,2.9,6.4l-7.9,21.1
		C626,1637.8,623.1,1639.1,620.6,1638.2z"/>
	<path d="M649.1,1648.8l-0.5-0.2c-2.6-1-3.9-3.8-2.9-6.4l7.9-21.1c1-2.6,3.8-3.9,6.4-2.9l0.5,0.2c2.6,1,3.9,3.8,2.9,6.4l-7.9,21.1
		C654.5,1648.5,651.6,1649.8,649.1,1648.8z"/>
	<path d="M678.1,1658l-0.5-0.2c-2.6-1-3.9-3.8-2.9-6.4l7.9-21.1c1-2.6,3.8-3.9,6.4-2.9l0.5,0.2c2.6,1,3.9,3.8,2.9,6.4l-7.9,21.1
		C683.6,1657.7,680.7,1659,678.1,1658z"/>
	<path d="M708.4,1664l-0.5-0.2c-2.6-1-3.9-3.8-2.9-6.4l7.9-21.1c1-2.6,3.8-3.9,6.4-2.9l0.5,0.2c2.6,1,3.9,3.8,2.9,6.4l-7.9,21.1
		C713.8,1663.7,710.9,1665,708.4,1664z"/>
	<path d="M737.8,1672.1l-0.5-0.2c-2.6-1-3.9-3.8-2.9-6.4l7.9-21.1c1-2.6,3.8-3.9,6.4-2.9l0.5,0.2c2.6,1,3.9,3.8,2.9,6.4l-7.9,21.1
		C743.2,1671.8,740.4,1673.1,737.8,1672.1z"/>
	<path d="M768.4,1677.3l-0.5-0.2c-2.6-1-3.9-3.8-2.9-6.4l7.9-21.1c1-2.6,3.8-3.9,6.4-2.9l0.5,0.2c2.6,1,3.9,3.8,2.9,6.4l-7.9,21.1
		C773.8,1676.9,770.9,1678.2,768.4,1677.3z"/>
	<path d="M799,1682.3l-0.5-0.2c-2.6-1-3.9-3.8-2.9-6.4l7.9-21.1c1-2.6,3.8-3.9,6.4-2.9l0.5,0.2c2.6,1,3.9,3.8,2.9,6.4l-7.9,21.1
		C804.4,1681.9,801.6,1683.2,799,1682.3z"/>
	<path class="st5" d="M585.8,1658.6l0.1-0.3c-0.5-0.1-0.9-0.2-1.4-0.3l-34.7-13c-3.4-1.3-5.1-5.3-3.7-9l31.3-83.9
		c1.4-3.7,5.3-5.7,8.7-4.4l34.7,13c2,0.8,3.4,2.5,4,4.6c2.7,1.2,5.5,2.4,8.3,3.6c0.9-7-2.7-13.9-9.2-16.3l-34.7-13
		c-7.6-2.8-16.3,1.5-19.4,9.8l-31.3,83.9c-3.1,8.2,0.6,17.2,8.2,20.1l34.7,13c5.2,1.9,10.9,0.5,15-3.2
		C592.9,1661.5,589.3,1660.1,585.8,1658.6z"/>
	<path class="st12" d="M578.1,1592l-15.1-5.6c-2.7-1-5.8,0.5-6.9,3.5c-1.1,2.9,0.2,6.1,2.9,7.1l15.1,5.6L578.1,1592z"/>
	<g>
		<path class="st16" d="M1239.1,905.2c0,0-74.5,6.3-77.2,26.1c-2.6,19.8,3.1,54.7,73.5,61.5h72.9c0,0-21.8-60.5-20.8-62.6
			C1288.6,928.1,1239.1,905.2,1239.1,905.2z"/>
		<path class="st2" d="M1119.5,1200.7c-10.1,5.4-13.6,18.1-7.9,28c34.3,59.2,170.7,294.3,183,313.4c14.1,21.9,48.5,73.5,162.6,100.1
			c114.2,26.6,161.1,103.2,161.1,103.2h351.9c0,0-82.9-131.4-151.7-472.3c0,0-53.2-283.1-153.3-273.7c0,0-61-64.1-120.4-51.6
			c0,0-112.6-67.2-176.7-67.2l-154-182c-15.2-18-42.1-21.5-60.9-7.2c-6,4.6-10.6,10.7-11.9,18.8c-4.7,29.7,34.4,104.8,97,195.5
			c62.6,90.7,217.4,378.5,150.1,505.1c0,0-68.8-51.6-128.2-134.5C1210.4,1206.9,1151.9,1183.5,1119.5,1200.7z"/>
		<path class="st11" d="M1368.7,880.7c20.4,17.5,39.6,36.5,57.7,56.4c24.4,26.6,55.3,66,73.4,96.4c22.8,37.6,37.9,70.6,45,112.1
			l-0.5,0.1c-8.2-38.9-29.6-80.9-48.3-109.8c-14-22.7-39.8-58.6-72.4-96.4c-16.4-18.9-37.2-41.2-55.2-58.5L1368.7,880.7z"/>
		<path class="st11" d="M1543.8,947.4c16.6,8.5,31.5,20.4,44.6,33.8c13.3,13.4,24.3,28.5,33.8,45c9.3,16.4,16.4,34,21.1,52.2
			c4,17,6.7,28.5,7.1,55.5l-0.5,0c-1.5-18.4-4.9-36.7-10.1-54.5c-5.3-17.2-12.7-35.6-21.7-50.9c-9-16.1-20-31.2-32.4-44.9
			c-11.8-12.9-27.2-26.8-42.1-35.9L1543.8,947.4z"/>
		<path class="st11" d="M1663.9,998.1c14.7,11.1,29.6,30.8,36.8,44.1c9.1,15.6,16.3,33.8,21,53.6c3.5,12.7,4.4,25,4.9,38l-0.5,0.1
			c-2.2-12.5-3.5-21.9-8-37c-6.8-23-12.2-34.8-21.4-52.5c-5.5-10.9-19.7-32.5-33.1-45.9L1663.9,998.1z"/>
		<path class="st11" d="M1190.5,1273.5c3.1-15.8-15.3-40.9-32.1-59.9c-10.5-11.8-27-16.2-41.5-11.3c-8.1,6-10.6,17.4-5.4,26.4
			c9.2,15.9,25.8,44.5,45.4,78.2C1171.6,1299.5,1187.6,1288.2,1190.5,1273.5z"/>
		<path class="st11" d="M1205.3,770c8.9-1.8,49.3-15.2,46.8-22.6l0,0l-39.8-47.1c-7.9-9.3-18.9-14.8-30.3-15.9l0,0h0
			c-0.1,0-0.1,0-0.2,0c-0.3,0-1.1-0.1-2.1-0.1c-5.3,0-18.5,1.5-21.4,16c-2.9,14.3,20.8,49,31.2,63.4
			C1193.1,768.8,1199.2,771.2,1205.3,770z"/>
		<path class="st3" d="M1618.3,1745.4h351.9c0,0-54.3-86.1-111.6-299.9c-25.1,157.4-163.6,148.3-218.6,157.1
			c-63.3,10.1-309-41.2-343.4-57.3c15.3,23.4,51.6,71.6,160.6,96.9C1571.4,1668.8,1618.3,1745.4,1618.3,1745.4z"/>
		<path class="st3" d="M1256.9,934.2c69,110.9,192.8,365.5,131.5,476.6l40.6,40.1c0,0,102.7-113.8-60.7-364.7
			C1330.3,1027.8,1292.5,977.3,1256.9,934.2z"/>
	</g>
	<g>
		<g>
			<path class="st10" d="M421.3,873.6c-7.3-6.3-13.4-9.3-13.4-9.4l1.9-3.8c0.3,0.1,6.6,3.3,14.3,10L421.3,873.6z"/>
		</g>
		<g>
			<path class="st10" d="M428.1,1283.1c-7.6-8.2-14.5-16.5-20.6-24.8l3.4-2.5c6,8.2,12.8,16.4,20.3,24.5L428.1,1283.1z
				 M390.4,1230.8c-5.1-9.8-9.2-19.9-12.3-30l4.1-1.2c3,9.8,7,19.7,12,29.3L390.4,1230.8z M371.9,1169c-0.5-4.9-0.7-10-0.7-15
				c0-5.7,0.3-11.5,0.9-17.4l4.2,0.4c-0.6,5.7-0.9,11.4-0.9,16.9c0,4.9,0.2,9.8,0.7,14.6L371.9,1169z M382,1105.8l-4.1-1.1
				c2.6-9.9,5.9-19.9,10.2-30.6l3.9,1.6C387.9,1086.2,384.6,1096.1,382,1105.8z M405,1046.5l-3.8-1.9c4.1-8.5,8.8-17.5,14.8-28.6
				l3.7,2C413.7,1029.1,409.1,1038.1,405,1046.5z M435,990l-3.7-2l0.1-0.2c5.4-9.9,9.5-19.6,12.3-28.8l4.1,1.2
				c-2.9,9.5-7.1,19.5-12.6,29.6L435,990z M448,928c-0.4-10.7-2.9-20.7-7.5-30l3.8-1.9c4.9,9.8,7.5,20.5,7.9,31.7L448,928z"/>
		</g>
		<g>
			<path class="st10" d="M464.2,1316.7c-4.5-3.7-8.8-7.4-13-11.1l2.8-3.2c4.1,3.6,8.4,7.3,12.8,11L464.2,1316.7z"/>
		</g>
	</g>
	<g>
		<path class="st17" d="M393.4,801.9l-5.6,68.3l-39.7-44.7l-128.2-105L329.3,755c0,0,53.8,26.2,56.3,29.6
			C388.1,788,393.4,801.9,393.4,801.9z"/>
		<polygon class="st5" points="451.5,772.6 219.9,720.5 393.4,801.9 		"/>
		<polygon class="st5" points="304.4,852.5 375.8,816.9 219.9,720.5 		"/>
	</g>
	<g>
		<g>
			<g>
				<path class="st18" d="M1144.8,472.1h-0.4c-24.2,0-43.8-19.6-43.8-43.8v-32.8h88v32.8C1188.6,452.5,1169,472.1,1144.8,472.1z"/>
				<path class="st19" d="M1056.8,472.1h-0.4c-24.2,0-43.8-19.6-43.8-43.8v-32.8h88v32.8C1100.6,452.5,1081,472.1,1056.8,472.1z"/>
				<path class="st18" d="M968.7,472.1h-0.4c-24.2,0-43.8-19.6-43.8-43.8v-32.8h88v32.8C1012.5,452.5,992.9,472.1,968.7,472.1z"/>
				<path class="st19" d="M880.7,472.1h-0.4c-24.2,0-43.8-19.6-43.8-43.8v-32.8h88v32.8C924.5,452.5,904.9,472.1,880.7,472.1z"/>
				<path class="st18" d="M792.6,472.1h-0.4c-24.2,0-43.8-19.6-43.8-43.8v-32.8h88v32.8C836.4,452.5,816.8,472.1,792.6,472.1z"/>
				<path class="st19" d="M1408.8,472.1h-0.4c-24.2,0-43.8-19.6-43.8-43.8v-32.8h88v32.8C1452.6,452.5,1433,472.1,1408.8,472.1z"/>
				<path class="st18" d="M1320.7,472.1h-0.4c-24.2,0-43.8-19.6-43.8-43.8v-32.8h88v32.8C1364.5,452.5,1344.9,472.1,1320.7,472.1z"
					/>
				<path class="st19" d="M1232.9,472.1h-0.4c-24.2,0-43.8-19.6-43.8-43.8v-32.8h88v32.8C1276.7,452.5,1257.1,472.1,1232.9,472.1z"
					/>
				<path class="st19" d="M704.6,472.1h-0.4c-24.2,0-43.8-19.6-43.8-43.8v-32.8h88v32.8C748.4,452.5,728.8,472.1,704.6,472.1z"/>
			</g>
			<g>
				<polygon class="st13" points="1087.9,284.1 1025.3,284.1 1012.5,395.5 1100.6,395.5 				"/>
				<polygon class="st20" points="1025.3,284.1 962.7,284.1 924.5,395.5 1012.5,395.5 				"/>
				<polygon class="st13" points="962.7,284.1 900.1,284.1 836.4,395.5 924.5,395.5 				"/>
				<polygon class="st20" points="900.1,284.1 837.5,284.1 748.4,395.5 836.4,395.5 				"/>
				<polygon class="st13" points="837.5,284.1 774.9,284.1 660.3,395.5 748.4,395.5 				"/>
				<polygon class="st13" points="1337.8,284.1 1275.2,284.1 1364.5,395.5 1452.6,395.5 				"/>
				<polygon class="st20" points="1275.6,284.1 1213,284.1 1276.5,395.5 1364.5,395.5 				"/>
				<polygon class="st13" points="1213,284.1 1150.4,284.1 1188.6,395.5 1276.7,395.5 				"/>
				<polygon class="st20" points="1150.4,284.1 1087.8,284.1 1100.6,395.5 1188.6,395.5 				"/>
			</g>
		</g>
	</g>
</g>
</svg>
