<svg xmlns="http://www.w3.org/2000/svg" viewBox="0 0 704.31 400.88"><defs><style>.cls-1{font-size:41.89px;font-family:GothamRounded-Bold, Gotham Rounded;font-weight:700;}.cls-1,.cls-5{fill:#fff;}.cls-2{letter-spacing:-0.01em;}.cls-3{letter-spacing:-0.02em;}.cls-4{letter-spacing:-0.02em;}.cls-6{fill:#d6001c;}.cls-7{fill:#ffb800;}</style></defs><g id="Capa_2" data-name="Capa 2"><g id="Capa_1-2" data-name="Capa 1"><text class="cls-1" transform="translate(234.5 338.17)">E<tspan class="cls-2" x="28.07" y="0">s</tspan><tspan x="48.68" y="0">timulación musical </tspan><tspan class="cls-3" x="127.97" y="50.27">t</tspan><tspan x="144.73" y="50.27">emp</tspan><tspan class="cls-4" x="238.48" y="50.27">r</tspan><tspan x="254.94" y="50.27">ana</tspan></text><path class="cls-5" d="M392.33,260.2a13.31,13.31,0,0,1-4.48,8.43c-3.83,3.64-8.59,5.55-13.53,6.94a60.5,60.5,0,0,1-21.25,2.55,35,35,0,0,1-18.41-7,38.31,38.31,0,0,1-5-4.27h0a.81.81,0,0,1-.09-.1l-.34-.39c-.24-.28-.51-.58-.77-.92-.13-.17-.26-.34-.41-.52,0,0,0,0,0,0a3.27,3.27,0,0,1-.28-.37c-.08-.12-.17-.24-.25-.37-.58-.86-1.12-1.74-1.8-2.79,0,0-.05,0-.08.07a37.28,37.28,0,0,1-4.7-28,.25.25,0,0,1,0-.08h0a39.6,39.6,0,0,1,5.33-11.61,36.26,36.26,0,0,1,20.06-14.49,58.17,58.17,0,0,1,22.19-2.51,21.14,21.14,0,0,1,10,3.42c4.24,2.82,6.5,8.66,5.26,13.28a12.42,12.42,0,0,1-11.63,9.41c-3.05.12-6.12.06-9.18.07a20.94,20.94,0,0,0-6.51,1c-4.95,1.62-7.79,5.81-7.21,10.82.61,5.18,4.41,8.59,9.79,8.91,3.07.18,5.78-.95,8.42-2.21a38.67,38.67,0,0,1,9.09-3.14C384.42,244.78,393.38,250,392.33,260.2Z"/><path class="cls-5" d="M325.41,260.83a23.49,23.49,0,0,1-1.2,2.24c-.18.27-.36.53-.52.8a1,1,0,0,1-.11.17,1.44,1.44,0,0,0-.12.17,12.3,12.3,0,0,1-.86,1.27c-3.44,4.45-7.93,7.37-13,9.63-5.33,2.38-11.11,3.24-16.75,4.19a28.94,28.94,0,0,1-15.11-1.16c-1.93-.74-4-1.16-5.85-2.05a12.21,12.21,0,0,1-5.88-5.42c-1-2.05-1.12-4.47-.72-7.28a20.67,20.67,0,0,1,.78-2.51,15.72,15.72,0,0,1,1.54-2.31,7.5,7.5,0,0,1,2.56-1.95,18,18,0,0,1,9.11-1.94c3.38,0,6.68.77,10,1.14,2.82.3,5.64.63,8.36-.81.71-.38,1.26-.61,1.38-1.44s-.69-1.2-1.27-1.58a8.45,8.45,0,0,0-4.13-1.27c-4.74-.32-9.49-.72-14.22-1.1-4.48-.36-8.71-1.53-12.17-4.51A18.24,18.24,0,0,1,260.53,232c-.72-10.38,4.67-17.13,12.92-22.1,9.29-5.6,19.59-7.12,30.24-6.3a26.59,26.59,0,0,1,9.92,2.72c6.58,3.32,5.86,12.49,1,15.75a14.19,14.19,0,0,1-8.61,2.5c-3.7-.08-7.4-.09-11.1-.22a17.69,17.69,0,0,0-4.65.71A2.13,2.13,0,0,0,288.4,227c0,1.07.94,1.6,1.86,1.88a35.81,35.81,0,0,0,7.84,1.05c7,.47,13.79,1.56,20,4.92h0s0,0,0,0a20.26,20.26,0,0,1,2.36,1.7,19.93,19.93,0,0,1,6,8.44A20.65,20.65,0,0,1,325.41,260.83Z"/><path class="cls-5" d="M473.51,258.41c1,6.76-2.37,11.09-7.23,14.82a59.15,59.15,0,0,1-33.08,12.31c-6.69.41-13.33-.19-19.44-3.24-5.64-2.82-10.62-6.52-14.18-11.89-2.53-3.81-4.88-7.85-5.74-12.26a43.67,43.67,0,0,1-.66-14.14c1.2-9.07,5.61-16.28,12.23-22.21,5.16-4.63,11.46-7.27,18.21-8.74,10.09-2.19,19.72-.81,28.5,4.6,6.73,4.14,12.48,9.32,14.56,17.47a19.15,19.15,0,0,1,.58,3.73c.23,4.63-1.72,6.57-5.5,8.24a101.79,101.79,0,0,1-11.3,3.76c-5.41,1.65-10.87,3.11-16.26,4.83-2.48.79-5.14,1.06-7.56,2.53a8.47,8.47,0,0,0,5.8,2.37c6.68.37,12.71-1.59,18.35-5,1.75-1.06,3.45-2.26,5.28-3.14a13.87,13.87,0,0,1,12.09-.53c1.87.81,2.12.61,2-1.49q-.84-19.16-1.68-38.31c-.09-2.21-.07-4.43-.13-6.65-.18-6,4.94-11.39,11.23-12.08,4.45-.49,8.43.34,11.42,4,1.09,1.32,1.84,1.3,3.37.31a31.77,31.77,0,0,1,18.85-5.52c9.32.39,17.19,3.79,22.42,11.92a19,19,0,0,1,3.16,9.46c.5,11,.87,22,1.39,32.93a14.11,14.11,0,0,1-8.69,13.74,14.53,14.53,0,0,1-17.76-5.66,9,9,0,0,1-1.62-4.91c-.24-8.66-.64-17.32-1.08-26-.14-2.84-.87-5.32-3.71-7a6.35,6.35,0,0,0-6.5-.56,6.27,6.27,0,0,0-3.89,5.7c-.06,2.32.06,4.64.16,7,.26,6.34.52,12.67.82,19,.29,6.08-2.88,11.62-8.48,13.85a15,15,0,0,1-14.08-1.36C474.73,259.77,474.78,258.81,473.51,258.41Zm-51.19-14.23c4.47-1.34,8.69-2.65,12.93-3.86,1.21-.35,1.54-.79.94-2a6.68,6.68,0,0,0-7.78-3.88C423.9,235.36,421.62,238.83,422.32,244.18Z"/><path class="cls-6" d="M179.16,197.09a25.9,25.9,0,0,1-17.2-5.18c-6.9-5-11.5-11.39-12.73-20q-5.35-37.62-10.85-75.21-4.29-29.61-8.63-59.22c-.78-5.25-1.17-10.6.59-15.58,4.13-11.71,12.07-19,24.77-21.39,13.92-2.59,28,6,33.29,17a40.84,40.84,0,0,1,3.32,12.07q5.31,37.14,10.7,74.27c2.76,19.12,5.48,38.24,8.3,57.35,2.22,15.08-6.3,28-19,33.69A23.4,23.4,0,0,1,179.16,197.09Z"/><path class="cls-5" d="M245,123.65a32.09,32.09,0,0,1,19-6.61c8-.28,15.26,1.88,21.19,7.34a23,23,0,0,1,7.84,17c.11,11.51.14,23,0,34.54a14.91,14.91,0,0,1-16.32,14.89c-6-.55-10.88-3.95-12.72-9.28a17.74,17.74,0,0,1-.66-5.87c0-8.55,0-17.11,0-25.66,0-3.85-1.82-6.44-5.07-8.18s-8.45.53-9.55,4.59a15.64,15.64,0,0,0-.38,4.09c0,8.55-.07,17.11,0,25.66.07,6.57-5,12.88-10.94,14.17-7,1.53-12.85-.14-16.86-6.81-1.55-2.59-1.64-5.32-1.64-8.14q0-21.54,0-43.09c0-1,.13-2.11.11-3.16-.11-4.53,4.41-10,8.5-11.19C235,115.88,240.13,116.93,245,123.65Z"/><path class="cls-7" d="M110.41,397.14a131.49,131.49,0,0,1-26.86-2.64,72.77,72.77,0,0,1-11-2.74,115.05,115.05,0,0,1-29.32-15.58A119,119,0,0,1,20.59,354,100.19,100.19,0,0,1,8.36,334.22c-2.46-5.35-4.86-10.83-6-16.55A117,117,0,0,1,1.78,274a115,115,0,0,1,6.36-21.84,72.69,72.69,0,0,1,5.53-11.37,150.68,150.68,0,0,1,9.47-14.22,110.15,110.15,0,0,1,15-15.62A102.06,102.06,0,0,1,63,195.07c18.85-8.42,38.36-14.44,59.33-13.74,10.76.36,21,3,30.07,9,9.58,6.31,14.31,15.37,13.34,26.79A27.44,27.44,0,0,1,154,237.64c-3.63,2.59-8,3.6-12.28,4.49a60.73,60.73,0,0,1-22.68.54c-9-1.55-17.5.45-25.75,3.56C76.17,252.66,65.54,268,65,286.49c-.45,15.18,5.11,28.11,15.18,39.13,9,9.89,20.56,12.73,33.51,10.67,9.53-1.52,18.18-5.4,26.51-10.07,3.49-2,6.83-4.21,10.31-6.21,7.4-4.27,15.32-6.59,23.93-5.67,10.39,1.12,20.78,9.6,23.1,20.65,1.83,8.71-.24,16.65-4.55,24.12-4.2,7.27-10.34,12.71-17,17.74a89.43,89.43,0,0,1-26.36,13.58A133.19,133.19,0,0,1,110.41,397.14Z"/><path class="cls-5" d="M216.64,244a7.73,7.73,0,0,1,5.86-8c3.44-.91,5.81.41,7.82,4.56-4.13,1.52-8.22,3.05-12.33,4.55C217,245.53,216.7,244.94,216.64,244ZM266,258.28c-.61-5.43-4.29-9.11-9.74-9.21a14,14,0,0,0-8.43,2.75c-4,2.84-8,5.84-12.88,7.17-4.42,1.2-8.81,2-13.42-.65.92-.45,1.46-.8,2-1,8.63-3.17,17.25-6.35,25.89-9.45a32.58,32.58,0,0,0,6-2.81,7.19,7.19,0,0,0,3.48-7.85,21.94,21.94,0,0,0-6.7-12.2c-6.52-5.87-14.1-9.5-23-9.71-13.26-.29-24.48,4.19-32.7,15a30.36,30.36,0,0,0-5.69,11.33,37.48,37.48,0,0,0-.35,15.08,32.24,32.24,0,0,0,9.78,18c8.73,8.32,19.69,10.12,31,8.39a57.42,57.42,0,0,0,23.11-9.37c4.07-2.74,8.44-5.46,10.72-10.31a9.54,9.54,0,0,0,.5-1.51c.11-.42.15-.64.29-1.33a7.68,7.68,0,0,0,.1-2.29"/><path class="cls-5" d="M156,315.78c-7.18,0-12.76-4.68-14.25-12-1.72-8.36-3.39-16.74-5.08-25.11-1.18-5.89-2.16-11.83-3.57-17.66-1.79-7.35,3-17.84,14.9-18.05,3.5-.06,6.89.87,9.35,3.75a13.15,13.15,0,0,0,1.12,1.12c1.11,1,1.88.86,2.24-.59a13,13,0,0,1,1.78-3.95c2.92-4.55,7.5-5.8,12.45-5.55a13.35,13.35,0,0,1,13.12,14c-.14,4.2-2.59,7.19-5.63,9.8s-6.6,4.4-9.85,6.68c-4.63,3.25-6.27,7.43-5.28,12.81s1.86,11,3.21,16.42C172.45,305.18,166.44,316.34,156,315.78Z"/><path class="cls-5" d="M661.93,275.8c-5.58-.65-11-1.69-16.09-4.35-14.08-7.42-20.92-19.31-20-34.93.93-15.36,9.25-26.36,23.43-32.24,13.24-5.49,26.45-5.12,38.75,3,20.55,13.6,21.84,43,2.69,58.72a41.26,41.26,0,0,1-17.19,8.42,3.66,3.66,0,0,0-1.78.59Zm13.42-37.1a12,12,0,0,0-4.94-10,9.51,9.51,0,0,0-14.18,2.88,13.86,13.86,0,0,0,1.5,15.11,10.08,10.08,0,0,0,7.28,4C671.18,250.92,675.52,246.25,675.35,238.7Z"/><path class="cls-5" d="M620.74,176.34a14.75,14.75,0,0,0-17.62,3.47,15.72,15.72,0,0,0-3.48,7.68c-.67,3.41-.83,6.91-2.06,10.2a82.67,82.67,0,0,1-1.43,8.87,23.2,23.2,0,0,1-4.08-2.51,6.74,6.74,0,0,1-2.69-.89,27.82,27.82,0,0,0-8.15-2.23c-13.81-1.44-24.9,3.42-32.89,14.82A34.14,34.14,0,0,0,542,234a48.57,48.57,0,0,0,1.94,17.93,39.57,39.57,0,0,0,12.94,16.85c1.41,1,3.21,1.35,4.42,2.68,3,.33,5.69,1.88,8.61,2.54a30,30,0,0,0,11.23,1c3.25-.32,5.88-1.61,6.78-5.42,1.4,1.7,2.52,3.21,3.8,4.59a16.17,16.17,0,0,0,4.18,3.22,14.39,14.39,0,0,0,1.94.84c.44.14.89.26,1.32.37a13.26,13.26,0,0,0,8.46-1,18.36,18.36,0,0,0,1.87-1c3.54-2.26,5.29-5.66,6-9.64.86-4.71,1.69-9.43,2.53-14.16s1.66-9.44,2.48-14.17q2-11.53,4-23.05t4.05-23A15.06,15.06,0,0,0,620.74,176.34ZM579.25,249.8a9.92,9.92,0,0,1-8-8.75,14.9,14.9,0,0,1,2.1-10c1.94-3.09,4.65-5,8.42-4.58s7.07,2.08,8.67,5.94a11.89,11.89,0,0,1,.95,5.25,12.15,12.15,0,0,1-1.81,6.63C587.27,248.68,583.65,250.58,579.25,249.8Z"/></g></g></svg>