<?xml version="1.0" encoding="utf-8"?>
<!-- Generator: Adobe Illustrator 25.0.1, SVG Export Plug-In . SVG Version: 6.00 Build 0)  -->
<svg version="1.1" id="Capa_1" xmlns="http://www.w3.org/2000/svg" xmlns:xlink="http://www.w3.org/1999/xlink" x="0px" y="0px"
	 viewBox="0 0 666.6 495.1" style="enable-background:new 0 0 666.6 495.1;" xml:space="preserve">
<style type="text/css">
	.st0{fill:#FFB800;}
	.st1{fill:#D6001C;}
	.st2{fill:#0E4174;}
	.st3{fill:#E10098;}
	.st4{fill:#E66C28;}
	.st5{fill:#F0A410;}
	.st6{fill:#FFFFFF;}
	.st7{fill:#1A1A1A;}
	.st8{fill:#00A3AD;}
	.st9{fill:#0DA7B2;stroke:#FFFFFF;stroke-width:3;stroke-miterlimit:10;}
	.st10{fill:#0DA7B2;}
	.st11{enable-background:new    ;}
</style>
<g>
	<path class="st0" d="M648.5,240.3c-0.5,2-0.6,4.1-1.3,6.1c-0.4,0.3-0.7,0.7-1,1.1c-0.7,1.1-1.2,2.2-1.7,3.4
		c-5.7-2.4-11.3-5.1-17.2-6.9c0.7-3.4-0.5-6.8-3-9.2c-0.3-0.2-0.5-0.6-0.6-1c2.5-1.5,1.7-8.1,3.1-10.7c1.9-3.7,5.5-3.7,6.4-7.3
		c0,0,0-0.1,0-0.1c0.1-0.3,0.1-0.5,0.1-0.8c3.2,2,6.1,4.4,8.6,7.1c3.7,4.1,5.8,9.4,6.1,15c0,0.5,0,1,0.1,1.5
		C648.2,239.2,648.3,239.8,648.5,240.3z"/>
	<path class="st1" d="M633.5,215.1c-0.7,4.4-2,8.6-4,12.6c-1.3,2.6-3.2,4.7-5.6,6.3c-3.1,1.7-6.6,2.3-10.1,1.7
		c-1.8-0.3-3.1-1.7-3.3-3.5c-0.3-1.5,0.1-3.1,1.2-4.3c2.2-2.5,4.2-5.1,5-8.5c1.3-2.8,1.7-5.9,1.2-8.9l0.8-4.5
		c3.3-2.9,7.5-2.6,11-1.2c3.2,1.3,4.2,3.6,4.3,7C633.8,212.9,633.7,214,633.5,215.1z"/>
	<path class="st1" d="M627.3,244.1c6,1.7,11.6,4.4,17.2,6.9c4.2,4.5,2.7,10-3.2,11.6c-3.6,0.9-7.4,0.7-10.8-0.6
		c-1.1-0.5-2.2-0.8-3.4-1.1c-3.2-1.9-6.2-4.2-8.8-6.9c-1.9-2.8-2.4-3.9-1.9-7c0.5-1.5,1.5-2.7,2.8-3.5c1.4-0.7,3-0.8,4.5-0.3
		C625.1,243.5,626,243.7,627.3,244.1z"/>
	<path class="st0" d="M618.4,254.1c2.6,2.7,5.5,5,8.8,6.9c-0.4,0.3-0.8,0.4-1.3,0.5c-6,1.3-12.2,2.2-18.2,3.3
		c-2.1,0.3-4.1,0.8-6,1.5c-1.4-1-3.1-1.2-4.7-0.7c-1.8,0.4-3.5,1.2-5,2.2c-1.7,1.2-3.4,1.2-5.5,0.8c0.7-2.4,2.4-3,4.3-4.1
		c2.8-1.8,6.1-2.5,9.2-3.5c5.3-1.5,10.6-3,15.5-5.6C616.5,255,617.2,254.1,618.4,254.1z"/>
	<path class="st2" d="M537.9,198.4c-1.2,4.8-2.5,9.4-5.8,13.2c-0.9,1.1-1.9,2.2-2.8,3.2c-0.2,0.2-0.3,0.4-0.5,0.6
		c-1.3,1.3-2.9,2.2-4.6,2.8c-2,0.6-3.9,1.5-5.8,2.2c-1.7,2.5-2.6,5-1.2,8c0.6,1.5,1.2,3.1,1.6,4.7c0.6,1.8,0.9,3.7,0.7,5.6
		c0,0.4,0,0.7-0.1,1c-0.1,1.5-0.5,2.9-1,4.3c-0.2,0.4-0.3,0.8-0.5,1.2s-0.4,0.7-0.6,1s-0.4,0.7-0.7,1c-0.1,0.2-0.2,0.3-0.4,0.5
		c-0.1,0.1-0.2,0.3-0.4,0.4s-0.3,0.3-0.4,0.4s-0.5,0.6-0.8,0.8s-0.6,0.5-0.9,0.8s-0.6,0.4-0.9,0.7l-0.1,0.1c-0.3,0.2-0.6,0.4-1,0.6
		s-0.7,0.4-1.1,0.6s-0.8,0.4-1.2,0.5c-0.8,0.3-1.6,0.6-2.4,0.9c-0.8,0.2-1.7,0.4-2.6,0.5c-1.8,0.4-3.7-0.4-4.7-2
		c-2.8-3.7-7.1-3.3-9.2,0.8c-1.2,2.4-3.3,4.2-5.8,5c-3.5,1.3-7.3,1.8-11.1,1.4c-1.8-0.1-3.4-0.8-4.8-2c-1.1-1.1-2.1-2.2-2.9-3.5
		c-0.6-1-1.1-2-1.5-2.8c-2.1-4.3-2.4-5.9-2.4-5.9c-0.2-1.8-0.1-3.5,0.4-5.2c-2.7,1.1-5.6,1.9-8.5,2.3l-1.1,0.1l-0.8,0.1
		c-4.7,0.4-8.6-0.1-11-1.1c-0.3-0.2-0.7-0.4-1-0.7c-0.3-0.2-0.6-0.5-0.9-0.7s-0.6-0.5-0.9-0.7c-0.6-0.5-1.1-1.1-1.7-1.6
		c-0.3-0.3-0.6-0.7-0.9-1c-0.1-0.1-0.2-0.2-0.3-0.3c-0.2-0.3-0.5-0.6-0.7-0.9l-0.1-0.2c-0.3-0.4-0.6-0.8-0.8-1.3s-0.5-0.8-0.8-1.3
		l-0.1-0.2c-0.2-0.4-0.4-0.7-0.6-1.1s-0.5-1-0.7-1.5c-0.1-0.3-0.2-0.5-0.3-0.8c-0.1-0.2-0.1-0.3-0.2-0.5c-0.1-0.3-0.2-0.6-0.3-0.9
		s-0.3-0.8-0.4-1.2c-0.8-2.6-1.8-8.3-0.5-10.8c3.5-6.5,12.5-11.2,12.5-11.2s-6.6-19.1-2-25.8c4.5-6.5,11-11.1,11.1-11.4
		c-5.7-2.1-7.2-11.9-5.9-17.3c0.2-1,0.6-1.9,1-2.8c0.2-0.4,0.5-0.9,0.7-1.3s0.6-0.8,0.9-1.2s0.6-0.8,1-1.1c1-1.1,2.1-2.1,3.3-3
		l1-0.8c3.8-2.8,8-4.8,12.6-6h0.1l15.5-2.9c0-0.8,0.1-1.7,0.3-2.5c0-0.3,0.1-0.6,0.2-1s0.2-1,0.3-1.5c0-0.2,0.1-0.3,0.1-0.5
		s0.1-0.5,0.2-0.7c0.2-0.5,0.4-1.1,0.6-1.7s0.4-0.9,0.6-1.4c0.3-0.6,0.6-1.2,0.9-1.9c0.2-0.4,0.4-0.8,0.6-1.2c0.3-0.6,0.6-1.2,1-1.8
		c0.2-0.4,0.5-0.7,0.8-1.1c0.1-0.2,0.3-0.4,0.5-0.5c0.3-0.3,0.6-0.6,1-0.9c0.6-0.5,1.2-0.9,1.9-1.2c2.4-1.2,5.1-1.7,7.8-1.2
		c0.3,0.1,0.7,0.1,1,0.2s0.7,0.2,1,0.3c1.4,0.5,2.8,1.1,4,2c0.8,0.6,1.5,1.2,2.2,1.9c3,2.8,4.9,6.6,5.6,10.6c0,0.2,0,0.5,0.1,0.7
		c0.3,1.7,0.4,1.8,2,1.2c1.9-0.8,3.9-1.4,6-1.7c0.7-0.1,1.3-0.2,2-0.2c4-0.3,8,1.3,10.6,4.3c0.2,0.2,2,1.6,3.4,6.9c0,0,0,0.1,0,0.2
		c0.2,1,0.4,2,0.5,3.1c0,0,0,0.1,0,0.1c0.1,1,0.2,2.1,0.2,3.1c0,5.1-1.5,10.1-4.4,14.3c-0.2,0.3-0.4,0.6-0.6,0.9
		c-0.4,0.6-0.9,1.2-1.4,1.8s-1,1.1-1.4,1.6c-2,2.8-1.8,5,0.2,7.9c3.5,5,7.1,10,8.7,16.1C538.8,190.7,538.8,194.6,537.9,198.4z"/>
	<path class="st3" d="M523.6,246.1c2.6-6,1.8-11.9-0.3-17.7c-1.1-3.1-1.7-3.3,2-4.6c1.4-0.4,2.7-1.2,3.8-2.1
		c2.2-1.9,4.8-2.3,7.5-2.5c4.9-0.4,9.8-0.9,14.8-1.3c3-0.2,6.1-0.3,9.1-0.5c6.9-0.4,13.9-0.6,20.8-0.5c8,0.1,16,0.5,23.9,0.9
		c3.8,0.2,7.6,0.9,11.4,1.4c-0.8,3.4-2.8,6-5,8.5c-4-1.5-8.2-1.2-12.3-0.7c-8.5,1-16.9,2.7-25.1,5c-6.1,1.9-12.1,3.7-18.2,5.5
		c-9.1,2.8-18.1,5.8-27.4,8C526.9,246.1,525.3,246.3,523.6,246.1z"/>
	<path class="st3" d="M617.7,210.5c-2.6-0.9-4.8-2.5-7.3-3.7c-8.6-4.1-17.4-7.5-26.3-11c-13.6-5.2-26.3-12.5-37.6-21.6
		c-3.3-2.7-6.8-5-10.5-7.1c-1.6-0.9-1.7-1.3-0.5-2.8c4.8-6,6.6-13,6.7-20.5c0.1-4-0.1-8-0.6-11.9c2.3,2,4.2,4.5,5.6,7.4
		c3.3,6.1,7.5,11.6,11.7,17c2.9,3.8,5.7,7.7,8.5,11.5c4,5.2,8.6,9.9,13.6,14.1c5.8,4.9,12,9.4,18.5,13.5c5.7,3.6,11.6,6.9,17.5,10.3
		c0.5,0.3,1,0.4,1.6,0.5L617.7,210.5z"/>
	<path class="st4" d="M460.2,169.8c0,0-12.6-8.5-14.2-13.6c-0.6-2.1-0.8-4.3-0.4-6.4c0.5-1.9,1.4-3.7,2.6-5.3c1.2-1.6,2.7-3,4.3-4.2
		c2.7-2.1,5.6-3.8,8.6-5.2c-2.1-1.1-4.2-2.2-6.3-3.5c-1.5,0.8-3,1.7-4.5,2.7c-3,2-5.6,3.8-8,7.1c-1.4,1.9-2.5,3.9-3.2,6.2
		c-0.7,2-1,4.2-0.8,6.3c0.3,3.3,2.1,5.8,3.8,8.2c1.4,1.9,3.1,3.7,4.9,5.2c-1.2,0.4-10,3.1-13.5,11.9c-3.1,7.8-0.8,17,5.9,23.1
		c-2.3,0.4-4.5,1.2-6.4,2.5c-6.2,3.9-7.9,10.4-8.4,12.2c-0.6,1.6-0.9,3.3-1.1,5c-0.2,2.3,0,4.7,0.5,6.9c0.8,2.4,2,4.7,3.4,6.8
		c2.2,4,5.4,7.4,9.1,10l0,0c2.3,1.3,4.8,2.2,7.4,2.7h0.2l7.6-6.3c-4.7,0.4-8.6-0.1-11-1.1c-0.3-0.2-0.7-0.4-1-0.7
		c-0.3-0.2-0.6-0.5-0.9-0.7s-0.6-0.5-0.9-0.7c-0.6-0.5-1.1-1.1-1.7-1.6c-0.3-0.3-0.6-0.7-0.9-1c-0.1-0.1-0.2-0.2-0.3-0.3
		c-0.2-0.3-0.5-0.6-0.7-0.9l-0.1-0.2c-0.3-0.4-0.6-0.8-0.8-1.3s-0.5-0.8-0.8-1.3l-0.1-0.2c-0.2-0.4-0.4-0.7-0.6-1.1s-0.5-1-0.7-1.5
		c-0.1-0.3-0.2-0.5-0.3-0.8c-0.1-0.2-0.1-0.3-0.2-0.5c-0.1-0.3-0.2-0.6-0.3-0.9s-0.3-0.8-0.4-1.2c-0.5-1.5-0.6-3.1-0.3-4.6
		c0.2-1,0.6-1.9,1.2-2.7c0.9-3,2.6-5.8,4.9-8c3.2-3,7.4-4.7,11.7-5c-7.1-6.9-8.8-17.2-4.5-25C448.2,172,460.2,169.8,460.2,169.8z"/>
	<path class="st0" d="M616.5,219.4c-2.4-0.3-4.7-0.7-7.1-1c-1-0.1-1.9-0.2-2.8-0.3l-1.4-0.1l-6-0.3c-6-0.3-12-0.6-17.9-0.6
		c-2.4,0-4.9,0-7.3,0c-1.5,0-3,0.1-4.5,0.1s-3,0.1-4.5,0.2l-4.5,0.2l-2.3,0.1c-2.3,0.1-4.5,0.2-6.8,0.4c-4.9,0.4-9.8,0.9-14.8,1.3
		c-2.7,0.2-5.4,0.5-7.5,2.5c-0.1,0.1-0.3,0.2-0.4,0.4c-0.3,0.2-0.6,0.4-0.9,0.6c-0.6,0.4-1.3,0.7-2,0.9l-0.5,0.2
		c-0.9,0.2-1.7,0.6-2.5,1.2c-0.7,0.7-0.2,1.5,0.5,3.4c2.1,5.9,3,11.8,0.3,17.7c-0.6,0.3-1,0.8-1.2,1.4c-2.8,5.8-7.8,8.8-13.6,10.8
		c-2.5,0.8-5.2,1.1-7.8,0.8c-2.1,0-4-1-5.2-2.8c-0.6-1-1-0.8-1.5,0.1c-2.4,3.9-6.1,5.8-10.4,7.1c-4.5,1.3-9.3,1.5-13.9,0.6
		c-3.4-0.5-5.8-2.8-7.8-5.5c-0.2-0.3-1.7-2.6-2.7-4.5l-0.2-0.4c-0.7-1.5-2.1-5.3-2.1-5.3c-2.2,0.6-4.5,0.8-6.8,0.6
		c-1.3-0.1-4.7-0.4-6.1-0.6l7.6-6.3c-4.7,0.4-8.6-0.1-11-1.1c3.6,1,7.3,1.3,11.1,1.1l0.8-0.1l1.1-0.1c2.9-0.4,5.8-1.1,8.5-2.3
		c-0.5,1.7-0.6,3.5-0.4,5.2c0,0,0.2,1.6,2.4,5.9c0.4,0.8,0.9,1.8,1.5,2.8c0.9,1.2,1.8,2.4,2.9,3.5c1.3,1.2,3,1.9,4.8,2
		c3.7,0.4,7.5-0.1,11.1-1.4c2.5-0.9,4.6-2.7,5.8-5.1c2.2-4.1,6.5-4.5,9.2-0.8c1,1.6,2.9,2.4,4.7,2c0.9-0.1,1.7-0.3,2.6-0.5
		c0.8-0.2,1.6-0.5,2.4-0.9c0.4-0.1,0.8-0.3,1.2-0.5s0.7-0.4,1.1-0.6s0.7-0.4,1-0.6l0.1-0.1c0.3-0.2,0.6-0.4,0.9-0.7s0.6-0.5,0.9-0.8
		s0.6-0.5,0.8-0.8c0.1-0.1,0.3-0.3,0.4-0.4c0.1-0.1,0.3-0.3,0.4-0.4c0.1-0.1,0.2-0.3,0.4-0.5c0.2-0.3,0.5-0.6,0.7-1
		c0.2-0.3,0.4-0.7,0.6-1c0.2-0.4,0.4-0.8,0.5-1.2c0.5-1.4,0.9-2.8,1-4.3c0-0.3,0.1-0.7,0.1-1c0.2-1.9-0.1-3.8-0.7-5.6
		c-0.4-1.6-1-3.2-1.6-4.7c-1.3-3-0.5-5.5,1.2-8c1.9-0.7,3.8-1.6,5.8-2.2c1.7-0.5,3.3-1.5,4.6-2.8c0.2-0.2,0.4-0.4,0.5-0.6
		c1-1.1,1.9-2.1,2.8-3.2c3.3-3.8,4.6-8.5,5.8-13.2c1-3.7,1-7.7,0.1-11.4c-1.5-6.1-5.1-11.1-8.7-16.1c-2-2.8-2.2-5-0.2-7.9
		c0.4-0.6,0.9-1.1,1.4-1.6s1-1.2,1.4-1.8c0.2-0.3,0.4-0.6,0.6-0.9c2.7-4.1,4.2-8.8,4.2-13.7c0-0.1,0-0.3,0-0.4
		c0.1-1.1,0.1-2.2,0-3.2c0,0,0-0.1,0-0.1c-0.1-1-0.3-2.1-0.5-3.1c0-0.1,0-0.1,0-0.2c-0.6-2.2-1.7-4.2-3.1-6l0,0
		c-0.1-0.3-0.3-0.6-0.5-0.8c-2.5-3-6.4-4.6-10.3-4.3c-0.7,0-1.3,0.1-2,0.2c-2.1,0.4-4.1,0.9-6,1.7c-1.5,0.6-1.7,0.4-2-1.2
		c0-0.2,0-0.5-0.1-0.7c-0.6-4.1-2.6-7.8-5.6-10.7c-0.7-0.7-1.4-1.3-2.2-1.8c-1.2-0.9-2.6-1.5-4-2c-0.3-0.1-0.7-0.2-1-0.3
		s-0.7-0.2-1-0.2c-2.7-0.4-5.4,0-7.8,1.2c-0.7,0.3-1.3,0.7-1.9,1.2c-0.4,0.3-0.7,0.6-1,0.9c-0.2,0.2-0.3,0.3-0.5,0.5
		c-0.3,0.3-0.5,0.7-0.8,1.1c-0.4,0.6-0.7,1.1-1,1.8c-0.2,0.4-0.4,0.8-0.6,1.2c-0.3,0.6-0.6,1.2-0.9,1.9c-0.2,0.5-0.4,0.9-0.6,1.4
		s-0.4,1.1-0.6,1.7c-0.1,0.2-0.1,0.5-0.2,0.7s-0.1,0.4-0.1,0.5c-0.1,0.5-0.2,1-0.3,1.5s-0.1,0.7-0.2,1c-0.1,0.8-0.2,1.6-0.3,2.5
		l-15.7,2.9H466c-1.7,0.4-3.3,0.9-4.9,1.6c-2.1-1.1-4.2-2.2-6.3-3.5c1.3-0.7,2.7-1.4,4.3-2.1c4.3-1.6,8.9-2.7,13.4-3.3
		c1.6-0.2,3-0.3,4-0.4c0-0.2,0-0.3,0-0.5c0-0.4,0-0.9,0-1.5c0-0.9,0-2,0.1-3.2c0-1.1,0.2-2.3,0.5-3.4c1-3.6,3.4-6.7,6.6-8.6
		c2-1,4.1-1.6,6.3-1.9c4.2-0.8,8.2-1.1,12.5,0c5.7,1.6,9.1,5.2,11.2,10.5c0.5,1.6,1.1,3.2,1.8,4.8c2.9-1.9,6-1.7,9-1.1
		c3,0.6,6,1.3,9,2.3c2.7,0.8,4.9,2.7,6.2,5.2c0.5,1.2,1.1,2.3,2,3.2c0.4,4,0.6,8,0.6,11.9c-0.1,7.6-1.9,14.5-6.7,20.5
		c-1.1,1.4-1,1.9,0.5,2.8c0.9,0.5,1.8,1.1,2.8,1.6c2.7,1.6,5.3,3.5,7.8,5.5c6.3,5.1,13.2,9.7,20.3,13.6c1.6,0.9,3.2,1.7,4.8,2.5
		c2.4,1.2,4.9,2.4,7.4,3.4c1.7,0.7,3.4,1.4,5.1,2.1l6.6,2.6l3.3,1.3c1.9,0.8,3.8,1.5,5.6,2.3c3.6,1.5,7.2,3.1,10.7,4.8
		c2.5,1.1,4.7,2.7,7.3,3.6C618.3,213.5,617.8,216.6,616.5,219.4z"/>
	<path class="st5" d="M242.9,188.2c-0.1,0.7-0.3,1.5-0.4,2.4c-0.6-0.5-1.2-0.9-1.8-1.3c0.4,0.2,0.8,0.4,1.2,0.7c0.1,0.1,0.3,0,0.6,0
		C242.6,189.4,242.7,188.8,242.9,188.2z"/>
	<path class="st5" d="M246.4,209.4c-0.5,0.4-0.9,0.8-1.2,1.3c0.3-0.6,0.6-1.1,0.9-1.7C246.2,209.1,246.3,209.2,246.4,209.4z"/>
	<path class="st5" d="M240.7,189.3L240.7,189.3z"/>
	<path class="st5" d="M245.3,210.6c-0.1,0.3-0.3,0.5-0.4,0.6C245,211.1,245.1,210.9,245.3,210.6z"/>
	<path class="st6" d="M296.9,208.5c-0.3,2.5-1.5,4.7-3.4,6.4c-2.9,2.8-6.5,4.2-10.2,5.2c-5.2,1.6-10.6,2.2-16.1,1.9
		c-5.1-0.4-9.9-2.3-13.9-5.3c-1.3-1-2.6-2-3.8-3.2l0,0l-0.1-0.1l-0.3-0.3c-0.2-0.2-0.4-0.4-0.6-0.7l-0.3-0.4l0,0
		c-0.1-0.1-0.1-0.2-0.2-0.3c-0.1-0.1-0.1-0.2-0.2-0.3c-0.4-0.6-0.9-1.3-1.4-2.1h-0.1c-3.9-6.3-5.2-13.9-3.6-21.2c0,0,0,0,0-0.1l0,0
		c0.9-3.1,2.2-6.1,4-8.8c3.6-5.3,9-9.2,15.2-11c5.4-1.7,11.1-2.4,16.8-1.9c2.7,0.2,5.3,1.1,7.6,2.6c3.2,2.2,4.8,6.2,4,10.1
		c-1,4.1-4.6,7-8.8,7.1c-2.3,0.1-4.6,0-7,0c-1.7,0-3.3,0.3-4.9,0.8c-4.1,1-6.6,5.1-5.6,9.2c0.8,3.5,4,5.9,7.6,5.8
		c2.2,0,4.4-0.6,6.4-1.7c2.2-1.1,4.5-1.8,6.9-2.3C290.9,196.8,297.7,200.8,296.9,208.5z"/>
	<path class="st6" d="M246.2,209c-0.3,0.6-0.6,1.1-0.9,1.7c-0.1,0.2-0.3,0.4-0.4,0.6l-0.1,0.1l-0.1,0.1c-0.2,0.3-0.4,0.7-0.6,1
		c-2.6,3.2-6,5.7-9.8,7.3c-4,1.8-8.4,2.4-12.7,3.2c-3.8,0.7-7.8,0.4-11.4-0.9c-1.5-0.6-3-0.9-4.4-1.6c-3.9-1.5-6-5.6-5-9.6
		c0.2-0.6,0.3-1.3,0.6-1.9c0.3-0.6,0.7-1.2,1.2-1.8c0.5-0.6,1.2-1.1,1.9-1.5c2.1-1.1,4.5-1.6,6.9-1.5c2.5,0.2,5.1,0.4,7.6,0.9
		c2.1,0.2,4.3,0.5,6.3-0.6c0.5-0.3,0.9-0.5,1-1.1s-0.5-0.9-1-1.2c-0.9-0.6-2-0.9-3.1-1c-3.6-0.2-7.2-0.5-10.8-0.8
		c-3.4-0.1-6.6-1.3-9.2-3.4c-3-2.4-4.9-6-5.1-9.9c-0.5-7.9,3.5-13,9.8-16.7c7-4.2,14.8-5.4,22.9-4.8c2.6,0.2,5.2,0.9,7.5,2.1
		c5,2.5,4.4,9.4,0.7,11.9c-1.9,1.3-4.2,2-6.5,1.9c-2.8-0.1-5.6-0.1-8.4-0.2c-1.2,0-2.4,0.2-3.5,0.5c-0.7,0.1-1.3,0.7-1.4,1.5
		c0,0.8,0.7,1.2,1.4,1.4c1.9,0.5,3.9,0.8,5.9,0.8c5.3,0.4,10.4,1.2,15.1,3.7l0,0c0.6,0.4,1.2,0.8,1.8,1.3c2.1,1.7,3.6,3.9,4.6,6.4
		C248.3,201,248.1,205.3,246.2,209z"/>
	<path class="st6" d="M358.3,207.1c0.8,5.1-1.8,8.4-5.5,11.2c-7.2,5.6-15.9,8.8-25,9.3c-5.1,0.3-10.1-0.1-14.7-2.4
		c-4.3-2-8-5.1-10.7-9c-2-2.8-3.5-5.9-4.4-9.2c-0.7-3.5-0.9-7.1-0.5-10.7c0.9-6.5,4.2-12.5,9.2-16.8c3.9-3.4,8.7-5.7,13.8-6.6
		c7.4-1.8,15.1-0.5,21.6,3.5c5.1,3.1,9.4,7.1,11,13.2c0.2,0.9,0.4,1.9,0.4,2.8c0.2,3.5-1.3,5-4.2,6.2c-2.8,1.1-5.6,2.1-8.5,2.8
		c-4.1,1.2-8.2,2.4-12.3,3.7c-1.9,0.6-3.9,0.8-5.7,1.9c1.2,1.1,2.8,1.8,4.4,1.8c4.9,0.2,9.8-1.2,13.9-3.9c1.3-0.8,2.6-1.7,4-2.4
		c2.8-1.5,6.2-1.7,9.1-0.4c1.4,0.6,1.6,0.5,1.5-1.1c-0.4-9.7-0.8-19.3-1.3-29c-0.1-1.7-0.1-3.4-0.1-5c-0.1-4.6,3.7-8.6,8.5-9.1
		c3.4-0.4,6.4,0.3,8.6,3c0.8,1,1.4,1,2.6,0.2c4.2-2.9,9.2-4.3,14.2-4.2c7,0.3,13,2.9,17,9c1.4,2.1,2.2,4.6,2.4,7.2
		c0.4,8.3,0.7,16.6,1.1,24.9c0.2,4.5-2.4,8.7-6.6,10.4c-4.9,2-10.6,0.2-13.4-4.3c-0.8-1.1-1.2-2.4-1.2-3.7
		c-0.2-6.6-0.5-13.1-0.8-19.6c-0.1-2.1-0.7-4-2.8-5.3c-1.4-1-3.3-1.2-4.9-0.4c-1.8,0.7-2.9,2.4-2.9,4.3c0,1.8,0,3.5,0.1,5.3
		c0.2,4.8,0.4,9.6,0.6,14.4c0.4,4.5-2.2,8.7-6.4,10.5c-3.5,1.5-7.5,1.1-10.6-1C359.2,208.2,359.3,207.4,358.3,207.1z M319.6,196.4
		c3.4-1,6.6-2,9.8-2.9c0.9-0.3,1.2-0.6,0.7-1.5c-1-2.3-3.5-3.5-5.9-2.9C320.8,189.7,319,192.3,319.6,196.4L319.6,196.4z"/>
	<path class="st1" d="M135.6,160.8c-4.7,0.3-9.3-1.1-13-3.9c-5.2-3.8-8.7-8.6-9.6-15.2c-2.7-19-5.4-37.9-8.2-56.9
		c-2.2-14.9-4.3-29.9-6.5-44.8c-0.6-4-0.9-8,0.4-11.8c3.1-8.9,9.1-14.4,18.7-16.2c10.5-2,21.2,4.5,25.2,12.9c1.3,2.9,2.2,6,2.5,9.1
		c2.7,18.7,5.4,37.5,8.1,56.2c2.1,14.5,4.1,28.9,6.3,43.4c1.7,11.4-4.8,21.2-14.4,25.5C142.1,160.5,138.8,161.1,135.6,160.8z"/>
	<path class="st6" d="M185.4,105.2c4.1-3.2,9.2-4.9,14.4-5c6.1-0.2,11.6,1.4,16,5.6c3.7,3.3,5.9,7.9,5.9,12.9
		c0.1,8.7,0.1,17.4,0,26.1c0,6.2-5,11.3-11.2,11.3c-0.4,0-0.7,0-1.1,0c-4.5-0.4-8.2-3-9.6-7c-0.4-1.4-0.6-2.9-0.5-4.4
		c0-6.5,0-12.9,0-19.4c0.1-2.6-1.4-5.1-3.8-6.2c-2.4-1.3-6.4,0.4-7.2,3.5c-0.2,1-0.3,2.1-0.3,3.1c0,6.5-0.1,13,0,19.4
		c0,5-3.8,9.7-8.3,10.7c-5.3,1.2-9.7-0.1-12.8-5.1c-1-1.9-1.4-4-1.2-6.2v-32.6c0-0.8,0.1-1.6,0.1-2.4c-0.1-3.4,3.3-7.6,6.4-8.5
		C177.8,99.3,181.7,100.1,185.4,105.2z"/>
	<path class="st0" d="M83.5,312.1c-6.8,0-13.6-0.6-20.3-2c-2.8-0.5-5.6-1.2-8.3-2.1c-7.9-2.8-15.4-6.8-22.2-11.8
		c-6.4-4.8-12.2-10.4-17.2-16.8c-3.7-4.6-6.8-9.7-9.2-15c-2-4-3.5-8.2-4.5-12.5c-2.2-10.9-2.4-22.1-0.5-33.1
		c1.1-5.7,2.7-11.2,4.8-16.5c1.1-3,2.5-5.9,4.2-8.6c2.2-3.7,4.6-7.3,7.2-10.8c3.4-4.3,7.2-8.3,11.3-11.8c5.7-4.9,12-8.9,18.8-12
		c14.3-6.4,29-10.9,44.9-10.4c8.1,0.1,16,2.4,22.8,6.8c7.2,4.8,10.8,11.6,10.1,20.3c-0.5,6.3-3.7,12-8.9,15.6c-2.7,2-6,2.7-9.3,3.4
		c-5.6,1.2-11.5,1.3-17.2,0.4c-6.8-1.2-13.2,0.3-19.5,2.7c-12.9,4.9-21,16.5-21.4,30.5c-0.3,11.5,3.8,21.3,11.5,29.6
		c6.8,7.5,15.6,9.6,25.4,8.1c7.2-1.1,13.8-4.1,20-7.6c2.7-1.5,5.2-3.2,7.8-4.7c5.6-3.2,11.6-5,18.1-4.3c7.9,0.9,15.7,7.3,17.5,15.6
		c1.4,6.6-0.2,12.6-3.4,18.3c-3.2,5.5-7.8,9.6-12.9,13.4c-6,4.5-12.8,8-20,10.3C103.6,310.2,93.6,311.9,83.5,312.1z"/>
	<path class="st6" d="M163.9,196.3c-0.2-2.8,1.7-5.3,4.4-6c2.6-0.7,4.4,0.3,5.9,3.4c-3.1,1.1-6.2,2.3-9.3,3.4
		C164.2,197.4,164,197,163.9,196.3z M201.2,207.1c-0.5-4.1-3.2-6.9-7.4-7c-2.3,0-4.5,0.7-6.4,2.1c-3.1,2.1-6,4.4-9.7,5.4
		c-3.4,0.9-6.7,1.5-10.2-0.5c0.7-0.3,1.1-0.6,1.5-0.8c6.5-2.4,13.1-4.8,19.6-7.1c1.6-0.6,3.1-1.3,4.5-2.1c2.1-1.2,3.2-3.6,2.6-5.9
		c-0.6-3.5-2.4-6.8-5.1-9.2c-4.9-4.4-10.7-7.2-17.4-7.4c-10-0.2-18.5,3.2-24.7,11.3c-2,2.5-3.5,5.4-4.3,8.6c-0.9,3.7-1,7.6-0.3,11.4
		c0.9,5.2,3.5,10,7.4,13.6c6.6,6.3,14.9,7.7,23.5,6.4c6.3-1.1,12.3-3.5,17.5-7.1c3.1-2.1,6.4-4.1,8.1-7.8c0.2-0.4,0.3-0.7,0.4-1.1
		c0.1-0.3,0.1-0.5,0.2-1C201.3,208.2,201.3,207.6,201.2,207.1"/>
	<path class="st6" d="M118.1,250.6c-5.3,0.1-9.9-3.8-10.8-9.1c-1.3-6.3-2.6-12.7-3.8-19c-0.9-4.5-1.6-8.9-2.7-13.4
		c-1.3-5.6,2.3-13.5,11.3-13.6c2.7-0.2,5.3,0.8,7.1,2.8c0.3,0.3,0.5,0.6,0.8,0.9c0.8,0.7,1.4,0.6,1.7-0.4c0.3-1.1,0.7-2.1,1.3-3
		c2.2-3.4,5.7-4.4,9.4-4.2c5.6,0.1,10,4.7,9.9,10.3c0,0.1,0,0.2,0,0.4c-0.1,3.2-2,5.4-4.3,7.4s-5,3.3-7.4,5c-3.3,2-4.9,5.9-4,9.7
		c0.8,4.1,1.4,8.3,2.4,12.4C130.5,242.5,126,251,118.1,250.6z"/>
	<path class="st0" d="M636.5,312.1c0.1,4.1,0.2,8.1,0.3,12.2c0.2,6,0.3,12,0.5,17.9c0.2,6.8,0.3,13.6,0.4,20.3
		c0.1,6.3,0.3,12.6,0.4,18.9c0,2.3,0.1,4.6,0.1,6.9c0,1.2-0.5,1.8-1.8,2c-3.6,0.6-7.1,1.5-10.6,2.5c-3,0.8-6.1,1.5-9.1,2.2l-9.4,2.1
		c-3,0.7-6.2,0.7-9,2.3c-2.8-0.2-5.5,0.8-8.2,1.6c-2.8,0.8-6,0.7-8.6,2.2c-3.7,0-7.1,1.6-10.7,2c-0.3-4.1,0.7-8.3,0.4-12.4
		c-0.1-1.3-0.1-2.6,0.1-3.8c0.7-4.1,0.3-8.3,0.8-12.4c0.5-4.4,0.2-8.9,0.5-13.4c0.4-7.2,0.7-14.3,1-21.5c0.3-6.5,0.8-12.9,0.6-19.4
		c0-0.5,0.1-1,0.1-1.4c3.2-0.5,6.5-1,9.7-1.4c8.4-1.2,16.9-2.4,25.4-3.6L636.5,312.1z"/>
	<path class="st4" d="M574.4,320.9c0,0.5-0.1,1-0.1,1.4c0.2,6.5-0.4,12.9-0.6,19.4c-0.3,7.2-0.6,14.3-1,21.5c-0.2,4.5,0,9-0.5,13.4
		c-0.5,4.1,0,8.3-0.8,12.4c-0.2,1.3-0.2,2.6-0.1,3.8c0.3,4.2-0.6,8.3-0.4,12.4c-1.4,0.1-2.8-0.2-4.1-0.8c-5-1.7-10-3.7-15-5.5
		c-3.9-1.4-7.9-2.8-11.8-4.2s-7.9-2.9-11.8-4.4s-8-2.9-12-4.5c-2.1-0.8-4.2-1.5-6.3-2.3c-1.1-0.2-1.8-1.3-1.7-2.4
		c0.6-14,1-27.9,1.5-41.9c0.3-7.3,0.4-14.7,0.7-22c0.1-2.9,0-5.7,0.7-8.6c0.9,0.1,1.8,0.1,2.6,0.3c16.5,3,32.9,6.3,49.3,9.7
		C566.8,319.7,570.6,320.4,574.4,320.9z"/>
	<path class="st3" d="M645.8,300.2c-3.2,0.5-6.4,1-9.6,1.5c-3.9,0.6-7.8,1.1-11.7,1.7c-7.2,1-14.5,2.2-21.7,3.2
		c-6,0.9-12,1.7-18,2.5c-2.5,0.4-5,0.8-7.5,1.2c-1.7,0.3-3.5,0.2-5.2-0.1c-11-2.4-22-4.6-33-6.9c-9.3-2-18.5-4-27.8-5.9L510,297
		c-1.8-0.4-3.6-0.6-5.4-0.5l2-0.2L574,290c0.8-0.4,45.5,6.3,64,9L645.8,300.2z"/>
	<path class="st0" d="M574.8,323.9c-3.8-0.5-7.5-1.2-11.3-2.1c-16.4-3.4-32.8-6.7-49.3-9.7c-0.9-0.2-1.8-0.2-2.6-0.3
		c-2.6-0.2-5-1.3-7.6-1.3c-0.7,0-0.8-0.5-0.8-1.1c-0.1-3.2,0.3-6.4,0.5-9.5c0-1.1-0.4-2.2,0.2-3.2c0.1-0.2,0.2-0.4,0.4-0.5
		c0.8,0.1,1.5,0.2,2.3,0.3c1.1,0.2,2.3,0.5,3.4,0.7l1.4,0.3c9.3,2,18.5,4,27.8,5.9c11,2.3,35.7,6.7,35.7,6.7V323.9z"/>
	<path class="st4" d="M584.4,309.1c6-0.9,12.5-1.7,18.5-2.6c7.2-1,14.5-2.2,21.7-3.2c3.9-0.5,7.8-1.1,11.7-1.7
		c3.2-0.5,6.4-1,9.6-1.5c0.6,0.3,0.5,0.9,0.5,1.5c0,0.8,0,1.7,0,2.5c0,2.6,0,5.1,0,7.7c0,1.8-0.1,1.7-1.9,2c-2.5,0.3-5,0.7-7.5,1.2
		l-27,3.8c-8.5,1.2-26.6,3.8-35.1,5v-13.4L584.4,309.1z"/>
	<path class="st0" d="M460.4,322.7c-2.7-5.6-9.1-17.9-9.4-18.5c-0.6-1.1-0.8-1-2-0.4c-0.6,0.5-22.2,10.6-24.8,11.6
		c-2.1,0.9-1.5,0.9-0.5,3c1.9,4,9.8,19,10.4,19.7c1.8,2.2,2.2,4.4,0.6,6.8c-1.7,2.6-4,4.3-7.4,3.8c-2-0.4-3.5-2-3.9-4
		c-0.7-3.1,2.6-6.1,5.9-6.4c2.3-0.1,1.7-0.5,0.7-2.7c-1.4-3.1-14.9-29-16.8-31.5c-0.7-0.9,0.1-1.1,0.6-1.4c2.4-1,4.8-1.9,7.2-2.8
		c7.3-2.7,24-10,23-9.5c1.3-0.6,1.7-0.1,2.1,0.7c4.2,7.3,15.1,29.2,16.4,31.9c0.7,1.7,1.2,3.6,0.1,5.3c-1.5,2.3-3.2,4.1-5.9,4.7
		c-3.3,0.7-5.5-0.9-6.2-3c-1-2.6,0.2-5.5,2.8-6.6c0.1,0,0.1,0,0.2-0.1c1.7-0.6,3.5-0.6,5.3-0.2C460.4,323.8,460.5,323.2,460.4,322.7
		z"/>
	<path class="st0" d="M300.7,292.8c0.4-0.5,1.1-0.7,1.8-0.4c4.9,0.9,9.9,1.6,14.8,2.6c2.3,0.5,2.8,0.2,4-1.9c2-3.6,4.1-7.3,6.2-11
		c0.3-0.6,0.9-1.1,1.5-1.3c0.5,1.8,1,3.6,1.4,5.4c0.6,2.5,1.4,4.9,1.8,7.4c0.3,1.5,1.3,2.7,2.8,3.2c4.1,1.9,7.6,3.5,11.7,5.4
		c0.4,0.1,0.7,0.4,0.9,0.8c-1.3,0.5-2.5,1-3.8,1.4c-2.1,0.7-4.2,1.4-6.3,2.1c-2.6,0.9-2.7,0.9-2.8,3.6c-0.2,5-0.4,10.1-0.7,15.1
		c0,0.8,0.2,1.6-0.4,2.2c-0.5,0.1-1-0.3-1.1-0.8c-1.1-2.9-3.3-5.1-4.7-7.9c-1.1-2.4-3-4.4-4.3-6.8s-1.3-2.4-3.4-0.6
		c-4.5,3.7-9.3,6.9-13.9,10.4c-0.1,0.1-0.3,0-0.8,0.1c2.6-6.1,6.3-11.3,9.2-17.1C310.1,300.8,305.5,296.7,300.7,292.8z"/>
	<path class="st0" d="M359.5,22.6l-9.7,3.2c-4.2,1.4-3.6,1.1-3.8,5.1c-0.2,4.2-0.4,8.5-0.5,12.7c0,0.8,0,1.6-0.1,2.4
		c0,0.3,0.1,0.7-0.3,0.8c-0.4,0.1-0.8-0.1-1-0.4c-0.4-0.6-0.8-1.2-1.2-1.8c-2.5-4.8-5.9-9.1-8.5-13.9c-0.7-1.3-0.9-1.3-2.1-0.2
		c-4.6,3.9-9.7,7.1-14.4,10.8c-0.3,0.2-0.6,0.5-1,0.2c-0.1-0.2-0.1-0.5,0-0.7c2.8-4.8,5.5-9.6,8.2-14.4c0.2-0.4,0.5-0.8,0.8-1.1
		c0.5-0.4,0.5-1.1,0.1-1.5c-0.1-0.1-0.2-0.2-0.4-0.3c-3-1.9-5.3-4.7-8.2-6.7c-1.1-0.8-2-2-3.2-2.7c-0.7-0.5-1.2-1.2-1.3-2
		c1.8-0.4,3.4,0.2,5,0.5c4.1,0.6,8.1,1.4,12.2,2.2c0.9,0.3,1.8-0.1,2.2-1c0,0,0-0.1,0-0.1c0.9-1.8,2.4-3.4,3.2-5.3s1.9-3.5,2.7-5.3
		c0.6-1,1.2-2,1.9-3c1.3,2.8,1.6,5.5,2.4,8.2c0.4,1.5,0.8,3.1,1,4.6c0.3,2.1,1.5,3.1,3.3,3.9c3.4,1.4,6.8,3,10.2,4.6
		C357.7,21.6,358.3,22,359.5,22.6z"/>
	<path class="st6" d="M367.6,77.2c0,4.6-1.5,8.6-3,12.7c-0.7,1.9-1.5,3.8-2.5,5.6c-0.8,1.5-1,3.2-0.4,4.8c0.2,0.7,0.5,1.3,0.7,2
		c0.4,1,1.2,2.9,1.2,2.9c0.9-0.2,1.8-0.3,2.8-0.3c4.8-0.2,8.7,3,9.9,9.1c0.6,3.1-0.6,5.9-2.5,8.4c-0.6,0.7-1.3,1.3-2,1.9
		c-1.3,0.8-0.6,1.4,0,2.5c1.3,2.6,1.8,5.6,1.5,8.6c-0.3,4.1-2.9,7.6-6.7,9.1c-3.7,1.5-8-0.1-9.9-3.6c-0.7-1.5-0.6-3.3,0.2-4.8
		c1-2,3-2.1,4.4-0.4c0.6,0.7,1.1,1.5,1.7,2.3c0.9,1.2,1.7,1.5,3,0.9c2.5-1.1,4.2-3.5,4.3-6.2c0.1-1.6-0.1-3.1-0.4-4.6
		c-0.3-1-0.9-1.2-2-0.8c-2.1,0.8-4.3,1-6.5,0.7c-3-0.4-5.7-1.8-7.9-3.9c-1.8-2-3.1-4.4-3.7-7c-0.8-3.1-0.5-6.3,0.7-9.2
		c1.5-3,3.4-5.8,5.6-8.2c1.5-1.8,1.6-2,0.4-4c-2.9-5-5.1-10.4-6.5-15.9c-0.6-2.3-0.9-4.7-1-7.1c-0.1-2.2,0.2-4.4,1.1-6.4
		c2.9-5.9,8.2-6,12.6-2.4c1.7,1.4,3,3.3,3.7,5.4C367.3,71.8,367.7,74.5,367.6,77.2z M359.7,95.7c1.5-2.9,2.7-5.9,3.6-8.9
		c1-3.3,1.6-6.7,1.6-10.1c-0.1-4.4-0.8-7.7-3.8-11c-2-2.2-5-2.6-7.1-0.5c-0.7,0.7-1.2,1.5-1.6,2.5c-1.1,2.3-0.6,5.6-0.2,8
		c0.9,6.6,3.2,13,6.6,18.7C359,94.8,359.7,95.7,359.7,95.7z M361.6,106.4c0,0-0.6-1.6-1.1-2.8c-0.3-0.8-1.1-2.7-2.1-2.8
		s-1.6,0.9-2.2,1.6c-0.2,0.2-0.3,0.4-0.4,0.6c-3.5,4.6-3.7,9.9-2,15c2,5.8,6.8,7.9,12.6,7.1c2-0.3,2.4-1,2-3.2
		c-1.4-4-2.9-7.9-4.7-11.7c-0.7-1.2-1.3-1.2-2.2-0.3c-1.4,1.3-1.4,3.5-0.1,4.9c0.1,0.1,0.1,0.1,0.2,0.2c0.6,0.6,1.4,1.1,1.9,1.8
		c0.7,0.8,0.8,2,0.2,2.9c-0.6,0.7-1.6,1-2.5,0.6c-2.2-0.9-3.3-3-3.5-5.4C357.4,111.5,358.9,108.8,361.6,106.4L361.6,106.4z M373,116
		c0-2-0.4-3.1-1.9-5.3c-0.9-1.6-2.8-2.4-4.6-2c-1,0.2-1.4,0.6-1,1.6c1.2,2.6,3.4,8.7,4.2,10.1c0.5,0.9,1.1,1.2,1.7,0.4
		C372.4,119.4,372.9,117.7,373,116z"/>
	<path class="st0" d="M415.4,76.8l3.2,2.1c-0.9,0.6-1.8,0.3-2.5,0.6c-2.2,0.3-4.4,0.2-6.6,0.5c-1.6,0.2-2.5,0.8-2.8,2.6
		c-1.2,6.2-3.1,12.3-4.7,18.4c-0.1,0.6-0.4,1.2-0.8,1.7c-0.7-0.1-0.9-0.6-1.1-1.1c-2-4-4-8-6.1-12c-0.2-0.3-0.3-0.7-0.5-1.1
		c-1-1.6-1.4-1.7-3-0.8c-2.6,1.4-5.1,2.8-7.6,4.2c-0.7-0.6-0.1-0.9,0.1-1.3c2.1-3.8,4.3-7.7,6.5-11.5c0.2-0.6,0.5-1.2,0.8-1.7
		c1.3-1.6,0.5-2.7-0.6-4C386.9,70,384.1,67,382,63c1.8,0.8,3.3,1.4,4.8,2.1c2.7,1.2,5.3,2.4,8,3.7c1.5,0.7,2.1,0.6,2.9-0.8
		c0.9-1.7,1.7-3.4,2.7-5c1.4-2.1,2.3-4.4,4.1-6.5c0.5,0.8,0.8,1.8,0.7,2.8c0.2,3.4,0.4,6.7,0.5,10.1c-0.1,1.3,0.7,2.5,1.8,3
		C410.2,73.8,412.7,75.4,415.4,76.8z"/>
	<path class="st0" d="M370.7,371.8c0.8-1.7,1.7-3.4,2.7-4.9c1.8-3,3.2-6.3,5.3-9.2c0.9-1,0.8-2.5-0.2-3.3c-2.9-3.4-5.5-6.9-8-10.6
		c0.4-0.3,0.8-0.1,1.2,0.1c3.9,1.8,7.8,3.6,11.6,5.4c1.6,0.7,1.8,0.6,2.7-1c2-3.9,4.3-7.6,6.7-11.3c0.9,0.2,0.7,0.9,0.7,1.4
		c0.2,3.8,0.5,7.5,0.6,11.2c-0.1,1.4,0.7,2.6,1.9,3.2c3.2,1.6,6.2,3.5,9.3,5.3c0.5,0.3,1,0.7,1.6,1.1c-1,0.5-2.1,0.7-3.2,0.6
		c-2.4,0.1-4.7,0.4-7.1,0.9c-1,0.2-1.4,0.5-1.6,1.4c-1.2,6.6-3.3,12.9-4.8,19.3c0,0.6-0.3,1.1-0.8,1.4c-0.7-0.2-0.8-0.9-1-1.5
		c-2.1-4.5-5-8.6-6.9-13.2c-0.2-0.6-0.8-1-1.4-0.9c-0.1,0-0.2,0.1-0.3,0.1c-0.8,0.2-1.6,0.6-2.3,1.1c-1.8,1.4-4,2-5.8,3.1
		C371.5,371.9,371.3,371.8,370.7,371.8z"/>
	<path class="st4" d="M439.9,240.4c0.3,0.2,0.6,0.4,1,0.7C440.5,240.9,440.2,240.7,439.9,240.4z"/>
	<path class="st6" d="M573.9,274.5c-0.1-0.6,0-1.3,0.3-1.9c0.9-1.5,2.9-0.8,10.2-0.7c0.9-0.1,1.7,0.2,2.3,0.8
		c0.3,0.7,0.4,1.4,0.1,2.1l-6.6-0.2L573.9,274.5z"/>
	<path class="st7" d="M547.4,275.5c6.6-0.7,13.2-1,19.8-1c0.9,0,1.8,0,2.6,0c1.9-0.1,1.9-0.1,1.9-2.1c0-0.8,0-1.6,0-2.4
		c0-1,0.5-1.5,1.5-1.4c2,0.2,16.9,0.4,18.6-0.8c1.5-1,3.2-1.7,5-2.2c1.7-0.5,3.5-0.7,4.7,0.7c2.2,2.6,3.5,5.8,3.7,9.2
		c0,0.5,0.4,0.9,0.8,0.9c0,0,0,0,0,0c0.6,0.1,1.2,0.2,1.9,0.4c4.9,1.3,9.2,3.4,12.6,7.3c2,2.4,3,4.9,1.7,7.9
		c-2.3,2.3-5.3,3.9-8.5,4.6c-4.7,1.2-9.5,2.1-14.4,2.6c-8.7,0.9-17.4,1.3-26.1,1.1c-7.8-0.1-15.7-0.6-23.5-1
		c-5.4-0.2-10.8-1-16.1-2.3c-3.4-0.9-6.8-2-9.2-4.8c-0.1-0.1-0.4-0.2-0.7-0.2c-1.6-5.7-0.5-8.7,4.3-11.4c2.9-1.6,6.1-2.7,9.3-3.5
		c2.5-0.6,4.9-1.1,7.4-1.4C545.9,275.7,546.6,275.7,547.4,275.5z M592.9,274.8c-0.1,2.3,1,3.5,3.1,3.6c2.8,0.1,4.6-1.4,4.6-4
		s-1.2-3.8-3.5-3.8c-2.2-0.1-4.1,1.6-4.2,3.8C592.9,274.5,592.9,274.6,592.9,274.8z"/>
	<path class="st8" d="M573.5,292c-5.4-0.1-10.7-0.6-16-1.7c-1.4-0.2-2.8-0.7-4-1.6c-1.1-0.6-1.4-2-0.8-3.1c0.1-0.2,0.3-0.4,0.6-0.6
		c1.4-1.2,2.9-2.1,4.6-2.8c6.8-2.8,14.2-3.6,21.4-2.4c3.2,0.4,6.3,1.3,9.2,2.5c2.8,1.2,3.3,4,1.2,6.2c-1,1-2.3,1.7-3.7,2
		C582,291.6,577.8,292,573.5,292z"/>
	<path class="st9" d="M592.9,274.8c-0.1-2.2,1.6-4.1,3.8-4.2c0.1,0,0.3,0,0.4,0c2.3,0,3.5,1.4,3.5,3.8s-1.8,4-4.6,4
		C593.9,278.3,592.9,277.1,592.9,274.8z"/>
	<path class="st6" d="M573.8,288.7c-2.3,0.1-4.6-0.2-6.8-0.9c-0.8-0.2-2.6-0.9-2.8-1.8s1.2-2.3,3.3-3c3.8-1.1,7.8-1.1,11.6,0
		c1.3,0.3,2.2,1.3,2.5,2.5c0.1,0.9-0.8,1.8-1.9,2.3C577.9,288.4,575.9,288.8,573.8,288.7z"/>
	<path class="st10" d="M665,282.7c-3.9,11.7-12.8,18.2-19.1,21.5c0-0.8,0-1.7,0-2.5c0-0.5,0.1-1.1-0.5-1.5l-7.9-1.2
		c5.1-2.5,15.5-8.8,18.9-19.1c3.7-11.2-0.5-24.1-10.2-32.3c0.3-0.4,0.6-0.8,1-1.1c0.8-2,0.8-4.1,1.3-6.1c-0.2-0.5-0.3-1-0.3-1.6
		C662.5,249.1,670.2,267.1,665,282.7z"/>
	<path class="st0" d="M310.4,69.2c1.4-1.4,3.9-1.3,9-1c1.9,0.1,3,0.6,4.6,0.2c1.3-0.3,2.5-1.1,3.4-2.2c1-1.5,1.3-3.3,1-5
		c-0.1-1.3-0.3-3.2-1.5-4.5c-1.5-1.5-4.5-1.3-10.6-0.8c-2.7,0.2-5.3,0.6-7.9,1.3c-2.9,0.8-4.8,1.4-6,3c-1.5,2.1-1.2,4.8-1,6
		c0.9,5.7,5.9,35.8,13,77c-8-1.9-15.7,1.1-19,7c-2.4,4.3-2.9,11,1,15c4.6,4.6,12.6,3.2,17,0c2-1.4,3.9-3.7,5.5-8.5
		c3.2-9.6,1.2-18.5,0-24c0,0-4.3-19-9.5-58.5C309.3,73.1,309,70.6,310.4,69.2z"/>
	<path class="st8" d="M519.2,238.6c-1.8-1.7-10.9-3.6-14.7-3.9c-5.5-0.3-11,0.3-16.2,2.1c-5.4,1.7-13.8,6.9-24,14
		c-1.5,1.1-3.1,2.2-4.7,3.4c-28,20.3-66.1,52.4-88.1,68.8c-42,31-69,36.4-78.3,37.9c-14.8,2.4-43.1,6.6-65.6-10.5
		c-4.5-3.4-21.5-16.4-21.8-37.5c-0.2-17.9,12.4-36.8,29.5-41.7c13.5-3.8,27.2,1.8,30.6,3.1c6.2,2.5,11.9,6.2,16.7,10.9
		c3.2,3.1,4.5,5.2,5.6,9.6c0.5,2,0.7,7.8,0,9.8c-2.5,7.1-6.8,9.6-13.6,12.4c-4.1,1.7-8.6,2.2-13,1.5c-2.9-0.4-11.2-1.6-10.4-12.5
		c0.7-9.8,9.1-9.2,11.1-8.1c1.8,1,2.5,3.1,1.8,4.9c-0.5,2-0.1,4.2,1.8,4.6c4.2,0.4,7.2-3.8,5.6-9.9c-0.7-2.7-2.3-5.2-4.5-7
		c-7.9-6.2-24.4-6.1-32.8,3.6c-5.8,6.7-6.9,16.9-3.9,24.8c7.4,19.7,40,25.1,59.7,23.1c10.8-1.1,22.3-4.9,25.5-6.1
		c8.1-2.8,16-6.2,23.5-10.2c8.6-4.7,17-9.8,25.5-14.8c14-8.2,57.1-43.4,80.1-62.4l7.6-6.3l0,0l6.8-5.7c11-9.2,24.4-15,38.7-16.7
		c4-0.5,8.1-0.7,12.1-0.5c2.9,0,5.7,0.3,8.5,1c-1.7,2.5-2.6,5-1.2,8c0.6,1.5,1.2,3.1,1.6,4.7C519.1,234.8,519.3,236.7,519.2,238.6z"
		/>
	<path class="st8" d="M537,144.8h-0.2c-4.3,0.8-42.6,7.1-75.7-9.7c-2.1-1.1-4.2-2.2-6.3-3.5c-7.1-4.4-13.5-9.8-18.9-16.1
		c-15.9-18.3-33.6-55.1-16.9-82.2c10.9-17.5,35.3-29.8,55.8-23.4c11.1,3.4,26.9,14.1,26,28.4c-0.6,10.1-9.6,20.7-20.5,21.8
		c-6.5,0.7-15.3-2-18.6-8.7c-2.4-5-2-12.4,1.8-15c1.7-1.1,4.6-1.7,6.7-0.3c1.4,0.9,2.2,2.4,2.4,4.1c0.3,3.4-3,4.6-2.7,7.1
		c0.4,2.7,4.9,5.1,8.7,4.7c5.1-0.5,9-6.1,9.5-11c0.6-7.2-6.2-13.2-10.8-15.7c-13.7-7.5-37.4-0.2-47.3,15.2
		c-14.5,22.3,5.5,53.3,7.8,56.7c9.8,14.6,24.1,23.2,38.7,28.3c1.9,0.7,3.8,1.3,5.7,1.8c23.5,6.8,46.3,5.1,50.9,4.7h0.5
		c1.3,1.5,2.2,3.3,2.5,5.3C536.8,139.7,537.1,142.3,537,144.8z"/>
	<g class="st11">
		<path class="st6" d="M3.4,480.1v-21.8c0-1.7,1.4-3.1,3.1-3.1h15.5c1.5,0,2.8,1.2,2.8,2.8s-1.2,2.7-2.8,2.7H9.5v5.7h10.7
			c1.5,0,2.8,1.2,2.8,2.8c0,1.5-1.2,2.7-2.8,2.7H9.5v5.9h12.7c1.5,0,2.8,1.2,2.8,2.8c0,1.5-1.2,2.7-2.8,2.7H6.4
			C4.7,483.2,3.4,481.9,3.4,480.1z"/>
	</g>
	<g class="st11">
		<path class="st6" d="M28.9,481.2c-0.6-0.4-1.2-1.1-1.2-2.1c0-1.4,1-2.4,2.4-2.4c0.4,0,0.9,0.1,1.2,0.3c2,1.3,4.1,1.9,5.8,1.9
			c1.8,0,2.6-0.6,2.6-1.6v-0.1c0-1.3-2.1-1.8-4.4-2.5c-3-0.9-6.4-2.3-6.4-6.4v-0.1c0-4.4,3.5-6.8,7.8-6.8c2.2,0,4.6,0.6,6.6,1.6
			c0.9,0.4,1.4,1.2,1.4,2.3c0,1.4-1.1,2.4-2.4,2.4c-0.4,0-0.7-0.1-1.1-0.3c-1.7-0.8-3.4-1.4-4.6-1.4c-1.5,0-2.2,0.6-2.2,1.5v0.1
			c0,1.2,2,1.8,4.4,2.6c3,1,6.5,2.4,6.5,6.3v0.1c0,4.8-3.6,6.9-8.2,6.9C34.3,483.6,31.5,482.9,28.9,481.2z"/>
	</g>
	<g class="st11">
		<path class="st6" d="M50.1,477.1V467h-0.2c-1.4,0-2.6-1.2-2.6-2.6c0-1.4,1.2-2.6,2.6-2.6h0.2v-2.7c0-1.7,1.4-3,3-3s3,1.4,3,3v2.7
			h2.7c1.4,0,2.6,1.2,2.6,2.6c0,1.4-1.2,2.6-2.6,2.6h-2.7v9.1c0,1.4,0.6,2.1,2,2.1c0.2,0,0.6,0,0.7,0c1.4,0,2.5,1.1,2.5,2.5
			c0,1.1-0.7,2-1.6,2.3c-1.1,0.4-2.2,0.6-3.5,0.6C52.6,483.6,50.1,482.1,50.1,477.1z"/>
		<path class="st6" d="M65.6,456.7c0-1.8,1.5-2.8,3.4-2.8c1.9,0,3.4,1.1,3.4,2.8v0.1c0,1.8-1.5,2.9-3.4,2.9
			C67.1,459.7,65.6,458.5,65.6,456.7L65.6,456.7z M66,464.6c0-1.7,1.4-3,3-3s3,1.4,3,3v15.8c0,1.7-1.4,3-3,3s-3-1.4-3-3V464.6z"/>
		<path class="st6" d="M77.7,464.6c0-1.7,1.4-3,3-3c1.7,0,3,1.4,3,3v0.2c1.4-1.8,3.2-3.4,6.3-3.4c2.8,0,4.9,1.2,6,3.4
			c1.9-2.2,4.1-3.4,7-3.4c4.5,0,7.2,2.7,7.2,7.9v11.1c0,1.7-1.4,3-3,3s-3-1.4-3-3v-9.1c0-2.9-1.3-4.4-3.6-4.4
			c-2.3,0-3.7,1.5-3.7,4.4v9.1c0,1.7-1.4,3-3,3c-1.7,0-3-1.4-3-3v-9.1c0-2.9-1.3-4.4-3.6-4.4c-2.3,0-3.7,1.5-3.7,4.4v9.1
			c0,1.7-1.4,3-3,3c-1.7,0-3-1.4-3-3V464.6z"/>
		<path class="st6" d="M135.1,480.4c0,1.7-1.4,3-3,3s-3-1.4-3-3v-0.2c-1.4,1.8-3.2,3.4-6.3,3.4c-4.6,0-7.3-3-7.3-7.9v-11.1
			c0-1.7,1.4-3,3-3c1.7,0,3,1.4,3,3v9.1c0,2.9,1.4,4.4,3.7,4.4c2.3,0,3.8-1.5,3.8-4.4v-9.1c0-1.7,1.4-3,3-3s3,1.4,3,3V480.4z"/>
		<path class="st6" d="M140.8,456.9c0-1.7,1.4-3,3-3s3,1.4,3,3v23.6c0,1.7-1.4,3-3,3s-3-1.4-3-3V456.9z"/>
		<path class="st6" d="M151.3,477.1L151.3,477.1c0-4.8,3.6-6.9,8.6-6.9c2.2,0,3.7,0.4,5.2,0.9v-0.4c0-2.5-1.6-3.9-4.6-3.9
			c-1.7,0-3,0.2-4.2,0.6c-0.4,0.1-0.6,0.2-0.9,0.2c-1.4,0-2.5-1.1-2.5-2.5c0-1.1,0.7-2,1.6-2.4c1.9-0.7,4-1.1,6.8-1.1
			c3.3,0,5.7,0.9,7.2,2.4c1.6,1.6,2.3,4,2.3,6.8v9.7c0,1.6-1.3,2.9-3,2.9c-1.8,0-2.9-1.2-2.9-2.5v0c-1.5,1.6-3.5,2.7-6.5,2.7
			C154.6,483.6,151.3,481.3,151.3,477.1z M165.3,475.7v-1.1c-1-0.5-2.4-0.8-3.9-0.8c-2.6,0-4.2,1-4.2,3v0.1c0,1.6,1.4,2.6,3.3,2.6
			C163.4,479.4,165.3,477.9,165.3,475.7z"/>
		<path class="st6" d="M175.2,472.6L175.2,472.6c0-6.2,4.7-11.2,11.2-11.2c3.2,0,5.5,0.9,7.3,2.4c0.4,0.3,1,1,1,2.1
			c0,1.5-1.2,2.7-2.8,2.7c-0.8,0-1.4-0.3-1.8-0.6c-1.1-0.8-2.2-1.4-3.8-1.4c-3,0-5.2,2.7-5.2,5.8v0.1c0,3.3,2.1,5.9,5.4,5.9
			c1.6,0,2.8-0.6,4-1.5c0.3-0.2,0.9-0.6,1.6-0.6c1.4,0,2.6,1.2,2.6,2.6c0,0.8-0.4,1.4-0.9,1.9c-1.8,1.6-4.1,2.8-7.6,2.8
			C179.9,483.7,175.2,478.7,175.2,472.6z"/>
		<path class="st6" d="M199,456.7c0-1.8,1.5-2.8,3.4-2.8c1.9,0,3.4,1.1,3.4,2.8v0.1c0,1.8-1.5,2.9-3.4,2.9
			C200.4,459.7,199,458.5,199,456.7L199,456.7z M199.3,464.6c0-1.7,1.4-3,3-3s3,1.4,3,3v15.8c0,1.7-1.4,3-3,3s-3-1.4-3-3V464.6z"/>
		<path class="st6" d="M210.1,472.6L210.1,472.6c0-6.2,5-11.2,11.6-11.2c6.6,0,11.5,4.9,11.5,11.1v0.1c0,6.1-5,11.1-11.6,11.1
			C215,483.7,210.1,478.8,210.1,472.6z M227.2,472.6L227.2,472.6c0-3.2-2.3-6-5.6-6c-3.5,0-5.6,2.7-5.6,5.8v0.1
			c0,3.2,2.3,5.9,5.6,5.9C225.2,478.5,227.2,475.8,227.2,472.6z M220,458.7c0-0.4,0.2-0.8,0.4-1.1l2.2-3.4c0.5-0.8,1.3-1.4,2.3-1.4
			c1.5,0,3.4,0.9,3.4,1.8c0,0.6-0.3,1-0.8,1.4l-2.5,2.3c-1.2,1.1-2.1,1.3-3.5,1.3C220.6,459.7,220,459.3,220,458.7z"/>
		<path class="st6" d="M237.6,464.6c0-1.7,1.4-3,3-3c1.7,0,3,1.4,3,3v0.2c1.4-1.8,3.2-3.4,6.3-3.4c4.6,0,7.3,3,7.3,7.9v11.1
			c0,1.7-1.4,3-3,3c-1.7,0-3-1.4-3-3v-9.1c0-2.9-1.4-4.4-3.7-4.4s-3.8,1.5-3.8,4.4v9.1c0,1.7-1.4,3-3,3c-1.7,0-3-1.4-3-3V464.6z"/>
		<path class="st6" d="M275.1,458.2c0-1.7,1.4-3.1,3.1-3.1h0.7c1.3,0,2.2,0.7,2.8,1.6l7.4,12.1l7.5-12.1c0.6-1,1.5-1.6,2.8-1.6h0.7
			c1.7,0,3.1,1.4,3.1,3.1v22.2c0,1.7-1.4,3.1-3.1,3.1c-1.7,0-3-1.4-3-3.1v-13.9l-5.4,8.3c-0.6,1-1.4,1.6-2.6,1.6
			c-1.1,0-1.9-0.6-2.6-1.6l-5.3-8.2v13.9c0,1.7-1.4,3-3,3s-3-1.3-3-3V458.2z"/>
		<path class="st6" d="M328.6,480.4c0,1.7-1.4,3-3,3s-3-1.4-3-3v-0.2c-1.4,1.8-3.2,3.4-6.3,3.4c-4.6,0-7.3-3-7.3-7.9v-11.1
			c0-1.7,1.4-3,3-3c1.7,0,3,1.4,3,3v9.1c0,2.9,1.4,4.4,3.7,4.4c2.3,0,3.8-1.5,3.8-4.4v-9.1c0-1.7,1.4-3,3-3s3,1.4,3,3V480.4z"/>
		<path class="st6" d="M333.5,481.2c-0.6-0.4-1.2-1.1-1.2-2.1c0-1.4,1-2.4,2.4-2.4c0.4,0,0.9,0.1,1.2,0.3c2,1.3,4.1,1.9,5.8,1.9
			c1.8,0,2.6-0.6,2.6-1.6v-0.1c0-1.3-2.1-1.8-4.4-2.5c-3-0.9-6.4-2.3-6.4-6.4v-0.1c0-4.4,3.5-6.8,7.8-6.8c2.2,0,4.6,0.6,6.6,1.6
			c0.9,0.4,1.4,1.2,1.4,2.3c0,1.4-1.1,2.4-2.4,2.4c-0.4,0-0.7-0.1-1.1-0.3c-1.7-0.8-3.4-1.4-4.6-1.4c-1.5,0-2.2,0.6-2.2,1.5v0.1
			c0,1.2,2,1.8,4.4,2.6c3,1,6.5,2.4,6.5,6.3v0.1c0,4.8-3.6,6.9-8.2,6.9C338.9,483.6,336,482.9,333.5,481.2z"/>
		<path class="st6" d="M354,456.7c0-1.8,1.5-2.8,3.4-2.8c1.9,0,3.4,1.1,3.4,2.8v0.1c0,1.8-1.5,2.9-3.4,2.9
			C355.5,459.7,354,458.5,354,456.7L354,456.7z M354.3,464.6c0-1.7,1.4-3,3-3c1.7,0,3,1.4,3,3v15.8c0,1.7-1.4,3-3,3
			c-1.7,0-3-1.4-3-3V464.6z"/>
		<path class="st6" d="M365.1,472.6L365.1,472.6c0-6.2,4.7-11.2,11.2-11.2c3.2,0,5.5,0.9,7.3,2.4c0.4,0.3,1,1,1,2.1
			c0,1.5-1.2,2.7-2.8,2.7c-0.8,0-1.4-0.3-1.8-0.6c-1.1-0.8-2.2-1.4-3.8-1.4c-3,0-5.2,2.7-5.2,5.8v0.1c0,3.3,2.1,5.9,5.4,5.9
			c1.6,0,2.8-0.6,4-1.5c0.3-0.2,0.9-0.6,1.6-0.6c1.4,0,2.6,1.2,2.6,2.6c0,0.8-0.4,1.4-0.9,1.9c-1.8,1.6-4.1,2.8-7.6,2.8
			C369.8,483.7,365.1,478.7,365.1,472.6z"/>
		<path class="st6" d="M387.6,477.1L387.6,477.1c0-4.8,3.6-6.9,8.6-6.9c2.2,0,3.7,0.4,5.2,0.9v-0.4c0-2.5-1.6-3.9-4.6-3.9
			c-1.7,0-3,0.2-4.2,0.6c-0.4,0.1-0.6,0.2-0.9,0.2c-1.4,0-2.5-1.1-2.5-2.5c0-1.1,0.7-2,1.6-2.4c1.9-0.7,4-1.1,6.8-1.1
			c3.3,0,5.7,0.9,7.2,2.4c1.6,1.6,2.3,4,2.3,6.8v9.7c0,1.6-1.3,2.9-3,2.9c-1.8,0-2.9-1.2-2.9-2.5v0c-1.5,1.6-3.5,2.7-6.5,2.7
			C391,483.6,387.6,481.3,387.6,477.1z M401.6,475.7v-1.1c-1-0.5-2.4-0.8-3.9-0.8c-2.6,0-4.2,1-4.2,3v0.1c0,1.6,1.4,2.6,3.3,2.6
			C399.7,479.4,401.6,477.9,401.6,475.7z"/>
		<path class="st6" d="M412.8,456.9c0-1.7,1.4-3,3-3c1.7,0,3,1.4,3,3v23.6c0,1.7-1.4,3-3,3c-1.7,0-3-1.4-3-3V456.9z"/>
	</g>
	<g class="st11">
		<path class="st6" d="M447,460.9h-5.9c-1.6,0-2.8-1.3-2.8-2.8s1.3-2.8,2.8-2.8h18c1.6,0,2.8,1.3,2.8,2.8s-1.3,2.8-2.8,2.8h-5.9
			v19.4c0,1.7-1.4,3.1-3.1,3.1s-3.1-1.4-3.1-3.1V460.9z"/>
	</g>
	<g class="st11">
		<path class="st6" d="M466,483.7c-6.4,0-11.2-4.5-11.2-11.1v-0.1c0-6.1,4.4-11.1,10.6-11.1c7.1,0,10.3,5.9,10.3,10.3
			c0,1.8-1.2,2.9-2.8,2.9h-12c0.6,2.8,2.5,4.2,5.2,4.2c1.7,0,3.1-0.5,4.3-1.4c0.4-0.3,0.8-0.5,1.5-0.5c1.4,0,2.4,1,2.4,2.4
			c0,0.8-0.4,1.4-0.8,1.8C471.6,482.7,469.1,483.7,466,483.7z M469.9,470.8c-0.4-2.7-2-4.6-4.5-4.6c-2.5,0-4.2,1.8-4.6,4.6H469.9z"
			/>
		<path class="st6" d="M480.4,464.6c0-1.7,1.4-3,3-3s3,1.4,3,3v0.2c1.4-1.8,3.2-3.4,6.3-3.4c2.8,0,4.9,1.2,6,3.4
			c1.9-2.2,4.1-3.4,7-3.4c4.5,0,7.2,2.7,7.2,7.9v11.1c0,1.7-1.4,3-3,3c-1.7,0-3-1.4-3-3v-9.1c0-2.9-1.3-4.4-3.6-4.4
			s-3.7,1.5-3.7,4.4v9.1c0,1.7-1.4,3-3,3c-1.7,0-3-1.4-3-3v-9.1c0-2.9-1.3-4.4-3.6-4.4c-2.3,0-3.7,1.5-3.7,4.4v9.1c0,1.7-1.4,3-3,3
			s-3-1.4-3-3V464.6z"/>
		<path class="st6" d="M518.3,464.6c0-1.7,1.4-3,3-3s3,1.4,3,3v0.3c1.5-2,3.5-3.5,6.7-3.5c5,0,9.7,3.9,9.7,11.1v0.1
			c0,7.1-4.7,11.1-9.7,11.1c-3.2,0-5.2-1.5-6.7-3.2v6.4c0,1.7-1.4,3-3,3s-3-1.4-3-3V464.6z M534.7,472.5L534.7,472.5
			c0-3.6-2.4-6-5.2-6c-2.8,0-5.2,2.4-5.2,5.9v0.1c0,3.6,2.4,5.9,5.2,5.9C532.3,478.5,534.7,476.1,534.7,472.5z"/>
	</g>
	<g class="st11">
		<path class="st6" d="M545.2,464.6c0-1.7,1.4-3,3-3s3,1.4,3,3v1c0.9-2.1,2.3-4,4.1-4c1.9,0,3,1.2,3,3c0,1.6-1,2.6-2.3,2.8
			c-3.1,0.7-4.8,3.1-4.8,7.4v5.7c0,1.7-1.4,3-3,3s-3-1.4-3-3V464.6z"/>
	</g>
	<g class="st11">
		<path class="st6" d="M559.7,477.1L559.7,477.1c0-4.8,3.6-6.9,8.6-6.9c2.2,0,3.7,0.4,5.2,0.9v-0.4c0-2.5-1.6-3.9-4.6-3.9
			c-1.7,0-3,0.2-4.2,0.6c-0.4,0.1-0.6,0.2-0.9,0.2c-1.4,0-2.5-1.1-2.5-2.5c0-1.1,0.7-2,1.6-2.4c1.9-0.7,4-1.1,6.8-1.1
			c3.3,0,5.7,0.9,7.2,2.4c1.6,1.6,2.3,4,2.3,6.8v9.7c0,1.6-1.3,2.9-3,2.9c-1.8,0-2.9-1.2-2.9-2.5v0c-1.5,1.6-3.5,2.7-6.5,2.7
			C563,483.6,559.7,481.3,559.7,477.1z M573.6,475.7v-1.1c-1-0.5-2.4-0.8-3.9-0.8c-2.6,0-4.2,1-4.2,3v0.1c0,1.6,1.4,2.6,3.3,2.6
			C571.7,479.4,573.6,477.9,573.6,475.7z"/>
		<path class="st6" d="M584.6,464.6c0-1.7,1.4-3,3-3s3,1.4,3,3v0.2c1.4-1.8,3.2-3.4,6.3-3.4c4.6,0,7.3,3,7.3,7.9v11.1
			c0,1.7-1.4,3-3,3s-3-1.4-3-3v-9.1c0-2.9-1.4-4.4-3.7-4.4c-2.3,0-3.8,1.5-3.8,4.4v9.1c0,1.7-1.4,3-3,3s-3-1.4-3-3V464.6z"/>
		<path class="st6" d="M608.2,477.1L608.2,477.1c0-4.8,3.6-6.9,8.6-6.9c2.2,0,3.7,0.4,5.2,0.9v-0.4c0-2.5-1.6-3.9-4.6-3.9
			c-1.7,0-3,0.2-4.2,0.6c-0.4,0.1-0.6,0.2-0.9,0.2c-1.4,0-2.5-1.1-2.5-2.5c0-1.1,0.7-2,1.6-2.4c1.9-0.7,4-1.1,6.8-1.1
			c3.3,0,5.7,0.9,7.2,2.4c1.6,1.6,2.3,4,2.3,6.8v9.7c0,1.6-1.3,2.9-3,2.9c-1.8,0-2.9-1.2-2.9-2.5v0c-1.5,1.6-3.5,2.7-6.5,2.7
			C611.5,483.6,608.2,481.3,608.2,477.1z M622.1,475.7v-1.1c-1-0.5-2.4-0.8-3.9-0.8c-2.6,0-4.2,1-4.2,3v0.1c0,1.6,1.4,2.6,3.3,2.6
			C620.2,479.4,622.1,477.9,622.1,475.7z"/>
	</g>
	<path class="st6" d="M500.9,220.3c-4.2-0.3-8.4-1.5-12.2-3.3c-10.7-5.6-15.8-14.6-15.1-26.4c0.7-11.6,7-19.9,17.7-24.4
		c10-4.2,20-3.9,29.3,2.3c12.7,8.4,16.1,25.6,7.7,38.2c-1.6,2.3-3.5,4.4-5.7,6.2c-3.8,3.1-8.2,5.3-13,6.4c-0.5,0-0.9,0.2-1.4,0.4
		L500.9,220.3z M511,192.2c0.1-3-1.3-5.8-3.7-7.6c-3.1-2.4-7.7-1.9-10.1,1.2c-0.2,0.3-0.4,0.6-0.6,0.9c-1.9,3.7-1.5,8.2,1.1,11.4
		c1.3,1.7,3.3,2.8,5.5,3C507.9,201.5,511.2,198,511,192.2z"/>
	<path class="st6" d="M469.7,145c-4.5-2.2-10-1.2-13.3,2.6c-1.4,1.7-2.3,3.7-2.6,5.8c-0.5,2.6-0.6,5.2-1.6,7.7
		c-0.2,2.3-0.6,4.5-1.1,6.7c-1.1-0.5-2.1-1.1-3.1-1.9c-0.7-0.1-1.4-0.3-2-0.7c-2-0.9-4-1.4-6.2-1.7c-10.5-1.1-18.8,2.6-24.9,11.2
		c-2.9,4-4.6,8.8-4.8,13.8c-0.4,4.6,0.1,9.2,1.5,13.6c0.6,1.5,1.3,2.9,2.1,4.2c1.9,3.4,4.5,6.3,7.7,8.6c1.1,0.8,2.4,1,3.4,2
		c2.3,0.2,4.3,1.4,6.5,1.9c2.8,0.8,5.6,1.1,8.5,0.8c2.5-0.2,4.5-1.2,5.1-4.1c1.1,1.3,1.9,2.4,2.9,3.5c0.9,1,2,1.8,3.2,2.4
		c0.5,0.2,1,0.5,1.5,0.6c0.3,0.1,0.7,0.2,1,0.3c2.2,0.5,4.4,0.2,6.4-0.8c0.5-0.2,1-0.5,1.4-0.8c2.5-1.7,4.2-4.3,4.6-7.3
		c0.7-3.6,1.3-7.1,1.9-10.7s1.2-7.1,1.9-10.7l3.1-17.4l3.1-17.4C476.6,152.3,474.2,147.3,469.7,145z M438.3,200.6
		c-3.2-0.6-5.7-3.3-6-6.6c-0.4-2.6,0.2-5.3,1.6-7.6c1.5-2.3,3.5-3.8,6.4-3.5s5.4,1.6,6.6,4.5c0.5,1.3,0.8,2.6,0.7,4
		c0,1.8-0.4,3.5-1.4,5C444.4,199.8,441.6,201.2,438.3,200.6L438.3,200.6z"/>
	<path class="st2" d="M446.1,196.4c-1.8,3.3-4.5,4.8-7.8,4.2c-3.2-0.6-5.7-3.3-6-6.6c-0.4-2.6,0.2-5.3,1.6-7.6
		c1.5-2.3,3.5-3.8,6.4-3.5s5.4,1.6,6.6,4.5c0.5,1.3,0.8,2.6,0.7,4C447.6,193.2,447.1,194.9,446.1,196.4z"/>
</g>
</svg>
