<?xml version="1.0" encoding="utf-8"?>
<!-- Generator: Adobe Illustrator 25.0.1, SVG Export Plug-In . SVG Version: 6.00 Build 0)  -->
<svg version="1.1" id="Capa_1" xmlns="http://www.w3.org/2000/svg" xmlns:xlink="http://www.w3.org/1999/xlink" x="0px" y="0px"
	 viewBox="0 0 704.3 400.9" style="enable-background:new 0 0 704.3 400.9;" xml:space="preserve">
<style type="text/css">
	.st0{enable-background:new    ;}
	.st1{fill:#FFFFFF;}
	.st2{fill:#D6001C;}
	.st3{fill:#FFB800;}
</style>
<g id="Capa_2_1_">
	<g id="Capa_1-2">
		<g class="st0">
			<path class="st1" d="M238,334.9v-22.9c0-1.8,1.4-3.2,3.2-3.2h16.3c1.6,0,2.9,1.3,2.9,2.9s-1.3,2.8-2.9,2.8h-13.1v5.9h11.2
				c1.6,0,2.9,1.3,2.9,2.9c0,1.6-1.3,2.8-2.9,2.8h-11.2v6.2h13.3c1.6,0,2.9,1.3,2.9,2.9c0,1.6-1.3,2.8-2.9,2.8h-16.5
				C239.4,338.2,238,336.7,238,334.9z"/>
		</g>
		<g class="st0">
			<path class="st1" d="M264.8,336c-0.7-0.4-1.2-1.2-1.2-2.2c0-1.4,1.1-2.5,2.5-2.5c0.5,0,0.9,0.1,1.3,0.3c2.1,1.3,4.3,2,6.1,2
				c1.8,0,2.7-0.7,2.7-1.7v-0.1c0-1.4-2.2-1.8-4.6-2.6c-3.1-0.9-6.7-2.4-6.7-6.7v-0.1c0-4.6,3.7-7.1,8.2-7.1c2.3,0,4.8,0.6,7,1.7
				c0.9,0.5,1.5,1.3,1.5,2.4c0,1.4-1.1,2.5-2.6,2.5c-0.5,0-0.8-0.1-1.2-0.3c-1.8-0.9-3.5-1.4-4.9-1.4c-1.5,0-2.3,0.7-2.3,1.5v0.1
				c0,1.3,2.1,1.8,4.6,2.7c3.1,1,6.8,2.6,6.8,6.7v0.1c0,5-3.7,7.2-8.6,7.2C270.5,338.6,267.6,337.8,264.8,336z"/>
		</g>
		<g class="st0">
			<path class="st1" d="M287.1,331.8v-10.6h-0.2c-1.5,0-2.7-1.2-2.7-2.7c0-1.5,1.2-2.7,2.7-2.7h0.2v-2.8c0-1.8,1.4-3.2,3.2-3.2
				s3.2,1.4,3.2,3.2v2.8h2.8c1.5,0,2.7,1.2,2.7,2.7c0,1.5-1.2,2.7-2.7,2.7h-2.8v9.6c0,1.5,0.6,2.2,2.1,2.2c0.2,0,0.6,0,0.8,0
				c1.4,0,2.6,1.2,2.6,2.6c0,1.1-0.8,2.1-1.6,2.4c-1.2,0.5-2.3,0.6-3.6,0.6C289.7,338.5,287.1,337,287.1,331.8z"/>
			<path class="st1" d="M303.3,310.4c0-1.8,1.5-3,3.6-3c2,0,3.6,1.1,3.6,3v0.1c0,1.8-1.5,3-3.6,3
				C304.9,313.5,303.3,312.3,303.3,310.4L303.3,310.4z M303.7,318.7c0-1.8,1.4-3.2,3.2-3.2s3.2,1.4,3.2,3.2v16.6
				c0,1.8-1.4,3.2-3.2,3.2s-3.2-1.4-3.2-3.2V318.7z"/>
			<path class="st1" d="M316.1,318.7c0-1.8,1.4-3.2,3.2-3.2c1.8,0,3.2,1.4,3.2,3.2v0.3c1.5-1.9,3.4-3.6,6.6-3.6
				c2.9,0,5.2,1.3,6.3,3.6c2-2.3,4.3-3.6,7.4-3.6c4.7,0,7.6,2.8,7.6,8.3v11.7c0,1.8-1.4,3.2-3.2,3.2s-3.2-1.4-3.2-3.2v-9.6
				c0-3-1.3-4.6-3.7-4.6c-2.4,0-3.9,1.5-3.9,4.6v9.6c0,1.8-1.4,3.2-3.2,3.2c-1.8,0-3.2-1.4-3.2-3.2v-9.6c0-3-1.3-4.6-3.7-4.6
				c-2.4,0-3.9,1.5-3.9,4.6v9.6c0,1.8-1.4,3.2-3.2,3.2c-1.8,0-3.2-1.4-3.2-3.2V318.7z"/>
			<path class="st1" d="M376.3,335.2c0,1.8-1.4,3.2-3.2,3.2c-1.8,0-3.2-1.4-3.2-3.2V335c-1.5,1.9-3.4,3.6-6.6,3.6
				c-4.8,0-7.6-3.2-7.6-8.3v-11.6c0-1.8,1.4-3.2,3.2-3.2c1.8,0,3.2,1.4,3.2,3.2v9.6c0,3,1.4,4.6,3.9,4.6s4-1.5,4-4.6v-9.6
				c0-1.8,1.4-3.2,3.2-3.2c1.8,0,3.2,1.4,3.2,3.2V335.2z"/>
			<path class="st1" d="M382.2,310.5c0-1.8,1.4-3.2,3.2-3.2c1.8,0,3.2,1.4,3.2,3.2v24.7c0,1.8-1.4,3.2-3.2,3.2
				c-1.8,0-3.2-1.4-3.2-3.2V310.5z"/>
			<path class="st1" d="M393.3,331.7L393.3,331.7c0-5,3.7-7.2,9-7.2c2.3,0,3.9,0.4,5.5,0.9V325c0-2.6-1.6-4.1-4.8-4.1
				c-1.8,0-3.2,0.3-4.4,0.6c-0.4,0.1-0.6,0.2-0.9,0.2c-1.5,0-2.6-1.1-2.6-2.6c0-1.1,0.7-2.1,1.7-2.5c2-0.8,4.2-1.2,7.2-1.2
				c3.5,0,6,0.9,7.6,2.5c1.7,1.7,2.4,4.1,2.4,7.2v10.2c0,1.7-1.4,3.1-3.1,3.1c-1.8,0-3.1-1.3-3.1-2.6v0c-1.5,1.7-3.7,2.8-6.8,2.8
				C396.7,338.6,393.3,336.2,393.3,331.7z M407.9,330.3v-1.1c-1.1-0.5-2.5-0.8-4.1-0.8c-2.7,0-4.4,1.1-4.4,3.1v0.1
				c0,1.7,1.4,2.7,3.5,2.7C405.9,334.2,407.9,332.6,407.9,330.3z"/>
			<path class="st1" d="M418.3,327.1L418.3,327.1c0-6.5,4.9-11.8,11.8-11.8c3.4,0,5.8,0.9,7.7,2.5c0.4,0.3,1,1.1,1,2.2
				c0,1.6-1.3,2.8-2.9,2.8c-0.8,0-1.5-0.3-1.8-0.6c-1.1-0.9-2.3-1.4-4-1.4c-3.2,0-5.4,2.8-5.4,6.1v0.1c0,3.4,2.2,6.2,5.7,6.2
				c1.7,0,3-0.6,4.2-1.5c0.3-0.3,1-0.6,1.7-0.6c1.5,0,2.7,1.2,2.7,2.7c0,0.8-0.4,1.5-0.9,2c-1.9,1.7-4.3,2.9-8,2.9
				C423.3,338.7,418.3,333.5,418.3,327.1z"/>
			<path class="st1" d="M443.2,310.4c0-1.8,1.5-3,3.6-3s3.6,1.1,3.6,3v0.1c0,1.8-1.5,3-3.6,3S443.2,312.3,443.2,310.4L443.2,310.4z
				 M443.6,318.7c0-1.8,1.4-3.2,3.2-3.2c1.8,0,3.2,1.4,3.2,3.2v16.6c0,1.8-1.4,3.2-3.2,3.2c-1.8,0-3.2-1.4-3.2-3.2V318.7z"/>
			<path class="st1" d="M454.9,327.1L454.9,327.1c0-6.5,5.2-11.8,12.2-11.8c7,0,12.1,5.2,12.1,11.6v0.1c0,6.5-5.2,11.7-12.2,11.7
				C460,338.7,454.9,333.5,454.9,327.1z M472.9,327.1L472.9,327.1c0-3.4-2.4-6.3-5.9-6.3c-3.6,0-5.8,2.8-5.8,6.1v0.1
				c0,3.3,2.4,6.2,5.9,6.2C470.7,333.2,472.9,330.4,472.9,327.1z M465.3,312.4c0-0.4,0.2-0.8,0.4-1.1l2.3-3.6
				c0.5-0.9,1.3-1.4,2.4-1.4c1.5,0,3.6,1,3.6,1.9c0,0.6-0.3,1-0.8,1.5l-2.6,2.4c-1.2,1.1-2.2,1.4-3.6,1.4
				C465.9,313.5,465.3,313.1,465.3,312.4z"/>
			<path class="st1" d="M483.8,318.7c0-1.8,1.4-3.2,3.2-3.2s3.2,1.4,3.2,3.2v0.3c1.5-1.9,3.4-3.6,6.6-3.6c4.8,0,7.6,3.2,7.6,8.3
				v11.6c0,1.8-1.4,3.2-3.2,3.2s-3.2-1.4-3.2-3.2v-9.6c0-3-1.4-4.6-3.9-4.6c-2.4,0-4,1.5-4,4.6v9.6c0,1.8-1.4,3.2-3.2,3.2
				s-3.2-1.4-3.2-3.2V318.7z"/>
			<path class="st1" d="M523.1,311.9c0-1.8,1.4-3.2,3.2-3.2h0.7c1.4,0,2.3,0.7,2.9,1.7l7.8,12.7l7.8-12.7c0.7-1.1,1.6-1.6,2.9-1.6
				h0.7c1.8,0,3.2,1.4,3.2,3.2v23.3c0,1.8-1.4,3.2-3.2,3.2c-1.8,0-3.2-1.5-3.2-3.2v-14.6l-5.7,8.7c-0.7,1-1.5,1.6-2.7,1.6
				c-1.2,0-2-0.6-2.7-1.6l-5.6-8.6v14.6c0,1.8-1.4,3.1-3.2,3.1c-1.8,0-3.1-1.4-3.1-3.1V311.9z"/>
			<path class="st1" d="M579.2,335.2c0,1.8-1.4,3.2-3.2,3.2c-1.8,0-3.2-1.4-3.2-3.2V335c-1.5,1.9-3.4,3.6-6.6,3.6
				c-4.8,0-7.6-3.2-7.6-8.3v-11.6c0-1.8,1.4-3.2,3.2-3.2c1.8,0,3.2,1.4,3.2,3.2v9.6c0,3,1.4,4.6,3.9,4.6s4-1.5,4-4.6v-9.6
				c0-1.8,1.4-3.2,3.2-3.2c1.8,0,3.2,1.4,3.2,3.2V335.2z"/>
			<path class="st1" d="M584.3,336c-0.7-0.4-1.2-1.2-1.2-2.2c0-1.4,1.1-2.5,2.5-2.5c0.5,0,0.9,0.1,1.3,0.3c2.1,1.3,4.3,2,6.1,2
				c1.8,0,2.7-0.7,2.7-1.7v-0.1c0-1.4-2.2-1.8-4.6-2.6c-3.1-0.9-6.7-2.4-6.7-6.7v-0.1c0-4.6,3.7-7.1,8.2-7.1c2.3,0,4.8,0.6,7,1.7
				c0.9,0.5,1.5,1.3,1.5,2.4c0,1.4-1.1,2.5-2.6,2.5c-0.5,0-0.8-0.1-1.2-0.3c-1.8-0.9-3.5-1.4-4.9-1.4c-1.5,0-2.3,0.7-2.3,1.5v0.1
				c0,1.3,2.1,1.8,4.6,2.7c3.1,1,6.8,2.6,6.8,6.7v0.1c0,5-3.7,7.2-8.6,7.2C590,338.6,587,337.8,584.3,336z"/>
			<path class="st1" d="M605.9,310.4c0-1.8,1.5-3,3.6-3c2,0,3.6,1.1,3.6,3v0.1c0,1.8-1.5,3-3.6,3
				C607.4,313.5,605.9,312.3,605.9,310.4L605.9,310.4z M606.2,318.7c0-1.8,1.4-3.2,3.2-3.2c1.8,0,3.2,1.4,3.2,3.2v16.6
				c0,1.8-1.4,3.2-3.2,3.2c-1.8,0-3.2-1.4-3.2-3.2V318.7z"/>
			<path class="st1" d="M617.5,327.1L617.5,327.1c0-6.5,4.9-11.8,11.8-11.8c3.4,0,5.8,0.9,7.7,2.5c0.4,0.3,1,1.1,1,2.2
				c0,1.6-1.3,2.8-2.9,2.8c-0.8,0-1.5-0.3-1.8-0.6c-1.1-0.9-2.3-1.4-4-1.4c-3.2,0-5.4,2.8-5.4,6.1v0.1c0,3.4,2.2,6.2,5.7,6.2
				c1.7,0,3-0.6,4.2-1.5c0.3-0.3,1-0.6,1.7-0.6c1.5,0,2.7,1.2,2.7,2.7c0,0.8-0.4,1.5-0.9,2c-1.9,1.7-4.3,2.9-8,2.9
				C622.4,338.7,617.5,333.5,617.5,327.1z"/>
			<path class="st1" d="M641.2,331.7L641.2,331.7c0-5,3.7-7.2,9-7.2c2.3,0,3.9,0.4,5.5,0.9V325c0-2.6-1.6-4.1-4.8-4.1
				c-1.8,0-3.2,0.3-4.4,0.6c-0.4,0.1-0.6,0.2-0.9,0.2c-1.5,0-2.6-1.1-2.6-2.6c0-1.1,0.7-2.1,1.7-2.5c2-0.8,4.2-1.2,7.2-1.2
				c3.5,0,6,0.9,7.6,2.5c1.7,1.7,2.4,4.1,2.4,7.2v10.2c0,1.7-1.4,3.1-3.1,3.1c-1.8,0-3.1-1.3-3.1-2.6v0c-1.5,1.7-3.7,2.8-6.8,2.8
				C644.6,338.6,641.2,336.2,641.2,331.7z M655.8,330.3v-1.1c-1.1-0.5-2.5-0.8-4.1-0.8c-2.7,0-4.4,1.1-4.4,3.1v0.1
				c0,1.7,1.4,2.7,3.5,2.7C653.8,334.2,655.8,332.6,655.8,330.3z"/>
			<path class="st1" d="M667.6,310.5c0-1.8,1.4-3.2,3.2-3.2c1.8,0,3.2,1.4,3.2,3.2v24.7c0,1.8-1.4,3.2-3.2,3.2
				c-1.8,0-3.2-1.4-3.2-3.2V310.5z"/>
		</g>
		<g class="st0">
			<path class="st1" d="M367.8,365.1h-6.2c-1.6,0-3-1.3-3-3s1.3-3,3-3h18.8c1.6,0,3,1.3,3,3s-1.3,3-3,3h-6.2v20.4
				c0,1.8-1.4,3.2-3.2,3.2s-3.2-1.4-3.2-3.2V365.1z"/>
		</g>
		<g class="st0">
			<path class="st1" d="M392.7,388.9c-6.7,0-11.7-4.7-11.7-11.6v-0.1c0-6.4,4.6-11.7,11.1-11.7c7.5,0,10.8,6.2,10.8,10.8
				c0,1.8-1.3,3.1-3,3.1h-12.6c0.6,2.9,2.6,4.4,5.5,4.4c1.8,0,3.2-0.5,4.5-1.5c0.5-0.3,0.9-0.5,1.5-0.5c1.4,0,2.5,1.1,2.5,2.5
				c0,0.8-0.4,1.5-0.8,1.9C398.5,387.9,396,388.9,392.7,388.9z M396.8,375.5c-0.4-2.8-2.1-4.8-4.7-4.8c-2.6,0-4.4,1.9-4.9,4.8H396.8
				z"/>
			<path class="st1" d="M407.8,368.9c0-1.8,1.4-3.2,3.2-3.2c1.8,0,3.2,1.4,3.2,3.2v0.3c1.5-1.9,3.4-3.6,6.6-3.6
				c2.9,0,5.2,1.3,6.3,3.6c2-2.3,4.3-3.6,7.4-3.6c4.7,0,7.6,2.8,7.6,8.3v11.7c0,1.8-1.4,3.2-3.2,3.2c-1.8,0-3.2-1.4-3.2-3.2v-9.6
				c0-3-1.3-4.6-3.7-4.6c-2.4,0-3.9,1.5-3.9,4.6v9.6c0,1.8-1.4,3.2-3.2,3.2s-3.2-1.4-3.2-3.2v-9.6c0-3-1.3-4.6-3.7-4.6
				c-2.4,0-3.9,1.5-3.9,4.6v9.6c0,1.8-1.4,3.2-3.2,3.2c-1.8,0-3.2-1.4-3.2-3.2V368.9z"/>
			<path class="st1" d="M447.6,368.9c0-1.8,1.4-3.2,3.2-3.2c1.8,0,3.2,1.4,3.2,3.2v0.3c1.6-2.1,3.7-3.6,7-3.6
				c5.2,0,10.2,4.1,10.2,11.6v0.1c0,7.5-4.9,11.6-10.2,11.6c-3.4,0-5.5-1.5-7-3.4v6.7c0,1.8-1.4,3.2-3.2,3.2c-1.8,0-3.2-1.4-3.2-3.2
				V368.9z M464.8,377.3L464.8,377.3c0-3.8-2.5-6.3-5.5-6.3c-3,0-5.4,2.5-5.4,6.2v0.1c0,3.7,2.5,6.2,5.4,6.2
				C462.3,383.5,464.8,381,464.8,377.3z"/>
		</g>
		<g class="st0">
			<path class="st1" d="M475.8,368.9c0-1.8,1.4-3.2,3.2-3.2c1.8,0,3.2,1.4,3.2,3.2v1c0.9-2.2,2.4-4.2,4.3-4.2c2,0,3.1,1.3,3.1,3.1
				c0,1.7-1.1,2.7-2.4,3c-3.2,0.8-5,3.2-5,7.7v5.9c0,1.8-1.4,3.2-3.2,3.2c-1.8,0-3.2-1.4-3.2-3.2V368.9z"/>
		</g>
		<g class="st0">
			<path class="st1" d="M490.9,382L490.9,382c0-5,3.7-7.2,9-7.2c2.3,0,3.9,0.4,5.5,0.9v-0.4c0-2.6-1.6-4.1-4.8-4.1
				c-1.8,0-3.2,0.3-4.4,0.6c-0.4,0.1-0.6,0.2-0.9,0.2c-1.5,0-2.6-1.1-2.6-2.6c0-1.1,0.7-2.1,1.7-2.5c2-0.8,4.2-1.2,7.2-1.2
				c3.5,0,6,0.9,7.6,2.5c1.7,1.7,2.4,4.1,2.4,7.2v10.2c0,1.7-1.4,3.1-3.1,3.1c-1.8,0-3.1-1.3-3.1-2.6v0c-1.5,1.7-3.7,2.8-6.8,2.8
				C494.4,388.9,490.9,386.4,490.9,382z M505.6,380.5v-1.1c-1.1-0.5-2.5-0.8-4.1-0.8c-2.7,0-4.4,1.1-4.4,3.1v0.1
				c0,1.7,1.4,2.7,3.5,2.7C503.6,384.5,505.6,382.8,505.6,380.5z"/>
			<path class="st1" d="M517.1,368.9c0-1.8,1.4-3.2,3.2-3.2s3.2,1.4,3.2,3.2v0.3c1.5-1.9,3.4-3.6,6.6-3.6c4.8,0,7.6,3.2,7.6,8.3
				v11.6c0,1.8-1.4,3.2-3.2,3.2s-3.2-1.4-3.2-3.2v-9.6c0-3-1.4-4.6-3.9-4.6c-2.4,0-4,1.5-4,4.6v9.6c0,1.8-1.4,3.2-3.2,3.2
				s-3.2-1.4-3.2-3.2V368.9z"/>
			<path class="st1" d="M541.8,382L541.8,382c0-5,3.7-7.2,9-7.2c2.3,0,3.9,0.4,5.5,0.9v-0.4c0-2.6-1.6-4.1-4.8-4.1
				c-1.8,0-3.2,0.3-4.4,0.6c-0.4,0.1-0.6,0.2-0.9,0.2c-1.5,0-2.6-1.1-2.6-2.6c0-1.1,0.7-2.1,1.7-2.5c2-0.8,4.2-1.2,7.2-1.2
				c3.5,0,6,0.9,7.6,2.5c1.7,1.7,2.4,4.1,2.4,7.2v10.2c0,1.7-1.4,3.1-3.1,3.1c-1.8,0-3.1-1.3-3.1-2.6v0c-1.5,1.7-3.7,2.8-6.8,2.8
				C545.3,388.9,541.8,386.4,541.8,382z M556.5,380.5v-1.1c-1.1-0.5-2.5-0.8-4.1-0.8c-2.7,0-4.4,1.1-4.4,3.1v0.1
				c0,1.7,1.4,2.7,3.5,2.7C554.5,384.5,556.5,382.8,556.5,380.5z"/>
		</g>
		<path class="st1" d="M392.3,260.2c-0.4,3.3-2,6.3-4.5,8.4c-3.8,3.6-8.6,5.5-13.5,6.9c-6.9,2.1-14.1,3-21.2,2.5
			c-6.7-0.5-13.1-3-18.4-7c-1.8-1.3-3.5-2.7-5-4.3l0,0c0,0-0.1-0.1-0.1-0.1l-0.3-0.4c-0.2-0.3-0.5-0.6-0.8-0.9
			c-0.1-0.2-0.3-0.3-0.4-0.5l0,0c-0.1-0.1-0.2-0.2-0.3-0.4c-0.1-0.1-0.2-0.2-0.2-0.4c-0.6-0.9-1.1-1.7-1.8-2.8c0,0,0,0-0.1,0.1
			c-5.2-8.3-6.9-18.4-4.7-28c0,0,0-0.1,0-0.1l0,0c1.1-4.1,2.9-8.1,5.3-11.6c4.8-7,11.9-12.2,20.1-14.5c7.2-2.3,14.7-3.1,22.2-2.5
			c3.6,0.3,7,1.5,10,3.4c4.2,2.8,6.5,8.7,5.3,13.3c-1.3,5.4-6.1,9.2-11.6,9.4c-3,0.1-6.1,0.1-9.2,0.1c-2.2,0-4.4,0.3-6.5,1
			c-5,1.6-7.8,5.8-7.2,10.8c0.6,5.2,4.4,8.6,9.8,8.9c3.1,0.2,5.8-0.9,8.4-2.2c2.9-1.4,5.9-2.5,9.1-3.1
			C384.4,244.8,393.4,250,392.3,260.2z"/>
		<path class="st1" d="M325.4,260.8c-0.4,0.8-0.8,1.5-1.2,2.2c-0.2,0.3-0.4,0.5-0.5,0.8c0,0.1-0.1,0.1-0.1,0.2
			c0,0.1-0.1,0.1-0.1,0.2c-0.3,0.4-0.5,0.9-0.9,1.3c-3.4,4.5-7.9,7.4-13,9.6c-5.3,2.4-11.1,3.2-16.8,4.2c-5.1,1-10.3,0.6-15.1-1.2
			c-1.9-0.7-4-1.2-5.9-2c-2.5-1.1-4.6-3-5.9-5.4c-1-2-1.1-4.5-0.7-7.3c0.2-0.9,0.5-1.7,0.8-2.5c0.4-0.8,1-1.6,1.5-2.3
			c0.7-0.8,1.6-1.5,2.6-2c2.8-1.4,6-2.1,9.1-1.9c3.4,0,6.7,0.8,10,1.1c2.8,0.3,5.6,0.6,8.4-0.8c0.7-0.4,1.3-0.6,1.4-1.4
			s-0.7-1.2-1.3-1.6c-1.2-0.8-2.7-1.2-4.1-1.3c-4.7-0.3-9.5-0.7-14.2-1.1c-4.5-0.4-8.7-1.5-12.2-4.5c-4-3.2-6.4-8-6.7-13.1
			c-0.7-10.4,4.7-17.1,12.9-22.1c9.3-5.6,19.6-7.1,30.2-6.3c3.5,0.3,6.8,1.2,9.9,2.7c6.6,3.3,5.9,12.5,1,15.8
			c-2.5,1.7-5.5,2.6-8.6,2.5c-3.7-0.1-7.4-0.1-11.1-0.2c-1.6,0-3.1,0.3-4.6,0.7c-1,0.1-1.8,0.9-1.9,1.9c0,1.1,0.9,1.6,1.9,1.9
			c2.6,0.6,5.2,1,7.8,1.1c7,0.5,13.8,1.6,20,4.9l0,0l0,0c0.8,0.5,1.6,1.1,2.4,1.7c2.7,2.2,4.8,5.1,6,8.4
			C328.2,250.2,327.9,255.9,325.4,260.8z"/>
		<path class="st1" d="M473.5,258.4c1,6.8-2.4,11.1-7.2,14.8c-9.5,7.4-21.1,11.7-33.1,12.3c-6.7,0.4-13.3-0.2-19.4-3.2
			c-5.6-2.8-10.6-6.5-14.2-11.9c-2.5-3.8-4.9-7.9-5.7-12.3c-1-4.6-1.2-9.4-0.7-14.1c1.2-9.1,5.6-16.3,12.2-22.2
			c5.2-4.6,11.5-7.3,18.2-8.7c10.1-2.2,19.7-0.8,28.5,4.6c6.7,4.1,12.5,9.3,14.6,17.5c0.3,1.2,0.5,2.5,0.6,3.7
			c0.2,4.6-1.7,6.6-5.5,8.2c-3.7,1.5-7.5,2.7-11.3,3.8c-5.4,1.6-10.9,3.1-16.3,4.8c-2.5,0.8-5.1,1.1-7.6,2.5
			c1.6,1.5,3.6,2.4,5.8,2.4c6.7,0.4,12.7-1.6,18.4-5c1.8-1.1,3.5-2.3,5.3-3.1c3.7-2,8.2-2.2,12.1-0.5c1.9,0.8,2.1,0.6,2-1.5
			c-0.6-12.8-1.1-25.5-1.7-38.3c-0.1-2.2-0.1-4.4-0.1-6.6c-0.2-6,4.9-11.4,11.2-12.1c4.5-0.5,8.4,0.3,11.4,4
			c1.1,1.3,1.8,1.3,3.4,0.3c5.5-3.8,12.1-5.7,18.9-5.5c9.3,0.4,17.2,3.8,22.4,11.9c1.9,2.8,3,6.1,3.2,9.5c0.5,11,0.9,22,1.4,32.9
			c0.3,6-3.2,11.5-8.7,13.7c-6.5,2.7-14,0.3-17.8-5.7c-1-1.4-1.6-3.2-1.6-4.9c-0.2-8.7-0.6-17.3-1.1-26c-0.1-2.8-0.9-5.3-3.7-7
			c-1.9-1.4-4.4-1.6-6.5-0.6c-2.3,1-3.8,3.2-3.9,5.7c-0.1,2.3,0.1,4.6,0.2,7c0.3,6.3,0.5,12.7,0.8,19c0.3,6.1-2.9,11.6-8.5,13.8
			c-4.6,1.9-9.9,1.4-14.1-1.4C474.7,259.8,474.8,258.8,473.5,258.4z M422.3,244.2c4.5-1.3,8.7-2.6,12.9-3.9c1.2-0.4,1.5-0.8,0.9-2
			c-1.3-3-4.6-4.7-7.8-3.9C423.9,235.4,421.6,238.8,422.3,244.2L422.3,244.2z"/>
		<path class="st2" d="M179.2,197.1c-6.2,0.4-12.3-1.5-17.2-5.2c-6.9-5-11.5-11.4-12.7-20c-3.6-25.1-7.2-50.1-10.9-75.2
			c-2.9-19.7-5.7-39.5-8.6-59.2c-0.8-5.2-1.2-10.6,0.6-15.6c4.1-11.7,12.1-19,24.8-21.4c13.9-2.6,28,6,33.3,17
			c1.7,3.8,2.8,7.9,3.3,12.1c3.5,24.8,7.1,49.5,10.7,74.3c2.8,19.1,5.5,38.2,8.3,57.3c2.2,15.1-6.3,28-19,33.7
			C187.8,196.8,183.5,197.5,179.2,197.1z"/>
		<path class="st1" d="M245,123.7c5.5-4.2,12.1-6.5,19-6.6c8-0.3,15.3,1.9,21.2,7.3c4.9,4.3,7.8,10.5,7.8,17c0.1,11.5,0.1,23,0,34.5
			c0,8.2-6.6,14.9-14.9,15c-0.5,0-1,0-1.5-0.1c-6-0.6-10.9-3.9-12.7-9.3c-0.5-1.9-0.8-3.9-0.7-5.9c0-8.6,0-17.1,0-25.7
			c0-3.9-1.8-6.4-5.1-8.2s-8.4,0.5-9.6,4.6c-0.3,1.3-0.4,2.7-0.4,4.1c0,8.6-0.1,17.1,0,25.7c0.1,6.6-5,12.9-10.9,14.2
			c-7,1.5-12.9-0.1-16.9-6.8c-1.6-2.6-1.6-5.3-1.6-8.1c0-14.4,0-28.7,0-43.1c0-1,0.1-2.1,0.1-3.2c-0.1-4.5,4.4-10,8.5-11.2
			C235,115.9,240.1,116.9,245,123.7z"/>
		<path class="st3" d="M110.4,397.1c-9,0-18-0.8-26.9-2.6c-3.7-0.6-7.4-1.5-11-2.7c-10.5-3.7-20.4-9-29.3-15.6
			c-8.5-6.4-16.1-13.8-22.6-22.2c-4.8-6.1-8.9-12.7-12.2-19.8c-2.5-5.4-4.9-10.8-6-16.5c-2.9-14.4-3.1-29.2-0.6-43.7
			c1.4-7.5,3.5-14.8,6.4-21.8c1.5-3.9,3.4-7.7,5.5-11.4c2.9-4.9,6-9.7,9.5-14.2c4.5-5.7,9.5-10.9,15-15.6
			c7.5-6.5,15.8-11.8,24.9-15.9c18.8-8.4,38.4-14.4,59.3-13.7c10.8,0.4,21,3,30.1,9c9.6,6.3,14.3,15.4,13.3,26.8
			c-0.6,8.3-4.9,15.8-11.7,20.5c-3.6,2.6-8,3.6-12.3,4.5c-7.5,1.6-15.2,1.8-22.7,0.5c-9-1.6-17.5,0.4-25.8,3.6
			C76.2,252.7,65.5,268,65,286.5c-0.4,15.2,5.1,28.1,15.2,39.1c9,9.9,20.6,12.7,33.5,10.7c9.5-1.5,18.2-5.4,26.5-10.1
			c3.5-2,6.8-4.2,10.3-6.2c7.4-4.3,15.3-6.6,23.9-5.7c10.4,1.1,20.8,9.6,23.1,20.6c1.8,8.7-0.2,16.6-4.6,24.1
			c-4.2,7.3-10.3,12.7-17,17.7c-8,6-16.9,10.6-26.4,13.6C137,394.6,123.7,396.9,110.4,397.1z"/>
		<path class="st1" d="M216.6,244c-0.2-3.7,2.2-7.1,5.9-8c3.4-0.9,5.8,0.4,7.8,4.6c-4.1,1.5-8.2,3.1-12.3,4.6
			C217,245.5,216.7,244.9,216.6,244z M266,258.3c-0.6-5.4-4.3-9.1-9.7-9.2c-3,0-6,0.9-8.4,2.8c-4,2.8-8,5.8-12.9,7.2
			c-4.4,1.2-8.8,2-13.4-0.6c0.9-0.5,1.5-0.8,2-1c8.6-3.2,17.2-6.4,25.9-9.4c2.1-0.7,4.1-1.7,6-2.8c2.8-1.6,4.2-4.8,3.5-7.9
			c-0.9-4.7-3.2-9-6.7-12.2c-6.5-5.9-14.1-9.5-23-9.7c-13.3-0.3-24.5,4.2-32.7,15c-2.7,3.3-4.6,7.2-5.7,11.3
			c-1.1,5-1.3,10.1-0.4,15.1c1.2,6.9,4.6,13.2,9.8,18c8.7,8.3,19.7,10.1,31,8.4c8.3-1.4,16.2-4.6,23.1-9.4
			c4.1-2.7,8.4-5.5,10.7-10.3c0.2-0.5,0.4-1,0.5-1.5c0.1-0.4,0.1-0.6,0.3-1.3C266,259.8,266,259.1,266,258.3"/>
		<path class="st1" d="M156,315.8c-7.2,0-12.8-4.7-14.2-12c-1.7-8.4-3.4-16.7-5.1-25.1c-1.2-5.9-2.2-11.8-3.6-17.7
			c-1.8-7.4,3-17.8,14.9-18.1c3.5-0.1,6.9,0.9,9.4,3.8c0.4,0.4,0.7,0.8,1.1,1.1c1.1,1,1.9,0.9,2.2-0.6c0.4-1.4,1-2.7,1.8-3.9
			c2.9-4.6,7.5-5.8,12.4-5.6c7.4,0.1,13.3,6.2,13.1,13.6c0,0.1,0,0.3,0,0.4c-0.1,4.2-2.6,7.2-5.6,9.8s-6.6,4.4-9.9,6.7
			c-4.6,3.2-6.3,7.4-5.3,12.8s1.9,11,3.2,16.4C172.4,305.2,166.4,316.3,156,315.8z"/>
		<path class="st1" d="M661.9,275.8c-5.6-0.6-11-1.7-16.1-4.4c-14.1-7.4-20.9-19.3-20-34.9c0.9-15.4,9.2-26.4,23.4-32.2
			c13.2-5.5,26.5-5.1,38.8,3c20.5,13.6,21.8,43,2.7,58.7c-5,4.1-10.9,7-17.2,8.4c-0.6,0-1.2,0.2-1.8,0.6L661.9,275.8z M675.3,238.7
			c0.1-3.9-1.8-7.7-4.9-10c-4.1-3.2-10.1-2.5-13.4,1.6c-0.3,0.4-0.6,0.8-0.8,1.3c-2.5,4.9-2,10.8,1.5,15.1c1.7,2.3,4.4,3.8,7.3,4
			C671.2,250.9,675.5,246.2,675.3,238.7L675.3,238.7z"/>
		<path class="st1" d="M620.7,176.3c-6-3-13.2-1.5-17.6,3.5c-1.8,2.2-3,4.9-3.5,7.7c-0.7,3.4-0.8,6.9-2.1,10.2
			c-0.3,3-0.8,5.9-1.4,8.9c-1.4-0.7-2.8-1.5-4.1-2.5c-0.9-0.1-1.9-0.4-2.7-0.9c-2.6-1.2-5.3-1.9-8.2-2.2
			c-13.8-1.4-24.9,3.4-32.9,14.8c-3.8,5.3-6,11.7-6.3,18.2c-0.5,6,0.2,12.1,1.9,17.9c2.7,6.7,7.2,12.5,12.9,16.9
			c1.4,1,3.2,1.4,4.4,2.7c3,0.3,5.7,1.9,8.6,2.5c3.6,1,7.5,1.4,11.2,1c3.2-0.3,5.9-1.6,6.8-5.4c1.4,1.7,2.5,3.2,3.8,4.6
			c1.2,1.3,2.6,2.4,4.2,3.2c0.6,0.3,1.3,0.6,1.9,0.8c0.4,0.1,0.9,0.3,1.3,0.4c2.9,0.6,5.8,0.3,8.5-1c0.6-0.3,1.3-0.6,1.9-1
			c3.5-2.3,5.3-5.7,6-9.6c0.9-4.7,1.7-9.4,2.5-14.2s1.7-9.4,2.5-14.2c1.3-7.7,2.7-15.4,4-23.1s2.7-15.3,4-23
			C629.8,186,626.7,179.4,620.7,176.3z M579.2,249.8c-4.3-0.8-7.6-4.4-8-8.8c-0.5-3.5,0.2-7,2.1-10c1.9-3.1,4.7-5,8.4-4.6
			s7.1,2.1,8.7,5.9c0.7,1.7,1,3.5,1,5.2c0,2.3-0.6,4.6-1.8,6.6C587.3,248.7,583.7,250.6,579.2,249.8z"/>
	</g>
</g>
</svg>
